STARTFONT 2.1
COMMENT
COMMENT Converted from OpenType font "Galmuri11.ttf" by "otf2bdf 3.0".
COMMENT
FONT -FreeType-Galmuri11 Regular-Medium-R-Normal--19-140-100-100-P-172-ISO10646-1
SIZE 14 100 100
FONTBOUNDINGBOX 31 31 -3 -5
STARTPROPERTIES 19
FOUNDRY "FreeType"
FAMILY_NAME "Galmuri11 Regular"
WEIGHT_NAME "Medium"
SLANT "R"
SETWIDTH_NAME "Normal"
ADD_STYLE_NAME ""
PIXEL_SIZE 19
POINT_SIZE 140
RESOLUTION_X 100
RESOLUTION_Y 100
SPACING "P"
AVERAGE_WIDTH 172
CHARSET_REGISTRY "ISO10646"
CHARSET_ENCODING "1"
FONT_ASCENT 19
FONT_DESCENT -3
COPYRIGHT "Copyright (c) 2019-2022 Minseo Lee (itoupluk427@gmail.com), with Reserved Font Name "Galmuri"."
_OTF_FONTFILE "Galmuri11.ttf"
_OTF_PSNAME "Galmuri11-Regular"
ENDPROPERTIES
CHARS 20374
STARTCHAR 0020
ENCODING 32
SWIDTH 411 0
DWIDTH 8 0
BBX 0 0 0 0
BITMAP
ENDCHAR
STARTCHAR 0021
ENCODING 33
SWIDTH 360 0
DWIDTH 7 0
BBX 2 18 2 0
BITMAP
C0
C0
C0
C0
C0
C0
C0
C0
C0
C0
C0
C0
C0
00
00
C0
C0
C0
ENDCHAR
STARTCHAR 0022
ENCODING 34
SWIDTH 360 0
DWIDTH 7 0
BBX 5 5 0 13
BITMAP
D8
D8
D8
D8
D8
ENDCHAR
STARTCHAR 0023
ENCODING 35
SWIDTH 668 0
DWIDTH 13 0
BBX 12 18 0 0
BITMAP
0640
0640
0640
0640
0640
3FF0
3FF0
0980
0980
0980
0980
FFC0
FFC0
3600
3600
3600
3600
3600
ENDCHAR
STARTCHAR 0024
ENCODING 36
SWIDTH 668 0
DWIDTH 13 0
BBX 12 18 0 0
BITMAP
0600
0600
3FC0
C630
C630
C600
C600
C600
3FC0
3FC0
0630
0630
0630
C630
C630
3FC0
3FC0
0600
ENDCHAR
STARTCHAR 0025
ENCODING 37
SWIDTH 822 0
DWIDTH 16 0
BBX 15 15 0 1
BITMAP
3806
C608
C608
C630
FEF0
38C0
0100
0100
0638
18C6
18C6
20C6
20C6
C038
C038
ENDCHAR
STARTCHAR 0026
ENCODING 38
SWIDTH 668 0
DWIDTH 13 0
BBX 12 18 0 0
BITMAP
1E00
1E00
2100
2100
2100
2100
2600
2600
1800
1800
2600
C130
C130
C0C0
C0C0
2130
1E00
1E00
ENDCHAR
STARTCHAR 0027
ENCODING 39
SWIDTH 360 0
DWIDTH 7 0
BBX 2 5 2 13
BITMAP
C0
C0
C0
C0
C0
ENDCHAR
STARTCHAR 0028
ENCODING 40
SWIDTH 360 0
DWIDTH 7 0
BBX 5 18 0 0
BITMAP
18
18
20
20
20
C0
C0
C0
C0
C0
C0
C0
C0
20
20
20
18
18
ENDCHAR
STARTCHAR 0029
ENCODING 41
SWIDTH 360 0
DWIDTH 7 0
BBX 5 18 0 0
BITMAP
C0
C0
20
20
20
18
18
18
18
18
18
18
18
20
20
20
C0
C0
ENDCHAR
STARTCHAR 002A
ENCODING 42
SWIDTH 514 0
DWIDTH 10 0
BBX 8 12 0 3
BITMAP
18
18
D9
FF
3E
18
18
3E
D9
D9
18
18
ENDCHAR
STARTCHAR 002B
ENCODING 43
SWIDTH 668 0
DWIDTH 13 0
BBX 12 12 0 3
BITMAP
0600
0600
0600
0600
0600
FFF0
FFF0
0600
0600
0600
0600
0600
ENDCHAR
STARTCHAR 002C
ENCODING 44
SWIDTH 308 0
DWIDTH 6 0
BBX 3 4 0 -2
BITMAP
20
20
C0
C0
ENDCHAR
STARTCHAR 002D
ENCODING 45
SWIDTH 514 0
DWIDTH 10 0
BBX 8 2 0 8
BITMAP
FF
FF
ENDCHAR
STARTCHAR 002E
ENCODING 46
SWIDTH 360 0
DWIDTH 7 0
BBX 2 2 2 0
BITMAP
C0
C0
ENDCHAR
STARTCHAR 002F
ENCODING 47
SWIDTH 514 0
DWIDTH 10 0
BBX 8 18 0 0
BITMAP
01
01
01
06
06
06
00
18
18
18
18
18
20
20
20
C0
C0
C0
ENDCHAR
STARTCHAR 0030
ENCODING 48
SWIDTH 668 0
DWIDTH 13 0
BBX 12 18 0 0
BITMAP
1F00
1F00
20C0
C030
C030
C030
C030
C030
C030
C030
C030
C030
C030
C030
C030
20C0
1F00
1F00
ENDCHAR
STARTCHAR 0031
ENCODING 49
SWIDTH 514 0
DWIDTH 10 0
BBX 5 18 2 0
BITMAP
60
60
E0
E0
60
60
60
60
60
60
60
60
60
60
60
60
F8
F8
ENDCHAR
STARTCHAR 0032
ENCODING 50
SWIDTH 668 0
DWIDTH 13 0
BBX 12 18 0 0
BITMAP
1F00
1F00
20C0
C030
C030
0030
00C0
00C0
0700
0700
1800
2000
2000
C000
C000
C000
FFF0
FFF0
ENDCHAR
STARTCHAR 0033
ENCODING 51
SWIDTH 668 0
DWIDTH 13 0
BBX 12 18 0 0
BITMAP
1F00
1F00
20C0
C030
C030
0030
00C0
00C0
1F00
1F00
00C0
00C0
0030
C030
C030
20C0
1F00
1F00
ENDCHAR
STARTCHAR 0034
ENCODING 52
SWIDTH 668 0
DWIDTH 13 0
BBX 12 18 0 0
BITMAP
01C0
01C0
06C0
06C0
06C0
18C0
18C0
18C0
20C0
20C0
20C0
C0C0
C0C0
FFF0
FFF0
00C0
00C0
00C0
ENDCHAR
STARTCHAR 0035
ENCODING 53
SWIDTH 668 0
DWIDTH 13 0
BBX 12 18 0 0
BITMAP
FFF0
FFF0
C000
C000
C000
C000
DF00
DF00
E0C0
E0C0
0030
0030
0030
C030
C030
20C0
1F00
1F00
ENDCHAR
STARTCHAR 0036
ENCODING 54
SWIDTH 668 0
DWIDTH 13 0
BBX 12 18 0 0
BITMAP
0700
0700
1800
2000
2000
2000
DF00
DF00
E0C0
E0C0
C030
C030
C030
C030
C030
20C0
1F00
1F00
ENDCHAR
STARTCHAR 0037
ENCODING 55
SWIDTH 668 0
DWIDTH 13 0
BBX 11 18 0 0
BITMAP
FFE0
FFE0
0020
0020
0020
00C0
00C0
00C0
0300
0300
0300
0000
0400
0400
0400
1800
1800
1800
ENDCHAR
STARTCHAR 0038
ENCODING 56
SWIDTH 668 0
DWIDTH 13 0
BBX 12 18 0 0
BITMAP
1F00
1F00
20C0
C030
C030
C030
20C0
20C0
1F00
1F00
20C0
20C0
C030
C030
C030
20C0
1F00
1F00
ENDCHAR
STARTCHAR 0039
ENCODING 57
SWIDTH 668 0
DWIDTH 13 0
BBX 12 18 0 0
BITMAP
1F00
1F00
20C0
C030
C030
C030
C030
C030
20F0
20F0
1F30
1F30
00C0
00C0
00C0
0300
1C00
1C00
ENDCHAR
STARTCHAR 003A
ENCODING 58
SWIDTH 360 0
DWIDTH 7 0
BBX 2 9 2 4
BITMAP
C0
C0
C0
00
00
00
C0
C0
C0
ENDCHAR
STARTCHAR 003B
ENCODING 59
SWIDTH 308 0
DWIDTH 6 0
BBX 3 10 0 3
BITMAP
20
20
20
00
00
00
20
20
C0
C0
ENDCHAR
STARTCHAR 003C
ENCODING 60
SWIDTH 411 0
DWIDTH 8 0
BBX 7 12 0 3
BITMAP
06
06
18
38
20
C0
C0
20
18
18
06
06
ENDCHAR
STARTCHAR 003D
ENCODING 61
SWIDTH 514 0
DWIDTH 10 0
BBX 8 5 0 7
BITMAP
FF
FF
00
FF
FF
ENDCHAR
STARTCHAR 003E
ENCODING 62
SWIDTH 411 0
DWIDTH 8 0
BBX 7 12 0 3
BITMAP
C0
C0
20
38
18
06
06
18
20
20
C0
C0
ENDCHAR
STARTCHAR 003F
ENCODING 63
SWIDTH 514 0
DWIDTH 10 0
BBX 8 18 0 0
BITMAP
3E
3E
C1
C1
C1
01
06
06
18
18
18
18
18
00
00
18
18
18
ENDCHAR
STARTCHAR 0040
ENCODING 64
SWIDTH 822 0
DWIDTH 16 0
BBX 15 15 0 1
BITMAP
1FE0
2018
2018
C7C6
DFC6
D8C6
D8C6
D8C6
D9D8
C6E0
C6E0
2000
2000
1FF8
1FF8
ENDCHAR
STARTCHAR 0041
ENCODING 65
SWIDTH 668 0
DWIDTH 13 0
BBX 12 18 0 0
BITMAP
0600
0600
1900
1900
1900
1900
1900
20C0
20C0
20C0
20C0
3FC0
3FC0
C030
C030
C030
C030
C030
ENDCHAR
STARTCHAR 0042
ENCODING 66
SWIDTH 668 0
DWIDTH 13 0
BBX 12 18 0 0
BITMAP
FF00
FF00
C0C0
C030
C030
C030
C0C0
C0C0
FF00
FF00
C0C0
C0C0
C030
C030
C030
C0C0
FF00
FF00
ENDCHAR
STARTCHAR 0043
ENCODING 67
SWIDTH 771 0
DWIDTH 15 0
BBX 13 18 0 0
BITMAP
1FC0
1FC0
2030
C008
C008
C000
C000
C000
C000
C000
C000
C000
C000
C008
C008
2030
1FC0
1FC0
ENDCHAR
STARTCHAR 0044
ENCODING 68
SWIDTH 668 0
DWIDTH 13 0
BBX 12 18 0 0
BITMAP
FF00
FF00
C0C0
C030
C030
C030
C030
C030
C030
C030
C030
C030
C030
C030
C030
C0C0
FF00
FF00
ENDCHAR
STARTCHAR 0045
ENCODING 69
SWIDTH 565 0
DWIDTH 11 0
BBX 10 18 0 0
BITMAP
FFC0
FFC0
C000
C000
C000
C000
C000
C000
FFC0
FFC0
C000
C000
C000
C000
C000
C000
FFC0
FFC0
ENDCHAR
STARTCHAR 0046
ENCODING 70
SWIDTH 565 0
DWIDTH 11 0
BBX 10 18 0 0
BITMAP
FFC0
FFC0
C000
C000
C000
C000
C000
C000
FFC0
FFC0
C000
C000
C000
C000
C000
C000
C000
C000
ENDCHAR
STARTCHAR 0047
ENCODING 71
SWIDTH 771 0
DWIDTH 15 0
BBX 13 18 0 0
BITMAP
1FC0
1FC0
2030
C008
C008
C000
C000
C000
C1F8
C1F8
C008
C008
C008
C008
C008
2030
1FC0
1FC0
ENDCHAR
STARTCHAR 0048
ENCODING 72
SWIDTH 668 0
DWIDTH 13 0
BBX 12 18 0 0
BITMAP
C030
C030
C030
C030
C030
C030
C030
C030
FFF0
FFF0
C030
C030
C030
C030
C030
C030
C030
C030
ENDCHAR
STARTCHAR 0049
ENCODING 73
SWIDTH 360 0
DWIDTH 7 0
BBX 5 18 0 0
BITMAP
F8
F8
60
60
60
60
60
60
60
60
60
60
60
60
60
60
F8
F8
ENDCHAR
STARTCHAR 004A
ENCODING 74
SWIDTH 565 0
DWIDTH 11 0
BBX 10 18 0 0
BITMAP
00C0
00C0
00C0
00C0
00C0
00C0
00C0
00C0
00C0
00C0
00C0
00C0
00C0
C0C0
C0C0
2300
1C00
1C00
ENDCHAR
STARTCHAR 004B
ENCODING 75
SWIDTH 668 0
DWIDTH 13 0
BBX 12 18 0 0
BITMAP
C030
C030
C0C0
C100
C100
C600
DE00
D800
E000
E000
D800
C600
C600
C100
C100
C0C0
C030
C030
ENDCHAR
STARTCHAR 004C
ENCODING 76
SWIDTH 565 0
DWIDTH 11 0
BBX 10 18 0 0
BITMAP
C000
C000
C000
C000
C000
C000
C000
C000
C000
C000
C000
C000
C000
C000
C000
C000
FFC0
FFC0
ENDCHAR
STARTCHAR 004D
ENCODING 77
SWIDTH 822 0
DWIDTH 16 0
BBX 15 18 0 0
BITMAP
C006
C006
E00E
E00E
E00E
D836
D836
D836
D836
D836
C6C6
C6C6
C6C6
C6C6
C6C6
C106
C106
C106
ENDCHAR
STARTCHAR 004E
ENCODING 78
SWIDTH 720 0
DWIDTH 14 0
BBX 12 18 0 0
BITMAP
C030
C030
E030
E030
E030
D830
D830
D830
C630
C630
C130
C130
C130
C0F0
C0F0
C0F0
C030
C030
ENDCHAR
STARTCHAR 004F
ENCODING 79
SWIDTH 771 0
DWIDTH 15 0
BBX 13 18 0 0
BITMAP
1FC0
1FC0
2030
C008
C008
C008
C008
C008
C008
C008
C008
C008
C008
C008
C008
2030
1FC0
1FC0
ENDCHAR
STARTCHAR 0050
ENCODING 80
SWIDTH 668 0
DWIDTH 13 0
BBX 12 18 0 0
BITMAP
FF00
FF00
C0C0
C030
C030
C030
C030
C030
C0C0
C0C0
FF00
FF00
C000
C000
C000
C000
C000
C000
ENDCHAR
STARTCHAR 0051
ENCODING 81
SWIDTH 771 0
DWIDTH 15 0
BBX 13 18 0 0
BITMAP
1FC0
1FC0
2030
C008
C008
C008
C008
C008
C008
C008
C008
C308
C308
C0C8
C0C8
2030
1FC8
1FC8
ENDCHAR
STARTCHAR 0052
ENCODING 82
SWIDTH 668 0
DWIDTH 13 0
BBX 12 18 0 0
BITMAP
FF00
FF00
C0C0
C030
C030
C030
C030
C030
C0C0
C0C0
FF00
FF00
C600
C100
C100
C0C0
C030
C030
ENDCHAR
STARTCHAR 0053
ENCODING 83
SWIDTH 668 0
DWIDTH 13 0
BBX 12 18 0 0
BITMAP
1F00
1F00
20C0
C030
C030
C000
2000
2000
1F00
1F00
00C0
00C0
0030
C030
C030
20C0
1F00
1F00
ENDCHAR
STARTCHAR 0054
ENCODING 84
SWIDTH 668 0
DWIDTH 13 0
BBX 12 18 0 0
BITMAP
FFF0
FFF0
0600
0600
0600
0600
0600
0600
0600
0600
0600
0600
0600
0600
0600
0600
0600
0600
ENDCHAR
STARTCHAR 0055
ENCODING 85
SWIDTH 771 0
DWIDTH 15 0
BBX 13 18 0 0
BITMAP
C008
C008
C008
C008
C008
C008
C008
C008
C008
C008
C008
C008
C008
C008
C008
2030
1FC0
1FC0
ENDCHAR
STARTCHAR 0056
ENCODING 86
SWIDTH 668 0
DWIDTH 13 0
BBX 12 18 0 0
BITMAP
C030
C030
C030
C030
C030
20C0
20C0
20C0
20C0
20C0
1900
1900
1900
1900
1900
0600
0600
0600
ENDCHAR
STARTCHAR 0057
ENCODING 87
SWIDTH 822 0
DWIDTH 16 0
BBX 15 18 0 0
BITMAP
C106
C106
C106
C106
C106
C106
E7CE
26C8
26C8
26C8
26C8
26C8
26C8
1830
1830
1830
1830
1830
ENDCHAR
STARTCHAR 0058
ENCODING 88
SWIDTH 668 0
DWIDTH 13 0
BBX 12 18 0 0
BITMAP
C030
C030
20C0
20C0
20C0
1900
1900
1900
0600
0600
1900
1900
1900
20C0
20C0
20C0
C030
C030
ENDCHAR
STARTCHAR 0059
ENCODING 89
SWIDTH 668 0
DWIDTH 13 0
BBX 12 18 0 0
BITMAP
C030
C030
C030
20C0
20C0
20C0
0000
1900
1900
1900
0600
0600
0600
0600
0600
0600
0600
0600
ENDCHAR
STARTCHAR 005A
ENCODING 90
SWIDTH 565 0
DWIDTH 11 0
BBX 10 18 0 0
BITMAP
FFC0
FFC0
0100
0100
0100
0600
0600
0600
1800
1800
1800
0000
2000
2000
2000
C000
FFC0
FFC0
ENDCHAR
STARTCHAR 005B
ENCODING 91
SWIDTH 360 0
DWIDTH 7 0
BBX 5 18 0 0
BITMAP
F8
F8
C0
C0
C0
C0
C0
C0
C0
C0
C0
C0
C0
C0
C0
C0
F8
F8
ENDCHAR
STARTCHAR 005C
ENCODING 92
SWIDTH 514 0
DWIDTH 10 0
BBX 8 18 0 0
BITMAP
C0
C0
C0
20
20
20
00
18
18
18
18
18
06
06
06
01
01
01
ENDCHAR
STARTCHAR 005D
ENCODING 93
SWIDTH 308 0
DWIDTH 6 0
BBX 5 18 0 0
BITMAP
F8
F8
18
18
18
18
18
18
18
18
18
18
18
18
18
18
F8
F8
ENDCHAR
STARTCHAR 005E
ENCODING 94
SWIDTH 514 0
DWIDTH 10 0
BBX 8 5 0 13
BITMAP
18
18
26
C1
C1
ENDCHAR
STARTCHAR 005F
ENCODING 95
SWIDTH 514 0
DWIDTH 10 0
BBX 8 2 0 0
BITMAP
FF
FF
ENDCHAR
STARTCHAR 0060
ENCODING 96
SWIDTH 360 0
DWIDTH 7 0
BBX 5 5 0 13
BITMAP
C0
C0
20
18
18
ENDCHAR
STARTCHAR 0061
ENCODING 97
SWIDTH 565 0
DWIDTH 11 0
BBX 10 13 0 0
BITMAP
3F00
FFC0
C0C0
00C0
00C0
1FC0
20C0
20C0
C0C0
C0C0
C1C0
3EC0
3EC0
ENDCHAR
STARTCHAR 0062
ENCODING 98
SWIDTH 668 0
DWIDTH 13 0
BBX 12 18 0 0
BITMAP
C000
C000
C000
C000
C000
DF00
FFC0
E0C0
C030
C030
C030
C030
C030
C030
C030
E0C0
DF00
DF00
ENDCHAR
STARTCHAR 0063
ENCODING 99
SWIDTH 565 0
DWIDTH 11 0
BBX 10 13 0 0
BITMAP
1F00
3FC0
20C0
C000
C000
C000
C000
C000
C000
C000
20C0
1F00
1F00
ENDCHAR
STARTCHAR 0064
ENCODING 100
SWIDTH 668 0
DWIDTH 13 0
BBX 12 18 0 0
BITMAP
0030
0030
0030
0030
0030
1F30
3FF0
20F0
C030
C030
C030
C030
C030
C030
C030
20F0
1F30
1F30
ENDCHAR
STARTCHAR 0065
ENCODING 101
SWIDTH 668 0
DWIDTH 13 0
BBX 12 13 0 0
BITMAP
1F00
3FC0
20C0
C030
C030
FFF0
FFF0
C000
C030
C030
20C0
1F00
1F00
ENDCHAR
STARTCHAR 0066
ENCODING 102
SWIDTH 514 0
DWIDTH 10 0
BBX 8 18 0 0
BITMAP
07
07
18
18
18
FF
FF
18
18
18
18
18
18
18
18
18
18
18
ENDCHAR
STARTCHAR 0067
ENCODING 103
SWIDTH 668 0
DWIDTH 13 0
BBX 12 16 0 -3
BITMAP
1F30
3FF0
20F0
C030
C030
C030
C030
C030
20F0
1F30
1F30
C030
C030
20C0
1F00
1F00
ENDCHAR
STARTCHAR 0068
ENCODING 104
SWIDTH 565 0
DWIDTH 11 0
BBX 10 18 0 0
BITMAP
C000
C000
C000
C000
C000
DF00
FFC0
E0C0
C0C0
C0C0
C0C0
C0C0
C0C0
C0C0
C0C0
C0C0
C0C0
C0C0
ENDCHAR
STARTCHAR 0069
ENCODING 105
SWIDTH 360 0
DWIDTH 7 0
BBX 2 16 2 0
BITMAP
C0
C0
00
C0
C0
C0
C0
C0
C0
C0
C0
C0
C0
C0
C0
C0
ENDCHAR
STARTCHAR 006A
ENCODING 106
SWIDTH 514 0
DWIDTH 10 0
BBX 7 20 0 -3
BITMAP
06
06
00
00
06
06
06
06
06
06
06
06
06
06
06
06
06
C6
38
38
ENDCHAR
STARTCHAR 006B
ENCODING 107
SWIDTH 565 0
DWIDTH 11 0
BBX 10 18 0 0
BITMAP
C000
C000
C000
C000
C000
C0C0
C1C0
C100
C600
C600
F800
F800
D800
C600
C600
C100
C0C0
C0C0
ENDCHAR
STARTCHAR 006C
ENCODING 108
SWIDTH 360 0
DWIDTH 7 0
BBX 2 18 2 0
BITMAP
C0
C0
C0
C0
C0
C0
C0
C0
C0
C0
C0
C0
C0
C0
C0
C0
C0
C0
ENDCHAR
STARTCHAR 006D
ENCODING 109
SWIDTH 822 0
DWIDTH 16 0
BBX 15 13 0 0
BITMAP
DC38
FFFE
E3C6
C306
C306
C306
C306
C306
C306
C306
C306
C306
C306
ENDCHAR
STARTCHAR 006E
ENCODING 110
SWIDTH 565 0
DWIDTH 11 0
BBX 10 13 0 0
BITMAP
DF00
FFC0
E0C0
C0C0
C0C0
C0C0
C0C0
C0C0
C0C0
C0C0
C0C0
C0C0
C0C0
ENDCHAR
STARTCHAR 006F
ENCODING 111
SWIDTH 668 0
DWIDTH 13 0
BBX 12 13 0 0
BITMAP
1F00
3FC0
20C0
C030
C030
C030
C030
C030
C030
C030
20C0
1F00
1F00
ENDCHAR
STARTCHAR 0070
ENCODING 112
SWIDTH 668 0
DWIDTH 13 0
BBX 12 16 0 -3
BITMAP
DF00
FFC0
E0C0
C030
C030
C030
C030
C030
E0C0
DF00
DF00
C000
C000
C000
C000
C000
ENDCHAR
STARTCHAR 0071
ENCODING 113
SWIDTH 668 0
DWIDTH 13 0
BBX 12 16 0 -3
BITMAP
1F30
3FF0
20F0
C030
C030
C030
C030
C030
20F0
1F30
1F30
0030
0030
0030
0030
0030
ENDCHAR
STARTCHAR 0072
ENCODING 114
SWIDTH 514 0
DWIDTH 10 0
BBX 8 13 0 0
BITMAP
DC
FF
E3
C0
C0
C0
C0
C0
C0
C0
C0
C0
C0
ENDCHAR
STARTCHAR 0073
ENCODING 115
SWIDTH 565 0
DWIDTH 11 0
BBX 10 13 0 0
BITMAP
3F00
3F00
C0C0
C0C0
C000
3800
0700
0700
00C0
00C0
C0C0
3F00
3F00
ENDCHAR
STARTCHAR 0074
ENCODING 116
SWIDTH 514 0
DWIDTH 10 0
BBX 9 17 0 0
BITMAP
3000
3000
3000
3000
FF80
FF80
3000
3000
3000
3000
3000
3000
3000
3000
3180
0E00
0E00
ENDCHAR
STARTCHAR 0075
ENCODING 117
SWIDTH 668 0
DWIDTH 13 0
BBX 12 13 0 0
BITMAP
C030
C030
C030
C030
C030
C030
C030
C030
C030
C030
20F0
1F30
1F30
ENDCHAR
STARTCHAR 0076
ENCODING 118
SWIDTH 668 0
DWIDTH 13 0
BBX 12 13 0 0
BITMAP
C030
C030
C030
20C0
20C0
20C0
0000
1900
1900
1900
0600
0600
0600
ENDCHAR
STARTCHAR 0077
ENCODING 119
SWIDTH 822 0
DWIDTH 16 0
BBX 15 13 0 0
BITMAP
C106
C106
C106
C106
C106
26C8
26C8
26C8
26C8
26C8
1830
1830
1830
ENDCHAR
STARTCHAR 0078
ENCODING 120
SWIDTH 668 0
DWIDTH 13 0
BBX 12 13 0 0
BITMAP
C030
E0F0
20C0
1900
1900
0600
0600
0600
1900
1900
20C0
C030
C030
ENDCHAR
STARTCHAR 0079
ENCODING 121
SWIDTH 668 0
DWIDTH 13 0
BBX 12 16 0 -3
BITMAP
C030
C030
C030
20C0
20C0
20C0
1900
1900
1900
0000
0600
0600
0600
1800
E000
E000
ENDCHAR
STARTCHAR 007A
ENCODING 122
SWIDTH 617 0
DWIDTH 12 0
BBX 10 13 0 0
BITMAP
FFC0
FFC0
00C0
0100
0100
0600
1800
1800
2000
2000
C000
FFC0
FFC0
ENDCHAR
STARTCHAR 007B
ENCODING 123
SWIDTH 411 0
DWIDTH 8 0
BBX 6 18 0 0
BITMAP
1C
1C
20
20
20
20
20
20
C0
C0
20
20
20
20
20
20
1C
1C
ENDCHAR
STARTCHAR 007C
ENCODING 124
SWIDTH 360 0
DWIDTH 7 0
BBX 2 18 2 0
BITMAP
C0
C0
C0
C0
C0
C0
C0
C0
C0
C0
C0
C0
C0
C0
C0
C0
C0
C0
ENDCHAR
STARTCHAR 007D
ENCODING 125
SWIDTH 411 0
DWIDTH 8 0
BBX 7 18 0 0
BITMAP
E0
E0
18
18
18
18
18
18
06
06
18
18
18
18
18
18
E0
E0
ENDCHAR
STARTCHAR 007E
ENCODING 126
SWIDTH 668 0
DWIDTH 13 0
BBX 12 5 0 7
BITMAP
3800
3800
C630
01C0
01C0
ENDCHAR
STARTCHAR 00A0
ENCODING 160
SWIDTH 411 0
DWIDTH 8 0
BBX 0 0 0 0
BITMAP
ENDCHAR
STARTCHAR 00A1
ENCODING 161
SWIDTH 360 0
DWIDTH 7 0
BBX 2 18 2 -5
BITMAP
C0
C0
C0
00
00
C0
C0
C0
C0
C0
C0
C0
C0
C0
C0
C0
C0
C0
ENDCHAR
STARTCHAR 00A2
ENCODING 162
SWIDTH 668 0
DWIDTH 13 0
BBX 12 18 0 0
BITMAP
00C0
00C0
1F00
21C0
21C0
C130
C130
C600
C600
C600
C600
D830
D830
38C0
38C0
1F00
2000
2000
ENDCHAR
STARTCHAR 00A3
ENCODING 163
SWIDTH 771 0
DWIDTH 15 0
BBX 13 15 0 2
BITMAP
07C0
07C0
1820
1820
1820
1800
1800
3FC0
3FC0
0600
3E18
3E18
C618
39E0
39E0
ENDCHAR
STARTCHAR 00A4
ENCODING 164
SWIDTH 668 0
DWIDTH 13 0
BBX 12 12 0 3
BITMAP
DF30
DF30
20C0
20C0
C030
C030
C030
C030
20C0
20C0
DF30
DF30
ENDCHAR
STARTCHAR 00A5
ENCODING 165
SWIDTH 668 0
DWIDTH 13 0
BBX 12 14 0 2
BITMAP
C030
20C0
20C0
1900
1900
0600
FFF0
FFF0
0600
FFF0
FFF0
0600
0600
0600
ENDCHAR
STARTCHAR 00A6
ENCODING 166
SWIDTH 360 0
DWIDTH 7 0
BBX 2 18 2 0
BITMAP
C0
C0
C0
C0
C0
C0
C0
C0
00
00
C0
C0
C0
C0
C0
C0
C0
C0
ENDCHAR
STARTCHAR 00A7
ENCODING 167
SWIDTH 411 0
DWIDTH 8 0
BBX 7 18 0 0
BITMAP
38
38
C6
C6
C0
20
20
D8
C6
C6
26
18
18
06
06
C6
38
38
ENDCHAR
STARTCHAR 00A8
ENCODING 168
SWIDTH 360 0
DWIDTH 7 0
BBX 5 2 0 16
BITMAP
D8
D8
ENDCHAR
STARTCHAR 00A9
ENCODING 169
SWIDTH 1028 0
DWIDTH 20 0
BBX 18 18 0 0
BITMAP
07F800
07F800
180600
21E100
21E100
C618C0
C618C0
D800C0
D800C0
D800C0
D800C0
C618C0
C618C0
21E100
21E100
180600
07F800
07F800
ENDCHAR
STARTCHAR 00AA
ENCODING 170
SWIDTH 411 0
DWIDTH 8 0
BBX 7 12 0 7
BITMAP
F8
F8
06
3E
3E
C6
3E
3E
00
00
FE
FE
ENDCHAR
STARTCHAR 00AB
ENCODING 171
SWIDTH 617 0
DWIDTH 12 0
BBX 10 8 0 5
BITMAP
18C0
39C0
2100
C600
C600
2100
18C0
18C0
ENDCHAR
STARTCHAR 00AC
ENCODING 172
SWIDTH 822 0
DWIDTH 16 0
BBX 15 10 0 0
BITMAP
FFFE
FFFE
0006
0006
0006
0006
0006
0006
0006
0006
ENDCHAR
STARTCHAR 00AE
ENCODING 174
SWIDTH 822 0
DWIDTH 16 0
BBX 15 15 0 5
BITMAP
1FF0
1FF0
2008
DFC6
DFC6
D836
D836
DFC6
DFC6
D8C6
D836
D836
2008
1FF0
1FF0
ENDCHAR
STARTCHAR 00AF
ENCODING 175
SWIDTH 514 0
DWIDTH 10 0
BBX 8 2 0 16
BITMAP
FF
FF
ENDCHAR
STARTCHAR 00B0
ENCODING 176
SWIDTH 360 0
DWIDTH 7 0
BBX 5 5 0 13
BITMAP
20
20
D8
20
20
ENDCHAR
STARTCHAR 00B1
ENCODING 177
SWIDTH 668 0
DWIDTH 13 0
BBX 12 15 0 2
BITMAP
0600
0600
0600
0600
0600
FFF0
FFF0
0600
0600
0600
0600
0600
0000
FFF0
FFF0
ENDCHAR
STARTCHAR 00B2
ENCODING 178
SWIDTH 411 0
DWIDTH 8 0
BBX 7 9 0 10
BITMAP
F8
FE
18
18
20
20
C0
FE
FE
ENDCHAR
STARTCHAR 00B3
ENCODING 179
SWIDTH 411 0
DWIDTH 8 0
BBX 7 9 0 10
BITMAP
F8
FE
38
38
06
06
06
F8
F8
ENDCHAR
STARTCHAR 00B4
ENCODING 180
SWIDTH 360 0
DWIDTH 7 0
BBX 5 5 0 16
BITMAP
18
18
20
C0
C0
ENDCHAR
STARTCHAR 00B5
ENCODING 181
SWIDTH 565 0
DWIDTH 11 0
BBX 10 16 0 -3
BITMAP
C0C0
C0C0
C0C0
C0C0
C0C0
C0C0
C0C0
C0C0
C0C0
E3C0
E3C0
DCC0
DCC0
C000
C000
C000
ENDCHAR
STARTCHAR 00B6
ENCODING 182
SWIDTH 617 0
DWIDTH 12 0
BBX 10 18 0 0
BITMAP
3FC0
3FC0
FEC0
FEC0
FEC0
FEC0
FEC0
3EC0
3EC0
06C0
06C0
06C0
06C0
06C0
06C0
06C0
06C0
06C0
ENDCHAR
STARTCHAR 00B7
ENCODING 183
SWIDTH 360 0
DWIDTH 7 0
BBX 2 2 2 8
BITMAP
C0
C0
ENDCHAR
STARTCHAR 00B8
ENCODING 184
SWIDTH 360 0
DWIDTH 7 0
BBX 5 5 0 -3
BITMAP
60
60
18
E0
E0
ENDCHAR
STARTCHAR 00B9
ENCODING 185
SWIDTH 308 0
DWIDTH 6 0
BBX 5 9 0 10
BITMAP
E0
E0
60
60
60
60
60
F8
F8
ENDCHAR
STARTCHAR 00BA
ENCODING 186
SWIDTH 411 0
DWIDTH 8 0
BBX 7 12 0 7
BITMAP
38
38
C6
C6
C6
C6
38
38
00
00
FE
FE
ENDCHAR
STARTCHAR 00BB
ENCODING 187
SWIDTH 617 0
DWIDTH 12 0
BBX 10 8 0 5
BITMAP
C600
E700
2100
18C0
18C0
2100
C600
C600
ENDCHAR
STARTCHAR 00BC
ENCODING 188
SWIDTH 1028 0
DWIDTH 20 0
BBX 16 18 2 0
BITMAP
E000
2006
2006
2008
2030
2030
20C6
20C6
210E
0636
0636
18C6
18C6
20FF
C006
C006
0006
0006
ENDCHAR
STARTCHAR 00BD
ENCODING 189
SWIDTH 1028 0
DWIDTH 20 0
BBX 16 18 2 0
BITMAP
E000
E000
2006
2008
2008
2030
20C0
20C0
213E
213E
0601
1806
1806
2008
2008
C030
003F
003F
ENDCHAR
STARTCHAR 00BE
ENCODING 190
SWIDTH 1028 0
DWIDTH 20 0
BBX 18 18 0 0
BITMAP
F80000
060100
060100
780600
060800
060800
063100
063100
F8C700
010900
010900
063100
063100
183FC0
600100
600100
000100
000100
ENDCHAR
STARTCHAR 00BF
ENCODING 191
SWIDTH 514 0
DWIDTH 10 0
BBX 8 18 0 -5
BITMAP
18
18
18
00
00
18
18
18
18
20
20
C0
C0
C1
C1
C1
3E
3E
ENDCHAR
STARTCHAR 00C0
ENCODING 192
SWIDTH 668 0
DWIDTH 13 0
BBX 12 23 0 0
BITMAP
1800
1800
0600
0600
0000
0600
0600
1900
1900
1900
1900
1900
20C0
20C0
20C0
20C0
3FC0
3FC0
C030
C030
C030
C030
C030
ENDCHAR
STARTCHAR 00C1
ENCODING 193
SWIDTH 668 0
DWIDTH 13 0
BBX 12 23 0 0
BITMAP
0100
0100
0600
0600
0000
0600
0600
1900
1900
1900
1900
1900
20C0
20C0
20C0
20C0
3FC0
3FC0
C030
C030
C030
C030
C030
ENDCHAR
STARTCHAR 00C2
ENCODING 194
SWIDTH 668 0
DWIDTH 13 0
BBX 12 23 0 0
BITMAP
0600
0600
1900
1900
0000
0600
0600
1900
1900
1900
1900
1900
20C0
20C0
20C0
20C0
3FC0
3FC0
C030
C030
C030
C030
C030
ENDCHAR
STARTCHAR 00C3
ENCODING 195
SWIDTH 668 0
DWIDTH 13 0
BBX 12 23 0 0
BITMAP
1E30
1E30
21C0
21C0
0000
0600
0600
1900
1900
1900
1900
1900
20C0
20C0
20C0
20C0
3FC0
3FC0
C030
C030
C030
C030
C030
ENDCHAR
STARTCHAR 00C4
ENCODING 196
SWIDTH 668 0
DWIDTH 13 0
BBX 12 21 0 0
BITMAP
1900
1900
0000
0600
0600
1900
1900
1900
1900
1900
20C0
20C0
20C0
20C0
3FC0
3FC0
C030
C030
C030
C030
C030
ENDCHAR
STARTCHAR 00C5
ENCODING 197
SWIDTH 668 0
DWIDTH 13 0
BBX 12 23 0 0
BITMAP
0600
0600
1900
1900
0600
0600
0600
1900
1900
1900
1900
1900
20C0
20C0
20C0
20C0
3FC0
3FC0
C030
C030
C030
C030
C030
ENDCHAR
STARTCHAR 00C6
ENCODING 198
SWIDTH 822 0
DWIDTH 16 0
BBX 15 18 0 0
BITMAP
07FE
07FE
1B00
1B00
1B00
1B00
1B00
2300
23FE
23FE
2300
3F00
3F00
C300
C300
C300
C3FE
C3FE
ENDCHAR
STARTCHAR 00C7
ENCODING 199
SWIDTH 771 0
DWIDTH 15 0
BBX 13 21 0 -3
BITMAP
1FC0
3FF0
2030
C008
C008
C000
C000
C000
C000
C000
C000
C000
C000
C008
2030
2030
1FC0
1FC0
0300
1C00
1C00
ENDCHAR
STARTCHAR 00C8
ENCODING 200
SWIDTH 565 0
DWIDTH 11 0
BBX 10 23 0 0
BITMAP
1800
1800
0600
0600
0000
FFC0
FFC0
C000
C000
C000
C000
C000
C000
FFC0
FFC0
C000
C000
C000
C000
C000
C000
FFC0
FFC0
ENDCHAR
STARTCHAR 00C9
ENCODING 201
SWIDTH 565 0
DWIDTH 11 0
BBX 10 23 0 0
BITMAP
0600
0600
1800
1800
0000
FFC0
FFC0
C000
C000
C000
C000
C000
C000
FFC0
FFC0
C000
C000
C000
C000
C000
C000
FFC0
FFC0
ENDCHAR
STARTCHAR 00CA
ENCODING 202
SWIDTH 565 0
DWIDTH 11 0
BBX 10 23 0 0
BITMAP
0600
0600
1900
1900
0000
FFC0
FFC0
C000
C000
C000
C000
C000
C000
FFC0
FFC0
C000
C000
C000
C000
C000
C000
FFC0
FFC0
ENDCHAR
STARTCHAR 00CB
ENCODING 203
SWIDTH 668 0
DWIDTH 13 0
BBX 10 21 0 0
BITMAP
1B00
1B00
0000
FFC0
FFC0
C000
C000
C000
C000
C000
C000
FFC0
FFC0
C000
C000
C000
C000
C000
C000
FFC0
FFC0
ENDCHAR
STARTCHAR 00CC
ENCODING 204
SWIDTH 360 0
DWIDTH 7 0
BBX 5 23 0 0
BITMAP
C0
C0
20
20
00
F8
F8
20
20
20
20
20
20
20
20
20
20
20
20
20
20
F8
F8
ENDCHAR
STARTCHAR 00CD
ENCODING 205
SWIDTH 360 0
DWIDTH 7 0
BBX 5 23 0 0
BITMAP
18
18
60
60
00
F8
F8
60
60
60
60
60
60
60
60
60
60
60
60
60
60
F8
F8
ENDCHAR
STARTCHAR 00CE
ENCODING 206
SWIDTH 360 0
DWIDTH 7 0
BBX 5 23 0 0
BITMAP
20
20
D8
D8
00
F8
F8
20
20
20
20
20
20
20
20
20
20
20
20
20
20
F8
F8
ENDCHAR
STARTCHAR 00CF
ENCODING 207
SWIDTH 360 0
DWIDTH 7 0
BBX 5 21 0 0
BITMAP
D8
D8
00
F8
F8
20
20
20
20
20
20
20
20
20
20
20
20
20
20
F8
F8
ENDCHAR
STARTCHAR 00D0
ENCODING 208
SWIDTH 822 0
DWIDTH 16 0
BBX 15 18 0 0
BITMAP
1FE0
1FE0
1818
1806
1806
1806
1806
1806
FF06
FF06
1806
1806
1806
1806
1806
1818
1FE0
1FE0
ENDCHAR
STARTCHAR 00D1
ENCODING 209
SWIDTH 668 0
DWIDTH 13 0
BBX 12 23 0 0
BITMAP
1E30
1E30
21C0
21C0
0000
C030
C030
E030
E030
E030
D830
D830
D830
C630
C630
C130
C130
C130
C0F0
C0F0
C0F0
C030
C030
ENDCHAR
STARTCHAR 00D2
ENCODING 210
SWIDTH 771 0
DWIDTH 15 0
BBX 13 23 0 0
BITMAP
0600
0600
0100
0100
0000
1FC0
1FC0
2030
C008
C008
C008
C008
C008
C008
C008
C008
C008
C008
C008
C008
2030
1FC0
1FC0
ENDCHAR
STARTCHAR 00D3
ENCODING 211
SWIDTH 771 0
DWIDTH 15 0
BBX 13 23 0 0
BITMAP
0100
0100
0600
0600
0000
1FC0
1FC0
2030
C008
C008
C008
C008
C008
C008
C008
C008
C008
C008
C008
C008
2030
1FC0
1FC0
ENDCHAR
STARTCHAR 00D4
ENCODING 212
SWIDTH 771 0
DWIDTH 15 0
BBX 13 23 0 0
BITMAP
0100
0100
06C0
06C0
0000
1FC0
1FC0
2030
C008
C008
C008
C008
C008
C008
C008
C008
C008
C008
C008
C008
2030
1FC0
1FC0
ENDCHAR
STARTCHAR 00D5
ENCODING 213
SWIDTH 668 0
DWIDTH 13 0
BBX 12 23 0 0
BITMAP
1DC0
1DC0
21C0
21C0
0000
1FC0
1FC0
21C0
C000
C010
C010
C010
C010
C010
C010
C010
C010
C010
C010
C000
21C0
1FC0
1FC0
ENDCHAR
STARTCHAR 00D6
ENCODING 214
SWIDTH 771 0
DWIDTH 15 0
BBX 13 21 0 0
BITMAP
18C0
18C0
0000
1FC0
1FC0
2030
C008
C008
C008
C008
C008
C008
C008
C008
C008
C008
C008
C008
2030
1FC0
1FC0
ENDCHAR
STARTCHAR 00D7
ENCODING 215
SWIDTH 668 0
DWIDTH 13 0
BBX 12 12 0 3
BITMAP
C030
C030
20C0
39C0
1900
0600
0600
1900
20C0
20C0
C030
C030
ENDCHAR
STARTCHAR 00D8
ENCODING 216
SWIDTH 822 0
DWIDTH 16 0
BBX 15 18 0 0
BITMAP
07C0
07C0
1836
2008
2008
2038
20F8
20C8
2108
2108
2608
3808
3808
2008
2008
D830
07C0
07C0
ENDCHAR
STARTCHAR 00D9
ENCODING 217
SWIDTH 668 0
DWIDTH 13 0
BBX 12 23 0 0
BITMAP
1800
1800
0600
0600
0000
C030
C030
C030
C030
C030
C030
C030
C030
C030
C030
C030
C030
C030
C030
C030
20C0
1F00
1F00
ENDCHAR
STARTCHAR 00DA
ENCODING 218
SWIDTH 668 0
DWIDTH 13 0
BBX 12 23 0 0
BITMAP
0100
0100
0600
0600
0000
C030
C030
C030
C030
C030
C030
C030
C030
C030
C030
C030
C030
C030
C030
C030
20C0
1F00
1F00
ENDCHAR
STARTCHAR 00DB
ENCODING 219
SWIDTH 668 0
DWIDTH 13 0
BBX 12 23 0 0
BITMAP
0600
0600
1900
1900
0000
C030
C030
C030
C030
C030
C030
C030
C030
C030
C030
C030
C030
C030
C030
C030
20C0
1F00
1F00
ENDCHAR
STARTCHAR 00DC
ENCODING 220
SWIDTH 668 0
DWIDTH 13 0
BBX 12 21 0 0
BITMAP
1B00
1B00
0000
C030
C030
C030
C030
C030
C030
C030
C030
C030
C030
C030
C030
C030
C030
C030
20C0
1F00
1F00
ENDCHAR
STARTCHAR 00DD
ENCODING 221
SWIDTH 668 0
DWIDTH 13 0
BBX 12 23 0 0
BITMAP
0100
0100
0600
0600
0000
C030
C030
C030
20C0
20C0
20C0
0000
1900
1900
1900
0600
0600
0600
0600
0600
0600
0600
0600
ENDCHAR
STARTCHAR 00DE
ENCODING 222
SWIDTH 668 0
DWIDTH 13 0
BBX 12 18 0 0
BITMAP
C000
C000
C000
FF00
FF00
C0C0
C0C0
C030
C030
C030
C0C0
FF00
FF00
C000
C000
C000
C000
C000
ENDCHAR
STARTCHAR 00DF
ENCODING 223
SWIDTH 565 0
DWIDTH 11 0
BBX 10 18 0 0
BITMAP
1C00
1C00
2300
C0C0
C0C0
C0C0
C300
C300
DC00
DC00
C300
C300
C0C0
C0C0
C0C0
C300
DC00
DC00
ENDCHAR
STARTCHAR 00E0
ENCODING 224
SWIDTH 617 0
DWIDTH 12 0
BBX 10 18 0 0
BITMAP
1800
1800
0600
0600
0000
3F00
FFC0
C0C0
00C0
00C0
1FC0
20C0
20C0
C0C0
C0C0
C1C0
3EC0
3EC0
ENDCHAR
STARTCHAR 00E1
ENCODING 225
SWIDTH 617 0
DWIDTH 12 0
BBX 10 18 0 0
BITMAP
0600
0600
1800
1800
0000
3F00
FFC0
C0C0
00C0
00C0
1FC0
20C0
20C0
C0C0
C0C0
C1C0
3EC0
3EC0
ENDCHAR
STARTCHAR 00E2
ENCODING 226
SWIDTH 617 0
DWIDTH 12 0
BBX 10 18 0 0
BITMAP
0600
0600
1900
1900
0000
3F00
FFC0
C0C0
00C0
00C0
1FC0
20C0
20C0
C0C0
C0C0
C1C0
3EC0
3EC0
ENDCHAR
STARTCHAR 00E3
ENCODING 227
SWIDTH 565 0
DWIDTH 11 0
BBX 9 18 0 0
BITMAP
3880
3880
C700
C700
0000
3F00
FF80
C080
0080
0080
1F80
2080
2080
C080
C080
C180
3E80
3E80
ENDCHAR
STARTCHAR 00E4
ENCODING 228
SWIDTH 565 0
DWIDTH 11 0
BBX 10 16 0 0
BITMAP
2100
2100
0000
3F00
FFC0
C0C0
00C0
00C0
1FC0
20C0
20C0
C0C0
C0C0
C1C0
3EC0
3EC0
ENDCHAR
STARTCHAR 00E5
ENCODING 229
SWIDTH 617 0
DWIDTH 12 0
BBX 10 20 0 0
BITMAP
0600
0600
1900
1900
0600
0600
0000
3F00
FFC0
C0C0
00C0
00C0
1FC0
20C0
20C0
C0C0
C0C0
C1C0
3EC0
3EC0
ENDCHAR
STARTCHAR 00E6
ENCODING 230
SWIDTH 668 0
DWIDTH 13 0
BBX 12 13 0 0
BITMAP
39C0
FFF0
C630
0630
0630
1FF0
2600
2600
C600
C600
C630
39C0
39C0
ENDCHAR
STARTCHAR 00E7
ENCODING 231
SWIDTH 565 0
DWIDTH 11 0
BBX 10 16 0 -3
BITMAP
1F00
3FC0
20C0
C000
C000
C000
C000
C000
C000
20C0
20C0
1F00
1F00
0300
1C00
1C00
ENDCHAR
STARTCHAR 00E8
ENCODING 232
SWIDTH 668 0
DWIDTH 13 0
BBX 12 18 0 0
BITMAP
1800
1800
0600
0600
0000
1F00
3FC0
20C0
C030
C030
FFF0
FFF0
C000
C030
C030
20C0
1F00
1F00
ENDCHAR
STARTCHAR 00E9
ENCODING 233
SWIDTH 668 0
DWIDTH 13 0
BBX 12 18 0 0
BITMAP
0100
0100
0600
0600
0000
1F00
3FC0
20C0
C030
C030
FFF0
FFF0
C000
C030
C030
20C0
1F00
1F00
ENDCHAR
STARTCHAR 00EA
ENCODING 234
SWIDTH 668 0
DWIDTH 13 0
BBX 12 18 0 0
BITMAP
0600
0600
1900
1900
0000
1F00
3FC0
20C0
C030
C030
FFF0
FFF0
C000
C030
C030
20C0
1F00
1F00
ENDCHAR
STARTCHAR 00EB
ENCODING 235
SWIDTH 668 0
DWIDTH 13 0
BBX 12 16 0 0
BITMAP
1B00
1B00
0000
1F00
3FC0
20C0
C030
C030
FFF0
FFF0
C000
C030
C030
20C0
1F00
1F00
ENDCHAR
STARTCHAR 00EC
ENCODING 236
SWIDTH 308 0
DWIDTH 6 0
BBX 3 18 0 0
BITMAP
C0
C0
20
20
00
20
20
20
20
20
20
20
20
20
20
20
20
20
ENDCHAR
STARTCHAR 00ED
ENCODING 237
SWIDTH 360 0
DWIDTH 7 0
BBX 3 18 2 0
BITMAP
20
20
C0
C0
00
C0
C0
C0
C0
C0
C0
C0
C0
C0
C0
C0
C0
C0
ENDCHAR
STARTCHAR 00EE
ENCODING 238
SWIDTH 360 0
DWIDTH 7 0
BBX 5 18 0 0
BITMAP
20
20
D8
D8
00
20
20
20
20
20
20
20
20
20
20
20
20
20
ENDCHAR
STARTCHAR 00EF
ENCODING 239
SWIDTH 360 0
DWIDTH 7 0
BBX 5 16 0 0
BITMAP
D8
D8
00
20
20
20
20
20
20
20
20
20
20
20
20
20
ENDCHAR
STARTCHAR 00F0
ENCODING 240
SWIDTH 668 0
DWIDTH 13 0
BBX 12 18 0 0
BITMAP
38C0
38C0
0700
18C0
18C0
0030
1F30
1F30
20F0
20F0
C030
C030
C030
C030
C030
20C0
1F00
1F00
ENDCHAR
STARTCHAR 00F1
ENCODING 241
SWIDTH 565 0
DWIDTH 11 0
BBX 10 18 0 0
BITMAP
38C0
38C0
C700
C700
0000
DF00
FFC0
E0C0
C0C0
C0C0
C0C0
C0C0
C0C0
C0C0
C0C0
C0C0
C0C0
C0C0
ENDCHAR
STARTCHAR 00F2
ENCODING 242
SWIDTH 668 0
DWIDTH 13 0
BBX 12 18 0 0
BITMAP
1800
1800
0600
0600
0000
1F00
3FC0
20C0
C030
C030
C030
C030
C030
C030
C030
20C0
1F00
1F00
ENDCHAR
STARTCHAR 00F3
ENCODING 243
SWIDTH 668 0
DWIDTH 13 0
BBX 12 18 0 0
BITMAP
0100
0100
0600
0600
0000
1F00
3FC0
20C0
C030
C030
C030
C030
C030
C030
C030
20C0
1F00
1F00
ENDCHAR
STARTCHAR 00F4
ENCODING 244
SWIDTH 668 0
DWIDTH 13 0
BBX 12 18 0 0
BITMAP
0600
0600
1900
1900
0000
1F00
3FC0
20C0
C030
C030
C030
C030
C030
C030
C030
20C0
1F00
1F00
ENDCHAR
STARTCHAR 00F5
ENCODING 245
SWIDTH 668 0
DWIDTH 13 0
BBX 12 18 0 0
BITMAP
1CC0
1CC0
2300
2300
0000
1F00
3FC0
20C0
C030
C030
C030
C030
C030
C030
C030
20C0
1F00
1F00
ENDCHAR
STARTCHAR 00F6
ENCODING 246
SWIDTH 668 0
DWIDTH 13 0
BBX 12 16 0 0
BITMAP
1B00
1B00
0000
1F00
3FC0
20C0
C030
C030
C030
C030
C030
C030
C030
20C0
1F00
1F00
ENDCHAR
STARTCHAR 00F7
ENCODING 247
SWIDTH 668 0
DWIDTH 13 0
BBX 12 12 0 3
BITMAP
0600
0600
0000
0000
0000
FFF0
FFF0
0000
0000
0000
0600
0600
ENDCHAR
STARTCHAR 00F8
ENCODING 248
SWIDTH 668 0
DWIDTH 13 0
BBX 12 13 0 0
BITMAP
1F30
3FF0
20C0
C130
C130
C630
C630
C630
D830
D830
20C0
DF00
DF00
ENDCHAR
STARTCHAR 00F9
ENCODING 249
SWIDTH 720 0
DWIDTH 14 0
BBX 12 18 0 0
BITMAP
1800
1800
0600
0600
0000
C030
C030
C030
C030
C030
C030
C030
C030
C030
C030
20F0
1FB0
1FB0
ENDCHAR
STARTCHAR 00FA
ENCODING 250
SWIDTH 720 0
DWIDTH 14 0
BBX 12 18 0 0
BITMAP
0100
0100
0600
0600
0000
C030
C030
C030
C030
C030
C030
C030
C030
C030
C030
20F0
1F30
1F30
ENDCHAR
STARTCHAR 00FB
ENCODING 251
SWIDTH 668 0
DWIDTH 13 0
BBX 12 18 0 0
BITMAP
0600
0600
1900
1900
0000
C030
C030
C030
C030
C030
C030
C030
C030
C030
C030
20F0
1F30
1F30
ENDCHAR
STARTCHAR 00FC
ENCODING 252
SWIDTH 668 0
DWIDTH 13 0
BBX 12 16 0 0
BITMAP
1B00
1B00
0000
C030
C030
C030
C030
C030
C030
C030
C030
C030
C030
20F0
1F30
1F30
ENDCHAR
STARTCHAR 00FD
ENCODING 253
SWIDTH 668 0
DWIDTH 13 0
BBX 12 21 0 -3
BITMAP
0100
0700
0600
0000
0000
C030
C030
C030
20C0
20C0
20C0
1900
1900
1900
0000
0600
0600
0600
1800
E000
E000
ENDCHAR
STARTCHAR 00FE
ENCODING 254
SWIDTH 617 0
DWIDTH 12 0
BBX 12 20 0 -3
BITMAP
C000
C000
C000
C000
DF00
FFC0
E0C0
C030
C030
C030
C030
C030
C030
E0C0
E0C0
DF00
DF00
C000
C000
C000
ENDCHAR
STARTCHAR 00FF
ENCODING 255
SWIDTH 668 0
DWIDTH 13 0
BBX 12 20 0 -3
BITMAP
1900
1900
0000
0000
C030
C030
C030
20C0
20C0
20C0
1900
1900
1900
0000
0600
0600
0600
1800
E000
E000
ENDCHAR
STARTCHAR 0100
ENCODING 256
SWIDTH 668 0
DWIDTH 13 0
BBX 12 21 0 0
BITMAP
3FC0
3FC0
0000
0600
0600
1900
1900
1900
1900
1900
20C0
20C0
20C0
20C0
3FC0
3FC0
C030
C030
C030
C030
C030
ENDCHAR
STARTCHAR 0101
ENCODING 257
SWIDTH 565 0
DWIDTH 11 0
BBX 10 16 0 0
BITMAP
3F00
3F00
0000
3F00
FFC0
C0C0
00C0
00C0
1FC0
20C0
20C0
C0C0
C0C0
C1C0
3EC0
3EC0
ENDCHAR
STARTCHAR 0102
ENCODING 258
SWIDTH 668 0
DWIDTH 13 0
BBX 12 23 0 0
BITMAP
18C0
18C0
0700
0700
0000
0600
0600
1900
1900
1900
1900
1900
20C0
20C0
20C0
20C0
3FC0
3FC0
C030
C030
C030
C030
C030
ENDCHAR
STARTCHAR 0103
ENCODING 259
SWIDTH 565 0
DWIDTH 11 0
BBX 10 18 0 0
BITMAP
2300
2300
1C00
1C00
0000
3F00
FFC0
C0C0
00C0
00C0
1FC0
20C0
20C0
C0C0
C0C0
C3C0
3CC0
3CC0
ENDCHAR
STARTCHAR 0104
ENCODING 260
SWIDTH 668 0
DWIDTH 13 0
BBX 13 21 0 -3
BITMAP
0600
1F00
1900
1900
1900
1900
20C0
20C0
20C0
20C0
20C0
3FC0
3FC0
C030
C030
C030
C030
C030
00C0
0038
0038
ENDCHAR
STARTCHAR 0105
ENCODING 261
SWIDTH 565 0
DWIDTH 11 0
BBX 11 16 0 -3
BITMAP
3F00
FFC0
C0C0
00C0
1FC0
1FC0
20C0
20C0
C0C0
C1C0
C1C0
3EC0
3EC0
0100
00E0
00E0
ENDCHAR
STARTCHAR 0106
ENCODING 262
SWIDTH 771 0
DWIDTH 15 0
BBX 13 23 0 0
BITMAP
0100
0100
0600
0600
0000
1FC0
1FC0
2030
C008
C008
C000
C000
C000
C000
C000
C000
C000
C000
C008
C008
2030
1FC0
1FC0
ENDCHAR
STARTCHAR 0107
ENCODING 263
SWIDTH 565 0
DWIDTH 11 0
BBX 10 18 0 0
BITMAP
0100
0100
0600
0600
0000
1F00
3FC0
20C0
C000
C000
C000
C000
C000
C000
C000
20C0
1F00
1F00
ENDCHAR
STARTCHAR 0108
ENCODING 264
SWIDTH 771 0
DWIDTH 15 0
BBX 13 23 0 0
BITMAP
0100
0100
06C0
06C0
0000
1FC0
1FC0
2030
C008
C008
C000
C000
C000
C000
C000
C000
C000
C000
C008
C008
2030
1FC0
1FC0
ENDCHAR
STARTCHAR 0109
ENCODING 265
SWIDTH 617 0
DWIDTH 12 0
BBX 10 18 0 0
BITMAP
0600
0600
1900
1900
0000
1F00
3FC0
20C0
C000
C000
C000
C000
C000
C000
C000
20C0
1F00
1F00
ENDCHAR
STARTCHAR 010A
ENCODING 266
SWIDTH 720 0
DWIDTH 14 0
BBX 13 21 0 0
BITMAP
0300
0300
0000
1F80
1F80
2060
C008
C008
C000
C000
C000
C000
C000
C000
C000
C000
C008
C008
2060
1F80
1F80
ENDCHAR
STARTCHAR 010B
ENCODING 267
SWIDTH 565 0
DWIDTH 11 0
BBX 10 16 0 0
BITMAP
0600
0600
0000
1F00
3FC0
20C0
C000
C000
C000
C000
C000
C000
C000
20C0
1F00
1F00
ENDCHAR
STARTCHAR 010C
ENCODING 268
SWIDTH 771 0
DWIDTH 15 0
BBX 13 23 0 0
BITMAP
06C0
06C0
0100
0100
0000
1FC0
1FC0
2030
C008
C008
C000
C000
C000
C000
C000
C000
C000
C000
C008
C008
2030
1FC0
1FC0
ENDCHAR
STARTCHAR 010D
ENCODING 269
SWIDTH 617 0
DWIDTH 12 0
BBX 10 18 0 0
BITMAP
1900
1900
0600
0600
0000
1F00
3FC0
20C0
C000
C000
C000
C000
C000
C000
C000
20C0
1F00
1F00
ENDCHAR
STARTCHAR 010E
ENCODING 270
SWIDTH 668 0
DWIDTH 13 0
BBX 12 23 0 0
BITMAP
1900
1900
0600
0600
0000
FF00
FF00
C0C0
C030
C030
C030
C030
C030
C030
C030
C030
C030
C030
C030
C030
C0C0
FF00
FF00
ENDCHAR
STARTCHAR 010F
ENCODING 271
SWIDTH 668 0
DWIDTH 13 0
BBX 13 23 0 0
BITMAP
00C8
00C8
0030
0030
0000
0030
0030
0030
0030
0030
1F30
3FF0
20F0
C030
C030
C030
C030
C030
C030
C030
20F0
1F30
1F30
ENDCHAR
STARTCHAR 0110
ENCODING 272
SWIDTH 822 0
DWIDTH 16 0
BBX 15 18 0 0
BITMAP
1FE0
1FE0
1818
1806
1806
1806
1806
1806
FF06
FF06
1806
1806
1806
1806
1806
1818
1FE0
1FE0
ENDCHAR
STARTCHAR 0111
ENCODING 273
SWIDTH 822 0
DWIDTH 16 0
BBX 15 18 0 0
BITMAP
0030
0030
03FE
03FE
0030
1F30
3FF0
20F0
C030
C030
C030
C030
C030
C030
C030
20F0
1F30
1F30
ENDCHAR
STARTCHAR 0112
ENCODING 274
SWIDTH 565 0
DWIDTH 11 0
BBX 10 21 0 0
BITMAP
7F00
7F00
0000
FFC0
FFC0
C000
C000
C000
C000
C000
C000
FFC0
FFC0
C000
C000
C000
C000
C000
C000
FFC0
FFC0
ENDCHAR
STARTCHAR 0113
ENCODING 275
SWIDTH 668 0
DWIDTH 13 0
BBX 12 16 0 0
BITMAP
3FC0
3FC0
0000
1F00
3FC0
20C0
C030
C030
FFF0
FFF0
C000
C030
C030
20C0
1F00
1F00
ENDCHAR
STARTCHAR 0114
ENCODING 276
SWIDTH 565 0
DWIDTH 11 0
BBX 10 23 0 0
BITMAP
2300
2300
1C00
1C00
0000
FFC0
FFC0
C000
C000
C000
C000
C000
C000
FFC0
FFC0
C000
C000
C000
C000
C000
C000
FFC0
FFC0
ENDCHAR
STARTCHAR 0115
ENCODING 277
SWIDTH 668 0
DWIDTH 13 0
BBX 12 18 0 0
BITMAP
18C0
18C0
0700
0700
0000
1F00
3FC0
20C0
C030
C030
FFF0
FFF0
C000
C030
C030
20C0
1F00
1F00
ENDCHAR
STARTCHAR 0116
ENCODING 278
SWIDTH 565 0
DWIDTH 11 0
BBX 10 21 0 0
BITMAP
0600
0600
0000
FFC0
FFC0
C000
C000
C000
C000
C000
C000
FFC0
FFC0
C000
C000
C000
C000
C000
C000
FFC0
FFC0
ENDCHAR
STARTCHAR 0117
ENCODING 279
SWIDTH 668 0
DWIDTH 13 0
BBX 12 16 0 0
BITMAP
0600
0600
0000
1F00
3FC0
20C0
C030
C030
FFF0
FFF0
C000
C030
C030
20C0
1F00
1F00
ENDCHAR
STARTCHAR 0118
ENCODING 280
SWIDTH 565 0
DWIDTH 11 0
BBX 10 21 0 -3
BITMAP
FFC0
FFC0
C000
C000
C000
C000
C000
C000
FFC0
FFC0
C000
C000
C000
C000
C000
C000
FFC0
FFC0
1800
0700
0700
ENDCHAR
STARTCHAR 0119
ENCODING 281
SWIDTH 668 0
DWIDTH 13 0
BBX 12 16 0 -3
BITMAP
1F00
3FC0
C030
C030
FFF0
FFF0
C000
C000
C030
20C0
20C0
1F00
1F00
1800
0700
0700
ENDCHAR
STARTCHAR 011A
ENCODING 282
SWIDTH 565 0
DWIDTH 11 0
BBX 10 23 0 0
BITMAP
1900
1900
0600
0600
0000
FFC0
FFC0
C000
C000
C000
C000
C000
C000
FFC0
FFC0
C000
C000
C000
C000
C000
C000
FFC0
FFC0
ENDCHAR
STARTCHAR 011B
ENCODING 283
SWIDTH 668 0
DWIDTH 13 0
BBX 12 18 0 0
BITMAP
1900
1900
0600
0600
0000
1F00
3FC0
20C0
C030
C030
FFF0
FFF0
C000
C030
C030
20C0
1F00
1F00
ENDCHAR
STARTCHAR 011C
ENCODING 284
SWIDTH 771 0
DWIDTH 15 0
BBX 13 23 0 0
BITMAP
0100
0100
06C0
06C0
0000
1FC0
1FC0
2030
C008
C008
C000
C000
C000
C1F8
C1F8
C008
C008
C008
C008
C008
2030
1FC0
1FC0
ENDCHAR
STARTCHAR 011D
ENCODING 285
SWIDTH 668 0
DWIDTH 13 0
BBX 12 21 0 -3
BITMAP
0600
1F00
1900
0000
0000
1F30
3FF0
20F0
C030
C030
C030
C030
C030
20F0
1F30
1F30
C030
C030
20C0
1F00
1F00
ENDCHAR
STARTCHAR 011E
ENCODING 286
SWIDTH 771 0
DWIDTH 15 0
BBX 13 23 0 0
BITMAP
18C0
18C0
0700
0700
0000
1FC0
1FC0
2030
C008
C008
C000
C000
C000
C3F8
C3F8
C008
C008
C008
C008
C008
2030
1FC0
1FC0
ENDCHAR
STARTCHAR 011F
ENCODING 287
SWIDTH 668 0
DWIDTH 13 0
BBX 12 21 0 -3
BITMAP
18C0
1FC0
0700
0000
0000
1F30
3FF0
20F0
C030
C030
C030
C030
C030
20F0
1F30
1F30
C030
C030
20C0
1F00
1F00
ENDCHAR
STARTCHAR 0120
ENCODING 288
SWIDTH 720 0
DWIDTH 14 0
BBX 13 21 0 0
BITMAP
0300
0300
0000
1F80
1F80
2060
C008
C008
C000
C000
C000
C3F8
C3F8
C008
C008
C008
C008
C008
2060
1F80
1F80
ENDCHAR
STARTCHAR 0121
ENCODING 289
SWIDTH 668 0
DWIDTH 13 0
BBX 12 20 0 -3
BITMAP
0600
0600
0000
0000
1F30
3FF0
20F0
C030
C030
C030
C030
C030
20F0
1F30
1F30
C030
C030
20C0
1F00
1F00
ENDCHAR
STARTCHAR 0122
ENCODING 290
SWIDTH 771 0
DWIDTH 15 0
BBX 13 21 0 -3
BITMAP
1FC0
3FF0
2030
C008
C008
C000
C000
C000
C1F8
C1F8
C008
C008
C008
C008
2030
2030
1FC0
1FC0
0100
0600
0600
ENDCHAR
STARTCHAR 0123
ENCODING 291
SWIDTH 668 0
DWIDTH 13 0
BBX 12 21 0 -3
BITMAP
0100
0700
0600
0000
0000
1F30
3FF0
20F0
C030
C030
C030
C030
C030
20F0
1F30
1F30
C030
C030
20C0
1F00
1F00
ENDCHAR
STARTCHAR 0124
ENCODING 292
SWIDTH 668 0
DWIDTH 13 0
BBX 12 21 0 0
BITMAP
0600
1900
1900
C030
C030
C030
C030
C030
C030
C030
C030
FFF0
FFF0
C030
C030
C030
C030
C030
C030
C030
C030
ENDCHAR
STARTCHAR 0125
ENCODING 293
SWIDTH 565 0
DWIDTH 11 0
BBX 12 23 -2 0
BITMAP
2000
2000
D800
D800
0000
2000
2000
2000
2000
2000
27C0
3FF0
3830
2030
2030
2030
2030
2030
2030
2030
2030
2030
2030
ENDCHAR
STARTCHAR 0126
ENCODING 294
SWIDTH 874 0
DWIDTH 17 0
BBX 15 18 0 0
BITMAP
300C
300C
300C
FFFE
FFFE
300C
300C
300C
3FFC
3FFC
300C
300C
300C
300C
300C
300C
300C
300C
ENDCHAR
STARTCHAR 0127
ENCODING 295
SWIDTH 720 0
DWIDTH 14 0
BBX 13 18 0 0
BITMAP
1800
1800
FF00
FF00
1800
1BE0
1FF8
1C18
1818
1818
1818
1818
1818
1818
1818
1818
1818
1818
ENDCHAR
STARTCHAR 0128
ENCODING 296
SWIDTH 360 0
DWIDTH 7 0
BBX 7 23 0 0
BITMAP
26
26
D8
D8
00
F8
F8
20
20
20
20
20
20
20
20
20
20
20
20
20
20
F8
F8
ENDCHAR
STARTCHAR 0129
ENCODING 297
SWIDTH 360 0
DWIDTH 7 0
BBX 7 18 0 0
BITMAP
26
26
D8
D8
00
20
20
20
20
20
20
20
20
20
20
20
20
20
ENDCHAR
STARTCHAR 012A
ENCODING 298
SWIDTH 360 0
DWIDTH 7 0
BBX 5 21 0 0
BITMAP
F8
F8
00
F8
F8
60
60
60
60
60
60
60
60
60
60
60
60
60
60
F8
F8
ENDCHAR
STARTCHAR 012B
ENCODING 299
SWIDTH 360 0
DWIDTH 7 0
BBX 5 16 0 0
BITMAP
F8
F8
00
60
60
60
60
60
60
60
60
60
60
60
60
60
ENDCHAR
STARTCHAR 012C
ENCODING 300
SWIDTH 360 0
DWIDTH 7 0
BBX 7 23 0 0
BITMAP
C6
C6
38
38
00
F8
F8
20
20
20
20
20
20
20
20
20
20
20
20
20
20
F8
F8
ENDCHAR
STARTCHAR 012D
ENCODING 301
SWIDTH 360 0
DWIDTH 7 0
BBX 7 18 0 0
BITMAP
C6
C6
38
38
00
20
20
20
20
20
20
20
20
20
20
20
20
20
ENDCHAR
STARTCHAR 012E
ENCODING 302
SWIDTH 308 0
DWIDTH 6 0
BBX 6 21 0 -3
BITMAP
F8
F8
60
60
60
60
60
60
60
60
60
60
60
60
60
60
F8
F8
60
1C
1C
ENDCHAR
STARTCHAR 012F
ENCODING 303
SWIDTH 308 0
DWIDTH 6 0
BBX 5 21 0 -3
BITMAP
20
20
20
00
00
20
20
20
20
20
20
20
20
20
20
20
20
20
C0
38
38
ENDCHAR
STARTCHAR 0130
ENCODING 304
SWIDTH 360 0
DWIDTH 7 0
BBX 5 21 0 0
BITMAP
60
60
00
F8
F8
60
60
60
60
60
60
60
60
60
60
60
60
60
60
F8
F8
ENDCHAR
STARTCHAR 0131
ENCODING 305
SWIDTH 360 0
DWIDTH 7 0
BBX 2 13 2 0
BITMAP
C0
C0
C0
C0
C0
C0
C0
C0
C0
C0
C0
C0
C0
ENDCHAR
STARTCHAR 0132
ENCODING 306
SWIDTH 925 0
DWIDTH 18 0
BBX 15 18 2 0
BITMAP
C006
C006
C006
C006
C006
C006
C006
C006
C006
C006
C006
C006
C006
C606
C606
C118
C0E0
C0E0
ENDCHAR
STARTCHAR 0133
ENCODING 307
SWIDTH 617 0
DWIDTH 12 0
BBX 7 20 2 -3
BITMAP
C6
C6
00
00
C6
C6
C6
C6
C6
C6
C6
C6
C6
C6
C6
C6
C6
06
F8
F8
ENDCHAR
STARTCHAR 0134
ENCODING 308
SWIDTH 617 0
DWIDTH 12 0
BBX 12 23 0 0
BITMAP
00C0
00C0
0330
0330
0000
00C0
00C0
00C0
00C0
00C0
00C0
00C0
00C0
00C0
00C0
00C0
00C0
00C0
C0C0
C0C0
2300
1C00
1C00
ENDCHAR
STARTCHAR 0135
ENCODING 309
SWIDTH 514 0
DWIDTH 10 0
BBX 8 21 0 -3
BITMAP
06
1F
19
00
00
06
06
06
06
06
06
06
06
06
06
06
06
06
C6
38
38
ENDCHAR
STARTCHAR 0136
ENCODING 310
SWIDTH 668 0
DWIDTH 13 0
BBX 12 21 0 -3
BITMAP
C030
C0F0
C0C0
C100
C100
C600
DE00
D800
E000
D800
D800
C600
C600
C100
C0C0
C0C0
C030
C030
0600
1800
1800
ENDCHAR
STARTCHAR 0137
ENCODING 311
SWIDTH 565 0
DWIDTH 11 0
BBX 10 21 0 -3
BITMAP
C000
C000
C000
C000
C000
C0C0
C1C0
C100
C600
F800
F800
D800
D800
C600
C100
C100
C0C0
C0C0
0600
1800
1800
ENDCHAR
STARTCHAR 0138
ENCODING 312
SWIDTH 565 0
DWIDTH 11 0
BBX 10 13 0 0
BITMAP
C0C0
C1C0
C100
C600
C600
F800
F800
D800
C600
C600
C100
C0C0
C0C0
ENDCHAR
STARTCHAR 0139
ENCODING 313
SWIDTH 565 0
DWIDTH 11 0
BBX 10 23 0 0
BITMAP
2000
2000
C000
C000
0000
C000
C000
C000
C000
C000
C000
C000
C000
C000
C000
C000
C000
C000
C000
C000
C000
FFC0
FFC0
ENDCHAR
STARTCHAR 013A
ENCODING 314
SWIDTH 360 0
DWIDTH 7 0
BBX 3 23 2 0
BITMAP
20
20
C0
C0
00
C0
C0
C0
C0
C0
C0
C0
C0
C0
C0
C0
C0
C0
C0
C0
C0
C0
C0
ENDCHAR
STARTCHAR 013B
ENCODING 315
SWIDTH 565 0
DWIDTH 11 0
BBX 10 21 0 -3
BITMAP
C000
C000
C000
C000
C000
C000
C000
C000
C000
C000
C000
C000
C000
C000
C000
C000
FFC0
FFC0
0600
1800
1800
ENDCHAR
STARTCHAR 013C
ENCODING 316
SWIDTH 360 0
DWIDTH 7 0
BBX 3 21 2 -3
BITMAP
C0
C0
C0
C0
C0
C0
C0
C0
C0
C0
C0
C0
C0
C0
C0
C0
C0
C0
20
C0
C0
ENDCHAR
STARTCHAR 013D
ENCODING 317
SWIDTH 565 0
DWIDTH 11 0
BBX 12 23 -2 0
BITMAP
D800
D800
2000
2000
0000
2000
2000
2000
2000
2000
2000
2000
2000
2000
2000
2000
2000
2000
2000
2000
2000
3FF0
3FF0
ENDCHAR
STARTCHAR 013E
ENCODING 318
SWIDTH 360 0
DWIDTH 7 0
BBX 5 23 0 0
BITMAP
D8
D8
20
20
00
20
20
20
20
20
20
20
20
20
20
20
20
20
20
20
20
20
20
ENDCHAR
STARTCHAR 013F
ENCODING 319
SWIDTH 565 0
DWIDTH 11 0
BBX 10 18 0 0
BITMAP
C000
C000
C000
C000
C000
C000
C000
C000
C600
C600
C000
C000
C000
C000
C000
C000
FFC0
FFC0
ENDCHAR
STARTCHAR 0140
ENCODING 320
SWIDTH 462 0
DWIDTH 9 0
BBX 5 18 2 0
BITMAP
C0
C0
C0
C0
C0
C0
C0
C0
D8
D8
C0
C0
C0
C0
C0
C0
C0
C0
ENDCHAR
STARTCHAR 0141
ENCODING 321
SWIDTH 771 0
DWIDTH 15 0
BBX 13 18 0 0
BITMAP
1800
1800
1800
1800
1800
1B00
1F00
1C00
1800
1800
3800
D800
D800
1800
1800
1800
1FF8
1FF8
ENDCHAR
STARTCHAR 0142
ENCODING 322
SWIDTH 514 0
DWIDTH 10 0
BBX 8 18 0 0
BITMAP
18
18
18
18
18
1B
1F
1C
18
18
38
D8
D8
18
18
18
18
18
ENDCHAR
STARTCHAR 0143
ENCODING 323
SWIDTH 720 0
DWIDTH 14 0
BBX 12 23 0 0
BITMAP
0100
0100
0600
0600
0000
C030
C030
E030
E030
E030
D830
D830
D830
C630
C630
C130
C130
C130
C0F0
C0F0
C0F0
C030
C030
ENDCHAR
STARTCHAR 0144
ENCODING 324
SWIDTH 565 0
DWIDTH 11 0
BBX 10 18 0 0
BITMAP
0600
0600
1800
1800
0000
DF00
FFC0
E0C0
C0C0
C0C0
C0C0
C0C0
C0C0
C0C0
C0C0
C0C0
C0C0
C0C0
ENDCHAR
STARTCHAR 0145
ENCODING 325
SWIDTH 720 0
DWIDTH 14 0
BBX 12 21 0 -3
BITMAP
C030
C030
E030
E030
E030
D830
D830
D830
C630
C630
C130
C130
C130
C0F0
C0F0
C0F0
C030
C030
0600
1800
1800
ENDCHAR
STARTCHAR 0146
ENCODING 326
SWIDTH 565 0
DWIDTH 11 0
BBX 10 16 0 -3
BITMAP
DF00
FFC0
E0C0
C0C0
C0C0
C0C0
C0C0
C0C0
C0C0
C0C0
C0C0
C0C0
C0C0
0600
1800
1800
ENDCHAR
STARTCHAR 0147
ENCODING 327
SWIDTH 720 0
DWIDTH 14 0
BBX 12 21 0 0
BITMAP
1900
0600
0600
C030
C030
E030
E030
E030
D830
D830
D830
C630
C630
C130
C130
C130
C0F0
C0F0
C0F0
C030
C030
ENDCHAR
STARTCHAR 0148
ENCODING 328
SWIDTH 565 0
DWIDTH 11 0
BBX 10 18 0 0
BITMAP
1900
1900
0600
0600
0000
DF00
FFC0
E0C0
C0C0
C0C0
C0C0
C0C0
C0C0
C0C0
C0C0
C0C0
C0C0
C0C0
ENDCHAR
STARTCHAR 0149
ENCODING 329
SWIDTH 565 0
DWIDTH 11 0
BBX 10 18 0 0
BITMAP
2000
2000
C000
C000
0000
DF00
FFC0
E0C0
C0C0
C0C0
C0C0
C0C0
C0C0
C0C0
C0C0
C0C0
C0C0
C0C0
ENDCHAR
STARTCHAR 014A
ENCODING 330
SWIDTH 668 0
DWIDTH 13 0
BBX 12 21 0 -3
BITMAP
C030
C030
E030
E030
E030
D830
D830
D830
C630
C630
C130
C130
C130
C0F0
C0F0
C0F0
C030
C030
0030
01C0
01C0
ENDCHAR
STARTCHAR 014B
ENCODING 331
SWIDTH 565 0
DWIDTH 11 0
BBX 10 16 0 -3
BITMAP
DF00
FFC0
E0C0
C0C0
C0C0
C0C0
C0C0
C0C0
C0C0
C0C0
C0C0
C0C0
C0C0
00C0
0700
0700
ENDCHAR
STARTCHAR 014C
ENCODING 332
SWIDTH 771 0
DWIDTH 15 0
BBX 13 21 0 0
BITMAP
1FC0
1FC0
0000
1FC0
1FC0
2030
C008
C008
C008
C008
C008
C008
C008
C008
C008
C008
C008
C008
2030
1FC0
1FC0
ENDCHAR
STARTCHAR 014D
ENCODING 333
SWIDTH 668 0
DWIDTH 13 0
BBX 12 16 0 0
BITMAP
1F00
1F00
0000
1F00
3FC0
20C0
C030
C030
C030
C030
C030
C030
C030
20C0
1F00
1F00
ENDCHAR
STARTCHAR 014E
ENCODING 334
SWIDTH 771 0
DWIDTH 15 0
BBX 13 23 0 0
BITMAP
18C0
18C0
0700
0700
0000
1FC0
1FC0
2030
C008
C008
C008
C008
C008
C008
C008
C008
C008
C008
C008
C008
2030
1FC0
1FC0
ENDCHAR
STARTCHAR 014F
ENCODING 335
SWIDTH 668 0
DWIDTH 13 0
BBX 12 18 0 0
BITMAP
18C0
18C0
0700
0700
0000
1F00
3FC0
20C0
C030
C030
C030
C030
C030
C030
C030
20C0
1F00
1F00
ENDCHAR
STARTCHAR 0150
ENCODING 336
SWIDTH 771 0
DWIDTH 15 0
BBX 13 23 0 0
BITMAP
06C0
06C0
1900
1900
0000
1FC0
1FC0
2030
C008
C008
C008
C008
C008
C008
C008
C008
C008
C008
C008
C008
2030
1FC0
1FC0
ENDCHAR
STARTCHAR 0151
ENCODING 337
SWIDTH 668 0
DWIDTH 13 0
BBX 12 18 0 0
BITMAP
06C0
06C0
1900
1900
0000
1F00
3FC0
20C0
C030
C030
C030
C030
C030
C030
C030
20C0
1F00
1F00
ENDCHAR
STARTCHAR 0152
ENCODING 338
SWIDTH 822 0
DWIDTH 16 0
BBX 15 18 0 0
BITMAP
1FFE
1FFE
2300
C300
C300
C300
C300
C300
C3FE
C3FE
C300
C300
C300
C300
C300
2300
1FFE
1FFE
ENDCHAR
STARTCHAR 0153
ENCODING 339
SWIDTH 668 0
DWIDTH 13 0
BBX 12 13 0 0
BITMAP
39C0
39C0
C630
C630
C630
C7F0
C7F0
C600
C600
C600
C630
39C0
39C0
ENDCHAR
STARTCHAR 0154
ENCODING 340
SWIDTH 668 0
DWIDTH 13 0
BBX 12 23 0 0
BITMAP
0600
0600
1800
1800
0000
FF00
FF00
C0C0
C030
C030
C030
C030
C030
C0C0
C0C0
FF00
FF00
C600
C100
C100
C0C0
C030
C030
ENDCHAR
STARTCHAR 0155
ENCODING 341
SWIDTH 514 0
DWIDTH 10 0
BBX 8 18 0 0
BITMAP
18
18
20
20
00
DC
FF
E3
C0
C0
C0
C0
C0
C0
C0
C0
C0
C0
ENDCHAR
STARTCHAR 0156
ENCODING 342
SWIDTH 668 0
DWIDTH 13 0
BBX 12 21 0 -3
BITMAP
FF00
FFC0
C0C0
C030
C030
C030
C030
C030
C0C0
FF00
FF00
C600
C600
C100
C0C0
C0C0
C030
C030
0600
1800
1800
ENDCHAR
STARTCHAR 0157
ENCODING 343
SWIDTH 514 0
DWIDTH 10 0
BBX 8 16 0 -3
BITMAP
DC
FF
E3
C0
C0
C0
C0
C0
C0
C0
C0
C0
C0
18
20
20
ENDCHAR
STARTCHAR 0158
ENCODING 344
SWIDTH 668 0
DWIDTH 13 0
BBX 12 23 0 0
BITMAP
1900
1900
0600
0600
0000
FF00
FF00
C0C0
C030
C030
C030
C030
C030
C0C0
C0C0
FF00
FF00
C600
C100
C100
C0C0
C030
C030
ENDCHAR
STARTCHAR 0159
ENCODING 345
SWIDTH 514 0
DWIDTH 10 0
BBX 8 18 0 0
BITMAP
26
26
18
18
00
DE
FF
E1
C0
C0
C0
C0
C0
C0
C0
C0
C0
C0
ENDCHAR
STARTCHAR 015A
ENCODING 346
SWIDTH 668 0
DWIDTH 13 0
BBX 12 23 0 0
BITMAP
0100
0100
0600
0600
0000
1F00
1F00
20C0
C030
C030
C000
2000
2000
1F00
1F00
00C0
00C0
0030
C030
C030
20C0
1F00
1F00
ENDCHAR
STARTCHAR 015B
ENCODING 347
SWIDTH 565 0
DWIDTH 11 0
BBX 10 18 0 0
BITMAP
0600
0600
1800
1800
0000
3F00
3F00
C0C0
C0C0
C000
3800
0700
0700
00C0
00C0
C0C0
3F00
3F00
ENDCHAR
STARTCHAR 015C
ENCODING 348
SWIDTH 668 0
DWIDTH 13 0
BBX 12 23 0 0
BITMAP
0600
0600
1900
1900
0000
1F00
1F00
20C0
C030
C030
C000
2000
2000
1F00
1F00
00C0
00C0
0030
C030
C030
20C0
1F00
1F00
ENDCHAR
STARTCHAR 015D
ENCODING 349
SWIDTH 565 0
DWIDTH 11 0
BBX 10 18 0 0
BITMAP
0600
0600
1900
1900
0000
3F00
3F00
C0C0
C0C0
C000
3800
0700
0700
00C0
00C0
C0C0
3F00
3F00
ENDCHAR
STARTCHAR 015E
ENCODING 350
SWIDTH 668 0
DWIDTH 13 0
BBX 12 21 0 -3
BITMAP
1F00
3FC0
20C0
C030
C030
C000
2000
2000
1F00
00C0
00C0
0030
0030
C030
20C0
20C0
1F00
1F00
0300
1C00
1C00
ENDCHAR
STARTCHAR 015F
ENCODING 351
SWIDTH 565 0
DWIDTH 11 0
BBX 10 16 0 -3
BITMAP
3F00
FFC0
C0C0
C000
3800
3800
0700
0700
00C0
C0C0
C0C0
3F00
3F00
0600
3800
3800
ENDCHAR
STARTCHAR 0160
ENCODING 352
SWIDTH 668 0
DWIDTH 13 0
BBX 12 23 0 0
BITMAP
1900
1900
0600
0600
0000
1F00
1F00
20C0
C030
C030
C000
2000
2000
1F00
1F00
00C0
00C0
0030
C030
C030
20C0
1F00
1F00
ENDCHAR
STARTCHAR 0161
ENCODING 353
SWIDTH 565 0
DWIDTH 11 0
BBX 10 18 0 0
BITMAP
1900
1900
0600
0600
0000
3F00
3F00
C0C0
C0C0
C000
3800
0700
0700
00C0
00C0
C0C0
3F00
3F00
ENDCHAR
STARTCHAR 0162
ENCODING 354
SWIDTH 668 0
DWIDTH 13 0
BBX 11 21 0 -3
BITMAP
FFE0
FFE0
0C00
0C00
0C00
0C00
0C00
0C00
0C00
0C00
0C00
0C00
0C00
0C00
0C00
0C00
0C00
0C00
0300
1C00
1C00
ENDCHAR
STARTCHAR 0163
ENCODING 355
SWIDTH 514 0
DWIDTH 10 0
BBX 9 20 0 -3
BITMAP
3000
3000
3000
3000
FF80
FF80
3000
3000
3000
3000
3000
3000
3000
3180
3180
0E00
0E00
0600
3800
3800
ENDCHAR
STARTCHAR 0164
ENCODING 356
SWIDTH 668 0
DWIDTH 13 0
BBX 11 23 0 0
BITMAP
1B00
1B00
0400
0400
0000
FFE0
FFE0
0400
0400
0400
0400
0400
0400
0400
0400
0400
0400
0400
0400
0400
0400
0400
0400
ENDCHAR
STARTCHAR 0165
ENCODING 357
SWIDTH 514 0
DWIDTH 10 0
BBX 8 21 0 0
BITMAP
D8
20
20
00
00
20
20
20
FF
FF
20
20
20
20
20
20
20
20
23
1C
1C
ENDCHAR
STARTCHAR 0166
ENCODING 358
SWIDTH 668 0
DWIDTH 13 0
BBX 12 18 0 0
BITMAP
FFF0
FFF0
0600
0600
0600
0600
0600
0600
3FC0
3FC0
0600
0600
0600
0600
0600
0600
0600
0600
ENDCHAR
STARTCHAR 0167
ENCODING 359
SWIDTH 514 0
DWIDTH 10 0
BBX 9 17 0 0
BITMAP
3000
3000
3000
3000
FF80
FF80
3000
FF80
FF80
3000
3000
3000
3000
3000
3180
0E00
0E00
ENDCHAR
STARTCHAR 0168
ENCODING 360
SWIDTH 668 0
DWIDTH 13 0
BBX 12 23 0 0
BITMAP
1DC0
1DC0
21C0
21C0
0000
C000
C010
C010
C010
C010
C010
C010
C010
C010
C010
C010
C010
C010
C010
C000
21C0
1FC0
1FC0
ENDCHAR
STARTCHAR 0169
ENCODING 361
SWIDTH 668 0
DWIDTH 13 0
BBX 12 18 0 0
BITMAP
1CC0
1CC0
2300
2300
0000
C030
C030
C030
C030
C030
C030
C030
C030
C030
C030
20F0
1F30
1F30
ENDCHAR
STARTCHAR 016A
ENCODING 362
SWIDTH 771 0
DWIDTH 15 0
BBX 13 21 0 0
BITMAP
1FC0
1FC0
0000
C008
C008
C008
C008
C008
C008
C008
C008
C008
C008
C008
C008
C008
C008
C008
2030
1FC0
1FC0
ENDCHAR
STARTCHAR 016B
ENCODING 363
SWIDTH 668 0
DWIDTH 13 0
BBX 12 16 0 0
BITMAP
1F00
1F00
0000
C030
C030
C030
C030
C030
C030
C030
C030
C030
C030
20F0
1F30
1F30
ENDCHAR
STARTCHAR 016C
ENCODING 364
SWIDTH 771 0
DWIDTH 15 0
BBX 13 23 0 0
BITMAP
18C0
18C0
0700
0700
0000
C008
C008
C008
C008
C008
C008
C008
C008
C008
C008
C008
C008
C008
C008
C008
2030
1FC0
1FC0
ENDCHAR
STARTCHAR 016D
ENCODING 365
SWIDTH 668 0
DWIDTH 13 0
BBX 12 18 0 0
BITMAP
18C0
18C0
0700
0700
0000
C030
C030
C030
C030
C030
C030
C030
C030
C030
C030
20F0
1F30
1F30
ENDCHAR
STARTCHAR 016E
ENCODING 366
SWIDTH 771 0
DWIDTH 15 0
BBX 13 23 0 0
BITMAP
0100
0100
06C0
0100
0100
C008
C008
C008
C008
C008
C008
C008
C008
C008
C008
C008
C008
C008
C008
C008
2030
1FC0
1FC0
ENDCHAR
STARTCHAR 016F
ENCODING 367
SWIDTH 668 0
DWIDTH 13 0
BBX 12 18 0 0
BITMAP
0600
0600
1900
0600
0600
C030
C030
C030
C030
C030
C030
C030
C030
C030
C030
20F0
1F30
1F30
ENDCHAR
STARTCHAR 0170
ENCODING 368
SWIDTH 668 0
DWIDTH 13 0
BBX 12 23 0 0
BITMAP
06C0
06C0
1900
1900
0000
C030
C030
C030
C030
C030
C030
C030
C030
C030
C030
C030
C030
C030
C030
C030
20C0
1F00
1F00
ENDCHAR
STARTCHAR 0171
ENCODING 369
SWIDTH 668 0
DWIDTH 13 0
BBX 12 18 0 0
BITMAP
06C0
06C0
1900
1900
0000
C030
C030
C030
C030
C030
C030
C030
C030
C030
C030
20F0
1F30
1F30
ENDCHAR
STARTCHAR 0172
ENCODING 370
SWIDTH 668 0
DWIDTH 13 0
BBX 12 21 0 -3
BITMAP
C030
C030
C030
C030
C030
C030
C030
C030
C030
C030
C030
C030
C030
C030
20C0
20C0
1F00
1F00
1800
0700
0700
ENDCHAR
STARTCHAR 0173
ENCODING 371
SWIDTH 668 0
DWIDTH 13 0
BBX 13 16 0 -3
BITMAP
C030
C030
C030
C030
C030
C030
C030
C030
C030
20F0
20F0
1F30
1F30
00C0
0038
0038
ENDCHAR
STARTCHAR 0174
ENCODING 372
SWIDTH 822 0
DWIDTH 16 0
BBX 15 23 0 0
BITMAP
0100
0100
06C0
06C0
0000
C106
C106
C106
C106
C106
C106
E7CE
26C8
26C8
26C8
26C8
26C8
26C8
1830
1830
1830
1830
1830
ENDCHAR
STARTCHAR 0175
ENCODING 373
SWIDTH 822 0
DWIDTH 16 0
BBX 15 18 0 0
BITMAP
0100
0100
06C0
06C0
0000
C106
C106
C106
C106
C106
26C8
26C8
26C8
26C8
26C8
1830
1830
1830
ENDCHAR
STARTCHAR 0176
ENCODING 374
SWIDTH 668 0
DWIDTH 13 0
BBX 12 23 0 0
BITMAP
0600
0600
1900
1900
0000
C030
C030
C030
20C0
20C0
20C0
0000
1900
1900
1900
0600
0600
0600
0600
0600
0600
0600
0600
ENDCHAR
STARTCHAR 0177
ENCODING 375
SWIDTH 668 0
DWIDTH 13 0
BBX 12 21 0 -3
BITMAP
0600
1F00
1900
0000
0000
C030
C030
C030
20C0
20C0
20C0
1900
1900
1900
0000
0600
0600
0600
1800
E000
E000
ENDCHAR
STARTCHAR 0178
ENCODING 376
SWIDTH 668 0
DWIDTH 13 0
BBX 12 21 0 0
BITMAP
1900
1900
0000
C030
C030
C030
20C0
20C0
20C0
0000
1900
1900
1900
0600
0600
0600
0600
0600
0600
0600
0600
ENDCHAR
STARTCHAR 0179
ENCODING 377
SWIDTH 565 0
DWIDTH 11 0
BBX 10 23 0 0
BITMAP
0600
0600
1800
1800
0000
FFC0
FFC0
0100
0100
0100
0600
0600
0600
1800
1800
1800
0000
2000
2000
2000
C000
FFC0
FFC0
ENDCHAR
STARTCHAR 017A
ENCODING 378
SWIDTH 617 0
DWIDTH 12 0
BBX 10 18 0 0
BITMAP
0600
0600
1800
1800
0000
FFC0
FFC0
00C0
0100
0100
0600
1800
1800
2000
2000
C000
FFC0
FFC0
ENDCHAR
STARTCHAR 017B
ENCODING 379
SWIDTH 565 0
DWIDTH 11 0
BBX 10 21 0 0
BITMAP
0600
0600
0000
FFC0
FFC0
0100
0100
0100
0600
0600
0600
1800
1800
1800
0000
2000
2000
2000
C000
FFC0
FFC0
ENDCHAR
STARTCHAR 017C
ENCODING 380
SWIDTH 617 0
DWIDTH 12 0
BBX 10 16 0 0
BITMAP
0600
0600
0000
FFC0
FFC0
00C0
0100
0100
0600
1800
1800
2000
2000
C000
FFC0
FFC0
ENDCHAR
STARTCHAR 017D
ENCODING 381
SWIDTH 565 0
DWIDTH 11 0
BBX 10 23 0 0
BITMAP
1900
1900
0600
0600
0000
FFC0
FFC0
0100
0100
0100
0600
0600
0600
1800
1800
1800
0000
2000
2000
2000
C000
FFC0
FFC0
ENDCHAR
STARTCHAR 017E
ENCODING 382
SWIDTH 617 0
DWIDTH 12 0
BBX 10 18 0 0
BITMAP
1900
1900
0600
0600
0000
FFC0
FFC0
00C0
0100
0100
0600
1800
1800
2000
2000
C000
FFC0
FFC0
ENDCHAR
STARTCHAR 017F
ENCODING 383
SWIDTH 360 0
DWIDTH 7 0
BBX 5 18 0 0
BITMAP
38
38
C0
C0
C0
C0
C0
C0
C0
C0
C0
C0
C0
C0
C0
C0
C0
C0
ENDCHAR
STARTCHAR 0186
ENCODING 390
SWIDTH 771 0
DWIDTH 15 0
BBX 13 18 0 0
BITMAP
1FC0
1FC0
2030
C008
C008
0008
0008
0008
0008
0008
0008
0008
0008
C008
C008
2030
1FC0
1FC0
ENDCHAR
STARTCHAR 018E
ENCODING 398
SWIDTH 565 0
DWIDTH 11 0
BBX 10 18 0 0
BITMAP
FFC0
FFC0
00C0
00C0
00C0
00C0
00C0
00C0
FFC0
FFC0
00C0
00C0
00C0
00C0
00C0
00C0
FFC0
FFC0
ENDCHAR
STARTCHAR 018F
ENCODING 399
SWIDTH 771 0
DWIDTH 15 0
BBX 13 18 0 0
BITMAP
1FC0
1FC0
2030
C008
C008
0008
0008
0008
FFF8
FFF8
C008
C008
C008
C008
C008
2030
1FC0
1FC0
ENDCHAR
STARTCHAR 0190
ENCODING 400
SWIDTH 771 0
DWIDTH 15 0
BBX 13 18 0 0
BITMAP
1FC0
1FC0
2030
C008
C008
C000
2000
2000
1FC0
1FC0
2000
2000
C000
C008
C008
2030
1FC0
1FC0
ENDCHAR
STARTCHAR 0191
ENCODING 401
SWIDTH 617 0
DWIDTH 12 0
BBX 13 21 -3 -3
BITMAP
1FF8
1FF8
1800
1800
1800
1800
1800
1800
1FF8
1FF8
1800
1800
1800
1800
1800
1800
1800
1800
1800
E000
E000
ENDCHAR
STARTCHAR 0192
ENCODING 402
SWIDTH 514 0
DWIDTH 10 0
BBX 8 21 0 -3
BITMAP
07
07
18
18
18
FF
FF
18
18
18
18
18
18
18
18
18
18
18
18
E0
E0
ENDCHAR
STARTCHAR 0198
ENCODING 408
SWIDTH 668 0
DWIDTH 13 0
BBX 12 18 0 0
BITMAP
3830
3830
C0C0
C100
C100
C600
DE00
D800
E000
E000
D800
C600
C600
C100
C100
C0C0
C030
C030
ENDCHAR
STARTCHAR 0199
ENCODING 409
SWIDTH 565 0
DWIDTH 11 0
BBX 10 18 0 0
BITMAP
3800
3800
C000
C000
C000
C0C0
C1C0
C100
C600
C600
F800
F800
D800
C600
C600
C100
C0C0
C0C0
ENDCHAR
STARTCHAR 019C
ENCODING 412
SWIDTH 822 0
DWIDTH 16 0
BBX 14 18 0 0
BITMAP
C304
C304
C304
C304
C304
C304
C304
C304
C304
C304
C304
C304
C304
C304
C304
C71C
38E4
38E4
ENDCHAR
STARTCHAR 019D
ENCODING 413
SWIDTH 668 0
DWIDTH 13 0
BBX 15 21 -3 -3
BITMAP
1806
1806
1C06
1C06
1C06
1B06
1B06
1B06
18C6
18C6
1836
1836
1836
180E
180E
180E
1806
1806
1800
E000
E000
ENDCHAR
STARTCHAR 019E
ENCODING 414
SWIDTH 565 0
DWIDTH 11 0
BBX 10 16 0 -3
BITMAP
DF00
FFC0
E0C0
C0C0
C0C0
C0C0
C0C0
C0C0
C0C0
C0C0
C0C0
C0C0
C0C0
00C0
00C0
00C0
ENDCHAR
STARTCHAR 019F
ENCODING 415
SWIDTH 771 0
DWIDTH 15 0
BBX 13 18 0 0
BITMAP
1FC0
1FC0
2030
C008
C008
C008
C008
C008
FFF8
FFF8
C008
C008
C008
C008
C008
2030
1FC0
1FC0
ENDCHAR
STARTCHAR 01A7
ENCODING 423
SWIDTH 668 0
DWIDTH 13 0
BBX 12 18 0 0
BITMAP
1F00
1F00
20C0
C030
C030
0030
00C0
00C0
1F00
1F00
2000
2000
C000
C030
C030
20C0
1F00
1F00
ENDCHAR
STARTCHAR 01A8
ENCODING 424
SWIDTH 565 0
DWIDTH 11 0
BBX 10 13 0 0
BITMAP
3F00
3F00
C0C0
C0C0
00C0
0700
3800
3800
C000
C000
C0C0
3F00
3F00
ENDCHAR
STARTCHAR 01A9
ENCODING 425
SWIDTH 668 0
DWIDTH 13 0
BBX 12 18 0 0
BITMAP
FFF0
FFF0
C000
2000
2000
1800
1E00
0600
0100
0100
0600
1800
1800
2000
2000
C000
FFF0
FFF0
ENDCHAR
STARTCHAR 01AE
ENCODING 430
SWIDTH 668 0
DWIDTH 13 0
BBX 12 21 0 -3
BITMAP
FFF0
FFF0
0600
0600
0600
0600
0600
0600
0600
0600
0600
0600
0600
0600
0600
0600
0600
0600
0600
01C0
01C0
ENDCHAR
STARTCHAR 01B5
ENCODING 437
SWIDTH 565 0
DWIDTH 11 0
BBX 10 18 0 0
BITMAP
FFC0
FFC0
0100
0100
0100
0600
0600
0600
FFC0
FFC0
1800
1800
2000
2000
2000
C000
FFC0
FFC0
ENDCHAR
STARTCHAR 01B6
ENCODING 438
SWIDTH 565 0
DWIDTH 11 0
BBX 10 13 0 0
BITMAP
FFC0
FFC0
00C0
0300
0300
FFC0
FFC0
1800
2000
2000
C000
FFC0
FFC0
ENDCHAR
STARTCHAR 01C0
ENCODING 448
SWIDTH 360 0
DWIDTH 7 0
BBX 2 21 2 -3
BITMAP
C0
C0
C0
C0
C0
C0
C0
C0
C0
C0
C0
C0
C0
C0
C0
C0
C0
C0
C0
C0
C0
ENDCHAR
STARTCHAR 01C1
ENCODING 449
SWIDTH 514 0
DWIDTH 10 0
BBX 5 21 2 -3
BITMAP
D8
D8
D8
D8
D8
D8
D8
D8
D8
D8
D8
D8
D8
D8
D8
D8
D8
D8
D8
D8
D8
ENDCHAR
STARTCHAR 01C2
ENCODING 450
SWIDTH 514 0
DWIDTH 10 0
BBX 8 21 0 -3
BITMAP
18
18
18
18
18
18
FF
FF
18
18
18
18
18
FF
FF
18
18
18
18
18
18
ENDCHAR
STARTCHAR 01C3
ENCODING 451
SWIDTH 360 0
DWIDTH 7 0
BBX 2 18 2 0
BITMAP
C0
C0
C0
C0
C0
C0
C0
C0
C0
C0
C0
C0
C0
00
00
C0
C0
C0
ENDCHAR
STARTCHAR 01C4
ENCODING 452
SWIDTH 1182 0
DWIDTH 23 0
BBX 21 23 0 0
BITMAP
000130
000130
0000C0
0000C0
000000
FC1FF8
FC1FF8
C30030
C0C030
C0C030
C0C0C0
C0C0C0
C0C0C0
C0C100
C0C100
C0C100
C0C000
C0C600
C0C600
C0C600
C31800
FC1FF8
FC1FF8
ENDCHAR
STARTCHAR 01C5
ENCODING 453
SWIDTH 1285 0
DWIDTH 25 0
BBX 20 18 2 0
BITMAP
FC06C0
FC06C0
C30100
C0C000
C0C000
C0DFF0
C0DFF0
C0C0C0
C0C0C0
C0C0C0
C0C100
C0C100
C0C100
C0C600
C0C600
C30600
FC1FF0
FC1FF0
ENDCHAR
STARTCHAR 01C6
ENCODING 454
SWIDTH 1080 0
DWIDTH 21 0
BBX 20 18 0 0
BITMAP
00C6C0
00C6C0
00C100
00C100
00C000
1CDFF0
3FDFF0
23C0C0
C0C0C0
C0C0C0
C0C100
C0C100
C0C100
C0C600
C0C600
23C600
1CDFF0
1CDFF0
ENDCHAR
STARTCHAR 01C7
ENCODING 455
SWIDTH 1182 0
DWIDTH 23 0
BBX 21 18 0 0
BITMAP
C00008
C00008
C00008
C00008
C00008
C00008
C00008
C00008
C00008
C00008
C00008
C00008
C00008
C01808
C01808
C00630
FFC1C0
FFC1C0
ENDCHAR
STARTCHAR 01C8
ENCODING 456
SWIDTH 822 0
DWIDTH 16 0
BBX 15 21 0 -3
BITMAP
C000
C006
C006
C000
C000
C006
C006
C006
C006
C006
C006
C006
C006
C006
C006
C006
FFC6
FFC6
0006
0038
0038
ENDCHAR
STARTCHAR 01C9
ENCODING 457
SWIDTH 514 0
DWIDTH 10 0
BBX 7 21 2 -3
BITMAP
C0
C6
C6
C0
C0
C6
C6
C6
C6
C6
C6
C6
C6
C6
C6
C6
C6
C6
06
38
38
ENDCHAR
STARTCHAR 01CA
ENCODING 458
SWIDTH 1080 0
DWIDTH 21 0
BBX 20 18 0 0
BITMAP
C0C030
C0C030
E0C030
E0C030
E0C030
D8C030
D8C030
D8C030
C6C030
C6C030
C6C030
C0C030
C1C030
C1C030
C1C030
C0D830
C0C7C0
C0C7C0
ENDCHAR
STARTCHAR 01CB
ENCODING 459
SWIDTH 822 0
DWIDTH 16 0
BBX 15 21 0 -3
BITMAP
C0C0
C0C0
E0C6
E0C6
E0C0
D8C6
D8C6
D8C6
C6C6
C6C6
C6C6
C1C6
C1C6
C1C6
C0C6
C0C6
C0C6
C0C6
0006
0038
0038
ENDCHAR
STARTCHAR 01CC
ENCODING 460
SWIDTH 771 0
DWIDTH 15 0
BBX 13 20 0 -3
BITMAP
0018
0018
0000
0000
DC18
FF18
E318
C318
C318
C318
C318
C318
C318
C318
C318
C318
C318
0018
00E0
00E0
ENDCHAR
STARTCHAR 01CD
ENCODING 461
SWIDTH 668 0
DWIDTH 13 0
BBX 12 23 0 0
BITMAP
1900
1900
0600
0600
0000
0600
0600
1900
1900
1900
1900
1900
20C0
20C0
20C0
20C0
3FC0
3FC0
C030
C030
C030
C030
C030
ENDCHAR
STARTCHAR 01CE
ENCODING 462
SWIDTH 617 0
DWIDTH 12 0
BBX 10 18 0 0
BITMAP
1900
1900
0600
0600
0000
3F00
FFC0
C0C0
00C0
00C0
1FC0
20C0
20C0
C0C0
C0C0
C1C0
3EC0
3EC0
ENDCHAR
STARTCHAR 01CF
ENCODING 463
SWIDTH 360 0
DWIDTH 7 0
BBX 5 23 0 0
BITMAP
D8
D8
20
20
00
F8
F8
20
20
20
20
20
20
20
20
20
20
20
20
20
20
F8
F8
ENDCHAR
STARTCHAR 01D0
ENCODING 464
SWIDTH 360 0
DWIDTH 7 0
BBX 5 18 0 0
BITMAP
D8
D8
20
20
00
20
20
20
20
20
20
20
20
20
20
20
20
20
ENDCHAR
STARTCHAR 01D1
ENCODING 465
SWIDTH 771 0
DWIDTH 15 0
BBX 13 23 0 0
BITMAP
06C0
06C0
0100
0100
0000
1FC0
1FC0
2030
C008
C008
C008
C008
C008
C008
C008
C008
C008
C008
C008
C008
2030
1FC0
1FC0
ENDCHAR
STARTCHAR 01D2
ENCODING 466
SWIDTH 668 0
DWIDTH 13 0
BBX 12 18 0 0
BITMAP
1900
1900
0600
0600
0000
1F00
3FC0
20C0
C030
C030
C030
C030
C030
C030
C030
20C0
1F00
1F00
ENDCHAR
STARTCHAR 01D3
ENCODING 467
SWIDTH 771 0
DWIDTH 15 0
BBX 13 23 0 0
BITMAP
06C0
06C0
0100
0100
0000
C008
C008
C008
C008
C008
C008
C008
C008
C008
C008
C008
C008
C008
C008
C008
2030
1FC0
1FC0
ENDCHAR
STARTCHAR 01D4
ENCODING 468
SWIDTH 668 0
DWIDTH 13 0
BBX 12 18 0 0
BITMAP
1900
1900
0600
0600
0000
C030
C030
C030
C030
C030
C030
C030
C030
C030
C030
20F0
1F30
1F30
ENDCHAR
STARTCHAR 01D5
ENCODING 469
SWIDTH 771 0
DWIDTH 15 0
BBX 13 25 0 0
BITMAP
1FC0
1FC0
0000
0000
18C0
18C0
0000
C008
C008
C008
C008
C008
C008
C008
C008
C008
C008
C008
C008
C008
C008
C008
2030
1FC0
1FC0
ENDCHAR
STARTCHAR 01D6
ENCODING 470
SWIDTH 668 0
DWIDTH 13 0
BBX 12 20 0 0
BITMAP
1F00
1F00
0000
0000
1B00
1B00
0000
C030
C030
C030
C030
C030
C030
C030
C030
C030
C030
20F0
1F30
1F30
ENDCHAR
STARTCHAR 01D7
ENCODING 471
SWIDTH 771 0
DWIDTH 15 0
BBX 13 26 0 0
BITMAP
0100
0600
0600
0000
0000
18C0
18C0
0000
C008
C008
C008
C008
C008
C008
C008
C008
C008
C008
C008
C008
C008
C008
C008
2030
1FC0
1FC0
ENDCHAR
STARTCHAR 01D8
ENCODING 472
SWIDTH 668 0
DWIDTH 13 0
BBX 12 21 0 0
BITMAP
0100
0600
0600
0000
0000
1900
1900
0000
C030
C030
C030
C030
C030
C030
C030
C030
C030
C030
20F0
1F30
1F30
ENDCHAR
STARTCHAR 01D9
ENCODING 473
SWIDTH 771 0
DWIDTH 15 0
BBX 13 26 0 0
BITMAP
06C0
0100
0100
0000
0000
18C0
18C0
0000
C008
C008
C008
C008
C008
C008
C008
C008
C008
C008
C008
C008
C008
C008
C008
2030
1FC0
1FC0
ENDCHAR
STARTCHAR 01DA
ENCODING 474
SWIDTH 668 0
DWIDTH 13 0
BBX 12 21 0 0
BITMAP
1900
0600
0600
0000
0000
1900
1900
0000
C030
C030
C030
C030
C030
C030
C030
C030
C030
C030
20F0
1F30
1F30
ENDCHAR
STARTCHAR 01DB
ENCODING 475
SWIDTH 771 0
DWIDTH 15 0
BBX 13 26 0 0
BITMAP
0600
0100
0100
0000
0000
18C0
18C0
0000
C008
C008
C008
C008
C008
C008
C008
C008
C008
C008
C008
C008
C008
C008
C008
2030
1FC0
1FC0
ENDCHAR
STARTCHAR 01DC
ENCODING 476
SWIDTH 668 0
DWIDTH 13 0
BBX 12 21 0 0
BITMAP
1800
0600
0600
0000
0000
1900
1900
0000
C030
C030
C030
C030
C030
C030
C030
C030
C030
C030
20F0
1F30
1F30
ENDCHAR
STARTCHAR 01DD
ENCODING 477
SWIDTH 668 0
DWIDTH 13 0
BBX 12 13 0 0
BITMAP
1F00
3FC0
20C0
C030
C030
0030
FFF0
FFF0
C030
C030
20C0
1F00
1F00
ENDCHAR
STARTCHAR 01DE
ENCODING 478
SWIDTH 668 0
DWIDTH 13 0
BBX 12 25 0 0
BITMAP
3FC0
3FC0
0000
0000
1900
1900
0000
0600
0600
1900
1900
1900
1900
1900
20C0
20C0
20C0
20C0
3FC0
3FC0
C030
C030
C030
C030
C030
ENDCHAR
STARTCHAR 01DF
ENCODING 479
SWIDTH 565 0
DWIDTH 11 0
BBX 10 20 0 0
BITMAP
3FC0
3FC0
0000
0000
1900
1900
0000
3F00
FFC0
C0C0
00C0
00C0
1FC0
20C0
20C0
C0C0
C0C0
C1C0
3EC0
3EC0
ENDCHAR
STARTCHAR 01E0
ENCODING 480
SWIDTH 668 0
DWIDTH 13 0
BBX 12 25 0 0
BITMAP
3FC0
3FC0
0000
0000
0600
0600
0000
0600
0600
1900
1900
1900
1900
1900
20C0
20C0
20C0
20C0
3FC0
3FC0
C030
C030
C030
C030
C030
ENDCHAR
STARTCHAR 01E1
ENCODING 481
SWIDTH 565 0
DWIDTH 11 0
BBX 10 20 0 0
BITMAP
3FC0
3FC0
0000
0000
0600
0600
0000
3F00
FFC0
C0C0
00C0
00C0
1FC0
20C0
20C0
C0C0
C0C0
C1C0
3EC0
3EC0
ENDCHAR
STARTCHAR 01E2
ENCODING 482
SWIDTH 822 0
DWIDTH 16 0
BBX 15 21 0 0
BITMAP
07F8
07F8
0000
07FE
07FE
1B00
1B00
1B00
1B00
1B00
2300
23FE
23FE
2300
3F00
3F00
C300
C300
C300
C3FE
C3FE
ENDCHAR
STARTCHAR 01E3
ENCODING 483
SWIDTH 668 0
DWIDTH 13 0
BBX 12 16 0 0
BITMAP
3FC0
3FC0
0000
39C0
FFF0
C630
0630
0630
1FF0
2600
2600
C600
C600
C630
39C0
39C0
ENDCHAR
STARTCHAR 01E6
ENCODING 486
SWIDTH 771 0
DWIDTH 15 0
BBX 13 23 0 0
BITMAP
06C0
06C0
0100
0100
0000
1FC0
1FC0
2030
C008
C008
C000
C000
C000
C1F8
C1F8
C008
C008
C008
C008
C008
2030
1FC0
1FC0
ENDCHAR
STARTCHAR 01E7
ENCODING 487
SWIDTH 668 0
DWIDTH 13 0
BBX 12 21 0 -3
BITMAP
1900
1F00
0600
0000
0000
1F30
3FF0
20F0
C030
C030
C030
C030
C030
20F0
1F30
1F30
C030
C030
20C0
1F00
1F00
ENDCHAR
STARTCHAR 01E8
ENCODING 488
SWIDTH 668 0
DWIDTH 13 0
BBX 12 21 0 0
BITMAP
1900
0600
0600
C030
C030
C0C0
C100
C100
C600
DE00
D800
E000
E000
D800
C600
C600
C100
C100
C0C0
C030
C030
ENDCHAR
STARTCHAR 01E9
ENCODING 489
SWIDTH 617 0
DWIDTH 12 0
BBX 10 21 0 0
BITMAP
2600
1800
1800
C000
C000
C000
C000
C000
C0C0
C1C0
C100
C600
C600
F800
F800
D800
C600
C600
C100
C0C0
C0C0
ENDCHAR
STARTCHAR 01F0
ENCODING 496
SWIDTH 411 0
DWIDTH 8 0
BBX 8 21 0 -3
BITMAP
23
3F
1C
00
00
04
04
04
04
04
04
04
04
04
04
04
04
04
C4
38
38
ENDCHAR
STARTCHAR 01F1
ENCODING 497
SWIDTH 1182 0
DWIDTH 23 0
BBX 21 18 0 0
BITMAP
FC1FF8
FC1FF8
C30030
C0C030
C0C030
C0C0C0
C0C0C0
C0C0C0
C0C100
C0C100
C0C100
C0C000
C0C600
C0C600
C0C600
C31800
FC1FF8
FC1FF8
ENDCHAR
STARTCHAR 01F2
ENCODING 498
SWIDTH 1080 0
DWIDTH 21 0
BBX 20 18 0 0
BITMAP
FC0000
FC0000
C30000
C0C000
C0C000
C0DFF0
C0DFF0
C0C0C0
C0C0C0
C0C0C0
C0C100
C0C100
C0C100
C0C600
C0C600
C30600
FC1FF0
FC1FF0
ENDCHAR
STARTCHAR 01F3
ENCODING 499
SWIDTH 1080 0
DWIDTH 21 0
BBX 20 18 0 0
BITMAP
00C000
00C000
00C000
00C000
00C000
1CDFF0
3FDFF0
23C0C0
C0C0C0
C0C0C0
C0C100
C0C100
C0C100
C0C600
C0C600
23C600
1CDFF0
1CDFF0
ENDCHAR
STARTCHAR 01F4
ENCODING 500
SWIDTH 771 0
DWIDTH 15 0
BBX 13 23 0 0
BITMAP
0100
0100
0600
0600
0000
1FC0
1FC0
2030
C008
C008
C000
C000
C000
C1F8
C1F8
C008
C008
C008
C008
C008
2030
1FC0
1FC0
ENDCHAR
STARTCHAR 01F5
ENCODING 501
SWIDTH 668 0
DWIDTH 13 0
BBX 12 21 0 -3
BITMAP
0100
0700
0600
0000
0000
1F30
3FF0
20F0
C030
C030
C030
C030
C030
20F0
1F30
1F30
C030
C030
20C0
1F00
1F00
ENDCHAR
STARTCHAR 01F8
ENCODING 504
SWIDTH 720 0
DWIDTH 14 0
BBX 12 21 0 0
BITMAP
1800
0600
0600
C030
C030
E030
E030
E030
D830
D830
D830
C630
C630
C130
C130
C130
C0F0
C0F0
C0F0
C030
C030
ENDCHAR
STARTCHAR 01F9
ENCODING 505
SWIDTH 565 0
DWIDTH 11 0
BBX 10 18 0 0
BITMAP
1800
1800
0600
0600
0000
DF00
FFC0
E0C0
C0C0
C0C0
C0C0
C0C0
C0C0
C0C0
C0C0
C0C0
C0C0
C0C0
ENDCHAR
STARTCHAR 01FA
ENCODING 506
SWIDTH 668 0
DWIDTH 13 0
BBX 12 23 0 0
BITMAP
0100
0100
0600
1900
1900
0600
0600
1900
1900
1900
1900
1900
20C0
20C0
20C0
20C0
3FC0
3FC0
C030
C030
C030
C030
C030
ENDCHAR
STARTCHAR 01FB
ENCODING 507
SWIDTH 617 0
DWIDTH 12 0
BBX 10 21 0 0
BITMAP
0100
0600
0600
1900
1900
0600
0600
0000
3F00
FFC0
C0C0
00C0
00C0
1FC0
20C0
20C0
C0C0
C0C0
C1C0
3EC0
3EC0
ENDCHAR
STARTCHAR 01FC
ENCODING 508
SWIDTH 822 0
DWIDTH 16 0
BBX 15 23 0 0
BITMAP
0008
0008
0030
0030
0000
07FE
07FE
1B00
1B00
1B00
1B00
1B00
2300
23FE
23FE
2300
3F00
3F00
C300
C300
C300
C3FE
C3FE
ENDCHAR
STARTCHAR 01FD
ENCODING 509
SWIDTH 668 0
DWIDTH 13 0
BBX 12 18 0 0
BITMAP
0100
0100
0600
0600
0000
39C0
FFF0
C630
0630
0630
1FF0
2600
2600
C600
C600
C630
39C0
39C0
ENDCHAR
STARTCHAR 01FE
ENCODING 510
SWIDTH 822 0
DWIDTH 16 0
BBX 15 23 0 0
BITMAP
00C0
00C0
0100
0100
0000
07C0
07C0
1836
2008
2008
2038
20F8
20C8
2108
2108
2608
3808
3808
2008
2008
D830
07C0
07C0
ENDCHAR
STARTCHAR 01FF
ENCODING 511
SWIDTH 668 0
DWIDTH 13 0
BBX 12 18 0 0
BITMAP
0100
0100
0600
0600
0000
1F30
3FF0
20C0
C130
C130
C630
C630
C630
D830
D830
20C0
DF00
DF00
ENDCHAR
STARTCHAR 0200
ENCODING 512
SWIDTH 668 0
DWIDTH 13 0
BBX 12 23 0 0
BITMAP
2600
2600
1900
1900
0000
0600
0600
1900
1900
1900
1900
1900
20C0
20C0
20C0
20C0
3FC0
3FC0
C030
C030
C030
C030
C030
ENDCHAR
STARTCHAR 0201
ENCODING 513
SWIDTH 617 0
DWIDTH 12 0
BBX 10 18 0 0
BITMAP
2600
2600
1900
1900
0000
3F00
FFC0
C0C0
00C0
00C0
1FC0
20C0
20C0
C0C0
C0C0
C1C0
3EC0
3EC0
ENDCHAR
STARTCHAR 0202
ENCODING 514
SWIDTH 668 0
DWIDTH 13 0
BBX 12 21 0 0
BITMAP
0700
18C0
18C0
0600
0600
1900
1900
1900
1900
1900
20C0
20C0
20C0
20C0
3FC0
3FC0
C030
C030
C030
C030
C030
ENDCHAR
STARTCHAR 0203
ENCODING 515
SWIDTH 565 0
DWIDTH 11 0
BBX 10 18 0 0
BITMAP
1C00
1C00
2300
2300
0000
3F00
FFC0
C0C0
00C0
00C0
1FC0
20C0
20C0
C0C0
C0C0
C3C0
3CC0
3CC0
ENDCHAR
STARTCHAR 0204
ENCODING 516
SWIDTH 565 0
DWIDTH 11 0
BBX 10 23 0 0
BITMAP
2600
2600
1900
1900
0000
FFC0
FFC0
C000
C000
C000
C000
C000
C000
FFC0
FFC0
C000
C000
C000
C000
C000
C000
FFC0
FFC0
ENDCHAR
STARTCHAR 0205
ENCODING 517
SWIDTH 668 0
DWIDTH 13 0
BBX 12 18 0 0
BITMAP
2600
2600
1900
1900
0000
1F00
3FC0
20C0
C030
C030
FFF0
FFF0
C000
C030
C030
20C0
1F00
1F00
ENDCHAR
STARTCHAR 0206
ENCODING 518
SWIDTH 565 0
DWIDTH 11 0
BBX 10 23 0 0
BITMAP
1C00
1C00
2300
2300
0000
FFC0
FFC0
C000
C000
C000
C000
C000
C000
FFC0
FFC0
C000
C000
C000
C000
C000
C000
FFC0
FFC0
ENDCHAR
STARTCHAR 0207
ENCODING 519
SWIDTH 668 0
DWIDTH 13 0
BBX 12 18 0 0
BITMAP
0700
0700
18C0
18C0
0000
1F00
3FC0
20C0
C030
C030
FFF0
FFF0
C000
C030
C030
20C0
1F00
1F00
ENDCHAR
STARTCHAR 0208
ENCODING 520
SWIDTH 308 0
DWIDTH 6 0
BBX 7 23 -2 0
BITMAP
D8
D8
26
26
00
3E
3E
18
18
18
18
18
18
18
18
18
18
18
18
18
18
3E
3E
ENDCHAR
STARTCHAR 0209
ENCODING 521
SWIDTH 308 0
DWIDTH 6 0
BBX 7 18 -2 0
BITMAP
D8
D8
26
26
00
18
18
18
18
18
18
18
18
18
18
18
18
18
ENDCHAR
STARTCHAR 020A
ENCODING 522
SWIDTH 360 0
DWIDTH 7 0
BBX 7 23 0 0
BITMAP
38
38
C6
C6
00
F8
F8
20
20
20
20
20
20
20
20
20
20
20
20
20
20
F8
F8
ENDCHAR
STARTCHAR 020B
ENCODING 523
SWIDTH 360 0
DWIDTH 7 0
BBX 7 18 0 0
BITMAP
38
38
C6
C6
00
20
20
20
20
20
20
20
20
20
20
20
20
20
ENDCHAR
STARTCHAR 020C
ENCODING 524
SWIDTH 771 0
DWIDTH 15 0
BBX 13 23 0 0
BITMAP
1900
1900
06C0
06C0
0000
1FC0
1FC0
2030
C008
C008
C008
C008
C008
C008
C008
C008
C008
C008
C008
C008
2030
1FC0
1FC0
ENDCHAR
STARTCHAR 020D
ENCODING 525
SWIDTH 668 0
DWIDTH 13 0
BBX 12 18 0 0
BITMAP
2600
2600
1900
1900
0000
1F00
3FC0
20C0
C030
C030
C030
C030
C030
C030
C030
20C0
1F00
1F00
ENDCHAR
STARTCHAR 020E
ENCODING 526
SWIDTH 771 0
DWIDTH 15 0
BBX 13 23 0 0
BITMAP
0700
0700
18C0
18C0
0000
1FC0
1FC0
2030
C008
C008
C008
C008
C008
C008
C008
C008
C008
C008
C008
C008
2030
1FC0
1FC0
ENDCHAR
STARTCHAR 020F
ENCODING 527
SWIDTH 668 0
DWIDTH 13 0
BBX 12 18 0 0
BITMAP
0700
0700
18C0
18C0
0000
1F00
3FC0
20C0
C030
C030
C030
C030
C030
C030
C030
20C0
1F00
1F00
ENDCHAR
STARTCHAR 0210
ENCODING 528
SWIDTH 668 0
DWIDTH 13 0
BBX 12 23 0 0
BITMAP
2600
2600
1900
1900
0000
FF00
FF00
C0C0
C030
C030
C030
C030
C030
C0C0
C0C0
FF00
FF00
C600
C100
C100
C0C0
C030
C030
ENDCHAR
STARTCHAR 0211
ENCODING 529
SWIDTH 514 0
DWIDTH 10 0
BBX 8 18 0 0
BITMAP
D8
D8
26
26
00
DE
FF
E1
C0
C0
C0
C0
C0
C0
C0
C0
C0
C0
ENDCHAR
STARTCHAR 0212
ENCODING 530
SWIDTH 668 0
DWIDTH 13 0
BBX 12 23 0 0
BITMAP
1C00
1C00
2300
2300
0000
FF00
FF00
C0C0
C030
C030
C030
C030
C030
C0C0
C0C0
FF00
FF00
CC00
C300
C300
C0C0
C030
C030
ENDCHAR
STARTCHAR 0213
ENCODING 531
SWIDTH 514 0
DWIDTH 10 0
BBX 8 18 0 0
BITMAP
1C
1C
23
23
00
DC
FF
E3
C0
C0
C0
C0
C0
C0
C0
C0
C0
C0
ENDCHAR
STARTCHAR 0214
ENCODING 532
SWIDTH 771 0
DWIDTH 15 0
BBX 13 21 0 0
BITMAP
1900
06C0
06C0
C008
C008
C008
C008
C008
C008
C008
C008
C008
C008
C008
C008
C008
C008
C008
2030
1FC0
1FC0
ENDCHAR
STARTCHAR 0215
ENCODING 533
SWIDTH 668 0
DWIDTH 13 0
BBX 12 16 0 0
BITMAP
2600
1900
1900
C030
C030
C030
C030
C030
C030
C030
C030
C030
C030
20F0
1F30
1F30
ENDCHAR
STARTCHAR 0216
ENCODING 534
SWIDTH 771 0
DWIDTH 15 0
BBX 13 21 0 0
BITMAP
0700
18C0
18C0
C008
C008
C008
C008
C008
C008
C008
C008
C008
C008
C008
C008
C008
C008
C008
2030
1FC0
1FC0
ENDCHAR
STARTCHAR 0217
ENCODING 535
SWIDTH 668 0
DWIDTH 13 0
BBX 12 18 0 0
BITMAP
0700
0700
18C0
18C0
0000
C030
C030
C030
C030
C030
C030
C030
C030
C030
C030
20F0
1F30
1F30
ENDCHAR
STARTCHAR 0218
ENCODING 536
SWIDTH 668 0
DWIDTH 13 0
BBX 12 23 0 -5
BITMAP
1F00
3FC0
20C0
C030
C030
C000
2000
2000
1F00
00C0
00C0
0030
0030
C030
20C0
20C0
1F00
1F00
0000
0600
0600
1800
1800
ENDCHAR
STARTCHAR 0219
ENCODING 537
SWIDTH 565 0
DWIDTH 11 0
BBX 10 18 0 -5
BITMAP
3F00
FFC0
C0C0
C000
3800
3800
0700
0700
00C0
C0C0
C0C0
3F00
3F00
0000
0600
0600
1800
1800
ENDCHAR
STARTCHAR 021A
ENCODING 538
SWIDTH 668 0
DWIDTH 13 0
BBX 11 23 0 -5
BITMAP
FFE0
FFE0
0400
0400
0400
0400
0400
0400
0400
0400
0400
0400
0400
0400
0400
0400
0400
0400
0000
0400
0400
1800
1800
ENDCHAR
STARTCHAR 021B
ENCODING 539
SWIDTH 514 0
DWIDTH 10 0
BBX 9 22 0 -5
BITMAP
3000
3000
3000
3000
FF80
FF80
3000
3000
3000
3000
3000
3000
3000
3180
3180
0E00
0E00
0000
0600
0600
0800
0800
ENDCHAR
STARTCHAR 021E
ENCODING 542
SWIDTH 668 0
DWIDTH 13 0
BBX 12 21 0 0
BITMAP
18C0
0700
0700
C030
C030
C030
C030
C030
C030
C030
C030
FFF0
FFF0
C030
C030
C030
C030
C030
C030
C030
C030
ENDCHAR
STARTCHAR 021F
ENCODING 543
SWIDTH 565 0
DWIDTH 11 0
BBX 10 21 0 0
BITMAP
2300
1C00
1C00
C000
C000
C000
C000
C000
DF00
FFC0
E0C0
C0C0
C0C0
C0C0
C0C0
C0C0
C0C0
C0C0
C0C0
C0C0
C0C0
ENDCHAR
STARTCHAR 0220
ENCODING 544
SWIDTH 771 0
DWIDTH 15 0
BBX 13 21 0 -3
BITMAP
DFC0
FFF0
E030
C008
C008
C008
C008
C008
C008
C008
C008
C008
C008
C008
C008
C008
C008
C008
0008
0008
0008
ENDCHAR
STARTCHAR 0226
ENCODING 550
SWIDTH 668 0
DWIDTH 13 0
BBX 12 21 0 0
BITMAP
0600
0600
0000
0600
0600
1900
1900
1900
1900
1900
20C0
20C0
20C0
20C0
3FC0
3FC0
C030
C030
C030
C030
C030
ENDCHAR
STARTCHAR 0227
ENCODING 551
SWIDTH 565 0
DWIDTH 11 0
BBX 10 16 0 0
BITMAP
0600
0600
0000
3F00
FFC0
C0C0
00C0
00C0
1FC0
20C0
20C0
C0C0
C0C0
C1C0
3EC0
3EC0
ENDCHAR
STARTCHAR 022A
ENCODING 554
SWIDTH 771 0
DWIDTH 15 0
BBX 13 25 0 0
BITMAP
1FC0
1FC0
0000
0000
18C0
18C0
0000
1FC0
1FC0
2030
C008
C008
C008
C008
C008
C008
C008
C008
C008
C008
C008
C008
2030
1FC0
1FC0
ENDCHAR
STARTCHAR 022B
ENCODING 555
SWIDTH 668 0
DWIDTH 13 0
BBX 12 20 0 0
BITMAP
3FC0
3FC0
0000
0000
1B00
1B00
0000
1F00
3FC0
20C0
C030
C030
C030
C030
C030
C030
C030
20C0
1F00
1F00
ENDCHAR
STARTCHAR 022C
ENCODING 556
SWIDTH 668 0
DWIDTH 13 0
BBX 12 26 0 0
BITMAP
1FC0
1FC0
0000
1DC0
1DC0
21C0
21C0
0000
1FC0
1FC0
21C0
C000
C010
C010
C010
C010
C010
C010
C010
C010
C010
C010
C000
21C0
1FC0
1FC0
ENDCHAR
STARTCHAR 022D
ENCODING 557
SWIDTH 668 0
DWIDTH 13 0
BBX 12 21 0 0
BITMAP
1FC0
1FC0
0000
1C30
1C30
21C0
21C0
0000
1F00
3FC0
20C0
C030
C030
C030
C030
C030
C030
C030
20C0
1F00
1F00
ENDCHAR
STARTCHAR 022E
ENCODING 558
SWIDTH 720 0
DWIDTH 14 0
BBX 13 21 0 0
BITMAP
0300
0300
0000
1F80
1F80
2060
C008
C008
C008
C008
C008
C008
C008
C008
C008
C008
C008
C008
2060
1F80
1F80
ENDCHAR
STARTCHAR 022F
ENCODING 559
SWIDTH 668 0
DWIDTH 13 0
BBX 12 16 0 0
BITMAP
0600
0600
0000
1F00
3FC0
20C0
C030
C030
C030
C030
C030
C030
C030
20C0
1F00
1F00
ENDCHAR
STARTCHAR 0230
ENCODING 560
SWIDTH 720 0
DWIDTH 14 0
BBX 13 25 0 0
BITMAP
1FE0
1FE0
0000
0000
0300
0300
0000
1F80
1F80
2060
C008
C008
C008
C008
C008
C008
C008
C008
C008
C008
C008
C008
2060
1F80
1F80
ENDCHAR
STARTCHAR 0231
ENCODING 561
SWIDTH 668 0
DWIDTH 13 0
BBX 12 20 0 0
BITMAP
3FC0
3FC0
0000
0000
0600
0600
0000
1F00
3FC0
20C0
C030
C030
C030
C030
C030
C030
C030
20C0
1F00
1F00
ENDCHAR
STARTCHAR 0232
ENCODING 562
SWIDTH 668 0
DWIDTH 13 0
BBX 12 21 0 0
BITMAP
3FC0
3FC0
0000
C030
C030
C030
20C0
20C0
20C0
0000
1900
1900
1900
0600
0600
0600
0600
0600
0600
0600
0600
ENDCHAR
STARTCHAR 0233
ENCODING 563
SWIDTH 668 0
DWIDTH 13 0
BBX 12 20 0 -3
BITMAP
3FC0
3FC0
0000
0000
C030
C030
C030
20C0
20C0
20C0
1900
1900
1900
0000
0600
0600
0600
1800
E000
E000
ENDCHAR
STARTCHAR 0237
ENCODING 567
SWIDTH 411 0
DWIDTH 8 0
BBX 7 16 0 -3
BITMAP
06
06
06
06
06
06
06
06
06
06
06
06
06
C6
38
38
ENDCHAR
STARTCHAR 0238
ENCODING 568
SWIDTH 1028 0
DWIDTH 20 0
BBX 18 18 0 0
BITMAP
00C000
00C000
00C000
00C000
00C000
1CDC00
3FFF00
23E300
C0C0C0
C0C0C0
C0C0C0
C0C0C0
C0C0C0
C0C0C0
C0C0C0
23E300
1CDC00
1CDC00
ENDCHAR
STARTCHAR 0239
ENCODING 569
SWIDTH 1028 0
DWIDTH 20 0
BBX 18 16 0 -3
BITMAP
1CDC00
3FFF00
23E300
C0C0C0
C0C0C0
C0C0C0
C0C0C0
C0C0C0
C0C0C0
23E300
23E300
1CDC00
1CDC00
00C000
00C000
00C000
ENDCHAR
STARTCHAR 0245
ENCODING 581
SWIDTH 668 0
DWIDTH 13 0
BBX 12 18 0 0
BITMAP
0600
0600
0600
1900
1900
1900
1900
1900
20C0
20C0
20C0
20C0
20C0
C030
C030
C030
C030
C030
ENDCHAR
STARTCHAR 0250
ENCODING 592
SWIDTH 565 0
DWIDTH 11 0
BBX 10 13 0 0
BITMAP
DF00
DF00
E0C0
E0C0
C0C0
C300
FC00
FC00
C000
C000
C0C0
3F00
3F00
ENDCHAR
STARTCHAR 0253
ENCODING 595
SWIDTH 668 0
DWIDTH 13 0
BBX 12 18 0 0
BITMAP
3800
3800
C000
C000
C000
DF00
FFC0
E0C0
C030
C030
C030
C030
C030
C030
C030
E0C0
DF00
DF00
ENDCHAR
STARTCHAR 0254
ENCODING 596
SWIDTH 668 0
DWIDTH 13 0
BBX 12 13 0 0
BITMAP
1F00
3FC0
20C0
C030
C030
0030
0030
0030
C030
C030
20C0
1F00
1F00
ENDCHAR
STARTCHAR 0255
ENCODING 597
SWIDTH 565 0
DWIDTH 11 0
BBX 10 13 0 0
BITMAP
1F00
3FC0
20C0
C000
C000
C000
C000
C000
DF00
DF00
20C0
DF00
DF00
ENDCHAR
STARTCHAR 0256
ENCODING 598
SWIDTH 668 0
DWIDTH 13 0
BBX 14 21 0 -3
BITMAP
0030
0030
0030
0030
0030
1F30
3FF0
20F0
C030
C030
C030
C030
C030
C030
20F0
20F0
1F30
1F30
0030
000C
000C
ENDCHAR
STARTCHAR 0257
ENCODING 599
SWIDTH 720 0
DWIDTH 14 0
BBX 14 18 0 0
BITMAP
000C
000C
0030
0030
0030
1F30
3FF0
20F0
C030
C030
C030
C030
C030
C030
C030
20F0
1F30
1F30
ENDCHAR
STARTCHAR 0258
ENCODING 600
SWIDTH 668 0
DWIDTH 13 0
BBX 12 13 0 0
BITMAP
1F00
3FC0
20C0
C030
C030
FFF0
FFF0
0030
C030
C030
20C0
1F00
1F00
ENDCHAR
STARTCHAR 0259
ENCODING 601
SWIDTH 668 0
DWIDTH 13 0
BBX 12 13 0 0
BITMAP
1F00
3FC0
20C0
C030
C030
0030
FFF0
FFF0
C030
C030
20C0
1F00
1F00
ENDCHAR
STARTCHAR 025B
ENCODING 603
SWIDTH 565 0
DWIDTH 11 0
BBX 10 13 0 0
BITMAP
3F00
3F00
C0C0
C0C0
C000
3E00
C000
C000
C000
C000
C0C0
3F00
3F00
ENDCHAR
STARTCHAR 025C
ENCODING 604
SWIDTH 565 0
DWIDTH 11 0
BBX 10 13 0 0
BITMAP
3F00
3F00
C0C0
C0C0
00C0
1F00
00C0
00C0
00C0
00C0
C0C0
3F00
3F00
ENDCHAR
STARTCHAR 025E
ENCODING 606
SWIDTH 565 0
DWIDTH 11 0
BBX 10 13 0 0
BITMAP
3F00
3F00
C0C0
C0C0
C0C0
DF00
C0C0
C0C0
C0C0
C0C0
C0C0
3F00
3F00
ENDCHAR
STARTCHAR 025F
ENCODING 607
SWIDTH 514 0
DWIDTH 10 0
BBX 8 16 0 -3
BITMAP
18
18
18
18
18
18
18
18
18
18
18
FF
FF
18
E0
E0
ENDCHAR
STARTCHAR 0260
ENCODING 608
SWIDTH 720 0
DWIDTH 14 0
BBX 14 20 0 -3
BITMAP
000C
000C
0030
0030
1F30
3FF0
20F0
C030
C030
C030
C030
C030
20F0
1F30
1F30
C030
C030
20C0
1F00
1F00
ENDCHAR
STARTCHAR 0261
ENCODING 609
SWIDTH 668 0
DWIDTH 13 0
BBX 12 16 0 -3
BITMAP
1F30
3FF0
20F0
C030
C030
C030
C030
C030
20F0
1F30
1F30
C030
C030
20C0
1F00
1F00
ENDCHAR
STARTCHAR 0262
ENCODING 610
SWIDTH 668 0
DWIDTH 13 0
BBX 12 13 0 0
BITMAP
1F00
3FC0
20C0
C030
C030
C000
C7F0
C7F0
C030
C030
20C0
1F00
1F00
ENDCHAR
STARTCHAR 0265
ENCODING 613
SWIDTH 565 0
DWIDTH 11 0
BBX 10 16 0 -3
BITMAP
C0C0
C0C0
C0C0
C0C0
C0C0
C0C0
C0C0
C0C0
C0C0
C1C0
C1C0
3EC0
3EC0
00C0
00C0
00C0
ENDCHAR
STARTCHAR 0266
ENCODING 614
SWIDTH 565 0
DWIDTH 11 0
BBX 10 18 0 0
BITMAP
3800
3800
C000
C000
C000
DF00
FFC0
E0C0
C0C0
C0C0
C0C0
C0C0
C0C0
C0C0
C0C0
C0C0
C0C0
C0C0
ENDCHAR
STARTCHAR 0267
ENCODING 615
SWIDTH 565 0
DWIDTH 11 0
BBX 10 21 0 -3
BITMAP
3800
3800
C000
C000
C000
DF00
FFC0
E0C0
C0C0
C0C0
C0C0
C0C0
C0C0
C0C0
C0C0
C0C0
C0C0
C0C0
00C0
0700
0700
ENDCHAR
STARTCHAR 0268
ENCODING 616
SWIDTH 360 0
DWIDTH 7 0
BBX 5 16 0 0
BITMAP
60
60
00
60
60
60
60
60
F8
F8
60
60
60
60
60
60
ENDCHAR
STARTCHAR 0269
ENCODING 617
SWIDTH 360 0
DWIDTH 7 0
BBX 5 16 2 -3
BITMAP
C0
C0
C0
C0
C0
C0
C0
C0
C0
C0
C0
C0
C0
C0
38
38
ENDCHAR
STARTCHAR 026A
ENCODING 618
SWIDTH 360 0
DWIDTH 7 0
BBX 5 13 0 0
BITMAP
F8
F8
60
60
60
60
60
60
60
60
60
F8
F8
ENDCHAR
STARTCHAR 026B
ENCODING 619
SWIDTH 514 0
DWIDTH 10 0
BBX 8 18 0 0
BITMAP
18
18
18
18
18
18
3B
3B
DC
DC
18
18
18
18
18
18
18
18
ENDCHAR
STARTCHAR 026C
ENCODING 620
SWIDTH 514 0
DWIDTH 10 0
BBX 8 18 0 0
BITMAP
18
18
18
18
18
18
38
38
D8
D8
3F
3F
18
18
18
18
18
18
ENDCHAR
STARTCHAR 026D
ENCODING 621
SWIDTH 360 0
DWIDTH 7 0
BBX 5 21 2 -3
BITMAP
C0
C0
C0
C0
C0
C0
C0
C0
C0
C0
C0
C0
C0
C0
C0
C0
C0
C0
C0
38
38
ENDCHAR
STARTCHAR 026F
ENCODING 623
SWIDTH 822 0
DWIDTH 16 0
BBX 14 13 0 0
BITMAP
C304
C304
C304
C304
C304
C304
C304
C304
C304
C304
C71C
38E4
38E4
ENDCHAR
STARTCHAR 0270
ENCODING 624
SWIDTH 822 0
DWIDTH 16 0
BBX 14 16 0 -3
BITMAP
C304
C304
C304
C304
C304
C304
C304
C304
C304
C71C
C71C
38E4
38E4
0004
0004
0004
ENDCHAR
STARTCHAR 0271
ENCODING 625
SWIDTH 822 0
DWIDTH 16 0
BBX 15 16 0 -3
BITMAP
DC38
FFFE
E3C6
C306
C306
C306
C306
C306
C306
C306
C306
C306
C306
0006
0038
0038
ENDCHAR
STARTCHAR 0272
ENCODING 626
SWIDTH 617 0
DWIDTH 12 0
BBX 13 16 -3 -3
BITMAP
1BE0
1FF8
1C18
1818
1818
1818
1818
1818
1818
1818
1818
1818
1818
1800
E000
E000
ENDCHAR
STARTCHAR 0273
ENCODING 627
SWIDTH 617 0
DWIDTH 12 0
BBX 13 16 0 -3
BITMAP
DF00
FFC0
E0C0
C0C0
C0C0
C0C0
C0C0
C0C0
C0C0
C0C0
C0C0
C0C0
C0C0
00C0
0038
0038
ENDCHAR
STARTCHAR 0274
ENCODING 628
SWIDTH 720 0
DWIDTH 14 0
BBX 12 13 0 0
BITMAP
C030
E030
E030
D830
D830
C630
C630
C630
C130
C130
C0F0
C0F0
C030
ENDCHAR
STARTCHAR 0275
ENCODING 629
SWIDTH 668 0
DWIDTH 13 0
BBX 12 13 0 0
BITMAP
1F00
3FC0
20C0
C030
C030
FFF0
FFF0
C030
C030
C030
20C0
1F00
1F00
ENDCHAR
STARTCHAR 0276
ENCODING 630
SWIDTH 668 0
DWIDTH 13 0
BBX 12 13 0 0
BITMAP
39C0
39C0
C630
C630
C630
C7F0
C7F0
C600
C600
C600
C630
39C0
39C0
ENDCHAR
STARTCHAR 0277
ENCODING 631
SWIDTH 822 0
DWIDTH 16 0
BBX 15 13 0 0
BITMAP
1FE0
3FF8
2018
C006
C306
C306
C306
C306
C306
C306
2318
1CE0
1CE0
ENDCHAR
STARTCHAR 0279
ENCODING 633
SWIDTH 514 0
DWIDTH 10 0
BBX 8 13 0 0
BITMAP
03
03
03
03
03
03
03
03
03
03
C7
3B
3B
ENDCHAR
STARTCHAR 027A
ENCODING 634
SWIDTH 514 0
DWIDTH 10 0
BBX 8 18 0 0
BITMAP
03
03
03
03
03
03
03
03
03
03
03
03
03
03
03
C7
3B
3B
ENDCHAR
STARTCHAR 027B
ENCODING 635
SWIDTH 514 0
DWIDTH 10 0
BBX 11 16 0 -3
BITMAP
0300
0300
0300
0300
0300
0300
0300
0300
0300
C700
C700
3B00
3B00
0300
00E0
00E0
ENDCHAR
STARTCHAR 027C
ENCODING 636
SWIDTH 514 0
DWIDTH 10 0
BBX 8 16 0 -3
BITMAP
DC
FF
E3
C0
C0
C0
C0
C0
C0
C0
C0
C0
C0
C0
C0
C0
ENDCHAR
STARTCHAR 027D
ENCODING 637
SWIDTH 514 0
DWIDTH 10 0
BBX 8 16 0 -3
BITMAP
DC
FF
E3
C0
C0
C0
C0
C0
C0
C0
C0
C0
C0
C0
38
38
ENDCHAR
STARTCHAR 027E
ENCODING 638
SWIDTH 462 0
DWIDTH 9 0
BBX 7 13 0 0
BITMAP
3E
3E
C0
C0
C0
C0
C0
C0
C0
C0
C0
C0
C0
ENDCHAR
STARTCHAR 027F
ENCODING 639
SWIDTH 411 0
DWIDTH 8 0
BBX 7 16 0 -3
BITMAP
F8
F8
06
06
06
06
06
06
06
06
06
06
06
06
06
06
ENDCHAR
STARTCHAR 0280
ENCODING 640
SWIDTH 565 0
DWIDTH 11 0
BBX 10 13 0 0
BITMAP
FF00
FF00
C0C0
C0C0
C0C0
C0C0
FF00
FF00
C300
C300
C0C0
C0C0
C0C0
ENDCHAR
STARTCHAR 0281
ENCODING 641
SWIDTH 565 0
DWIDTH 11 0
BBX 10 13 0 0
BITMAP
C0C0
C0C0
C0C0
20C0
20C0
3FC0
C0C0
C0C0
C0C0
C0C0
C0C0
3FC0
3FC0
ENDCHAR
STARTCHAR 0282
ENCODING 642
SWIDTH 565 0
DWIDTH 11 0
BBX 10 16 0 -3
BITMAP
3F00
FFC0
C0C0
C000
3800
3800
0700
0700
00C0
C0C0
C0C0
FF00
FF00
C000
3800
3800
ENDCHAR
STARTCHAR 0283
ENCODING 643
SWIDTH 514 0
DWIDTH 10 0
BBX 8 21 0 -3
BITMAP
07
07
18
18
18
18
18
18
18
18
18
18
18
18
18
18
18
18
18
E0
E0
ENDCHAR
STARTCHAR 0284
ENCODING 644
SWIDTH 514 0
DWIDTH 10 0
BBX 8 21 0 -3
BITMAP
07
07
18
18
18
18
18
18
18
FF
FF
18
18
18
18
18
18
18
18
E0
E0
ENDCHAR
STARTCHAR 0285
ENCODING 645
SWIDTH 514 0
DWIDTH 10 0
BBX 8 16 0 -3
BITMAP
E0
E0
18
18
18
18
18
18
18
18
18
18
18
18
07
07
ENDCHAR
STARTCHAR 0286
ENCODING 646
SWIDTH 617 0
DWIDTH 12 0
BBX 10 21 0 -3
BITMAP
01C0
01C0
0600
0600
0600
0600
0600
0600
0600
0600
0600
0600
0600
0600
0600
0600
3FC0
3FC0
C600
3800
3800
ENDCHAR
STARTCHAR 0287
ENCODING 647
SWIDTH 514 0
DWIDTH 10 0
BBX 8 16 0 -3
BITMAP
38
FE
C6
06
06
06
06
06
06
06
06
FF
FF
06
06
06
ENDCHAR
STARTCHAR 0288
ENCODING 648
SWIDTH 514 0
DWIDTH 10 0
BBX 9 20 0 -3
BITMAP
3000
3000
3000
3000
FF80
FF80
3000
3000
3000
3000
3000
3000
3000
3000
3000
3000
3000
3180
0E00
0E00
ENDCHAR
STARTCHAR 028C
ENCODING 652
SWIDTH 668 0
DWIDTH 13 0
BBX 12 13 0 0
BITMAP
0600
0600
0600
1900
1900
1900
0000
20C0
20C0
20C0
C030
C030
C030
ENDCHAR
STARTCHAR 028D
ENCODING 653
SWIDTH 822 0
DWIDTH 16 0
BBX 15 13 0 0
BITMAP
1830
1830
1830
26C8
26C8
26C8
26C8
26C8
C106
C106
C106
C106
C106
ENDCHAR
STARTCHAR 028E
ENCODING 654
SWIDTH 668 0
DWIDTH 13 0
BBX 12 18 0 0
BITMAP
00F0
00F0
0100
0100
0100
0600
0600
0600
1900
1900
1900
0000
20C0
20C0
20C0
C030
C030
C030
ENDCHAR
STARTCHAR 028F
ENCODING 655
SWIDTH 668 0
DWIDTH 13 0
BBX 12 13 0 0
BITMAP
C030
C030
20C0
20C0
20C0
1900
0600
0600
0600
0600
0600
0600
0600
ENDCHAR
STARTCHAR 0299
ENCODING 665
SWIDTH 565 0
DWIDTH 11 0
BBX 10 13 0 0
BITMAP
FF00
FF00
C0C0
C0C0
C0C0
FF00
C0C0
C0C0
C0C0
C0C0
C0C0
FF00
FF00
ENDCHAR
STARTCHAR 029A
ENCODING 666
SWIDTH 565 0
DWIDTH 11 0
BBX 10 13 0 0
BITMAP
3F00
3F00
C0C0
C0C0
C0C0
3EC0
C0C0
C0C0
C0C0
C0C0
C0C0
3F00
3F00
ENDCHAR
STARTCHAR 029C
ENCODING 668
SWIDTH 565 0
DWIDTH 11 0
BBX 10 13 0 0
BITMAP
C0C0
C0C0
C0C0
C0C0
C0C0
FFC0
FFC0
C0C0
C0C0
C0C0
C0C0
C0C0
C0C0
ENDCHAR
STARTCHAR 029D
ENCODING 669
SWIDTH 411 0
DWIDTH 8 0
BBX 8 20 0 -3
BITMAP
06
06
00
00
06
06
06
06
06
06
06
06
06
06
06
3F
3F
C6
38
38
ENDCHAR
STARTCHAR 029E
ENCODING 670
SWIDTH 565 0
DWIDTH 11 0
BBX 10 16 0 -3
BITMAP
C0C0
E0C0
20C0
18C0
18C0
06C0
07C0
07C0
18C0
20C0
20C0
C0C0
C0C0
00C0
00C0
00C0
ENDCHAR
STARTCHAR 029F
ENCODING 671
SWIDTH 514 0
DWIDTH 10 0
BBX 8 13 0 0
BITMAP
C0
C0
C0
C0
C0
C0
C0
C0
C0
C0
C0
FF
FF
ENDCHAR
STARTCHAR 02AE
ENCODING 686
SWIDTH 771 0
DWIDTH 15 0
BBX 13 16 0 -3
BITMAP
E018
E018
1818
1818
1818
1818
1818
1818
1818
1838
1838
07D8
07D8
0018
0018
0018
ENDCHAR
STARTCHAR 02AF
ENCODING 687
SWIDTH 771 0
DWIDTH 15 0
BBX 16 16 0 -3
BITMAP
E018
E018
1818
1818
1818
1818
1818
1818
1818
1838
1838
07D8
07D8
0018
0007
0007
ENDCHAR
STARTCHAR 037E
ENCODING 894
SWIDTH 308 0
DWIDTH 6 0
BBX 3 10 0 3
BITMAP
20
20
20
00
00
00
20
20
C0
C0
ENDCHAR
STARTCHAR 037F
ENCODING 895
SWIDTH 565 0
DWIDTH 11 0
BBX 10 18 0 0
BITMAP
00C0
00C0
00C0
00C0
00C0
00C0
00C0
00C0
00C0
00C0
00C0
00C0
00C0
C0C0
C0C0
2300
1C00
1C00
ENDCHAR
STARTCHAR 0384
ENCODING 900
SWIDTH 257 0
DWIDTH 5 0
BBX 3 3 0 15
BITMAP
20
C0
C0
ENDCHAR
STARTCHAR 0385
ENCODING 901
SWIDTH 565 0
DWIDTH 11 0
BBX 10 3 0 15
BITMAP
0600
D8C0
D8C0
ENDCHAR
STARTCHAR 0386
ENCODING 902
SWIDTH 771 0
DWIDTH 15 0
BBX 13 18 0 0
BITMAP
2100
2100
C6C0
C6C0
06C0
06C0
06C0
1830
1830
1830
1830
1FF0
1FF0
2008
2008
2008
2008
2008
ENDCHAR
STARTCHAR 0387
ENCODING 903
SWIDTH 360 0
DWIDTH 7 0
BBX 2 2 2 8
BITMAP
C0
C0
ENDCHAR
STARTCHAR 0388
ENCODING 904
SWIDTH 822 0
DWIDTH 16 0
BBX 15 18 0 0
BITMAP
27FE
27FE
C600
C600
0600
0600
0600
0600
07FE
07FE
0600
0600
0600
0600
0600
0600
07FE
07FE
ENDCHAR
STARTCHAR 0389
ENCODING 905
SWIDTH 925 0
DWIDTH 18 0
BBX 16 18 0 0
BITMAP
2603
2603
C603
C603
0603
0603
0603
0603
07FF
07FF
0603
0603
0603
0603
0603
0603
0603
0603
ENDCHAR
STARTCHAR 038A
ENCODING 906
SWIDTH 617 0
DWIDTH 12 0
BBX 10 18 0 0
BITMAP
27C0
27C0
C300
C300
0300
0300
0300
0300
0300
0300
0300
0300
0300
0300
0300
0300
07C0
07C0
ENDCHAR
STARTCHAR 038C
ENCODING 908
SWIDTH 925 0
DWIDTH 18 0
BBX 16 18 0 0
BITMAP
21F8
21F8
C606
1801
1801
1801
1801
1801
1801
1801
1801
1801
1801
1801
1801
0606
01F8
01F8
ENDCHAR
STARTCHAR 038E
ENCODING 910
SWIDTH 925 0
DWIDTH 18 0
BBX 16 18 0 0
BITMAP
2601
2601
C601
0106
0106
0106
0000
00C8
00C8
00C8
0030
0030
0030
0030
0030
0030
0030
0030
ENDCHAR
STARTCHAR 038F
ENCODING 911
SWIDTH 925 0
DWIDTH 18 0
BBX 16 18 0 0
BITMAP
21F8
21F8
C606
1801
1801
1801
1801
1801
1801
1801
1801
0606
0606
0118
0118
0118
1F1F
1F1F
ENDCHAR
STARTCHAR 0390
ENCODING 912
SWIDTH 565 0
DWIDTH 11 0
BBX 10 18 0 0
BITMAP
0600
0600
D8C0
D8C0
0000
1800
1800
1800
1800
1800
1800
1800
1800
1800
1800
1800
0700
0700
ENDCHAR
STARTCHAR 0391
ENCODING 913
SWIDTH 668 0
DWIDTH 13 0
BBX 12 18 0 0
BITMAP
0600
0600
1900
1900
1900
1900
1900
20C0
20C0
20C0
20C0
3FC0
3FC0
C030
C030
C030
C030
C030
ENDCHAR
STARTCHAR 0392
ENCODING 914
SWIDTH 668 0
DWIDTH 13 0
BBX 12 18 0 0
BITMAP
FF00
FF00
C0C0
C030
C030
C030
C0C0
C0C0
FF00
FF00
C0C0
C0C0
C030
C030
C030
C0C0
FF00
FF00
ENDCHAR
STARTCHAR 0393
ENCODING 915
SWIDTH 565 0
DWIDTH 11 0
BBX 10 18 0 0
BITMAP
FFC0
FFC0
C000
C000
C000
C000
C000
C000
C000
C000
C000
C000
C000
C000
C000
C000
C000
C000
ENDCHAR
STARTCHAR 0394
ENCODING 916
SWIDTH 668 0
DWIDTH 13 0
BBX 12 18 0 0
BITMAP
0600
0600
1900
1900
1900
1900
20C0
20C0
20C0
20C0
20C0
20C0
20C0
C030
C030
C030
FFF0
FFF0
ENDCHAR
STARTCHAR 0395
ENCODING 917
SWIDTH 565 0
DWIDTH 11 0
BBX 10 18 0 0
BITMAP
FFC0
FFC0
C000
C000
C000
C000
C000
C000
FFC0
FFC0
C000
C000
C000
C000
C000
C000
FFC0
FFC0
ENDCHAR
STARTCHAR 0396
ENCODING 918
SWIDTH 565 0
DWIDTH 11 0
BBX 10 18 0 0
BITMAP
FFC0
FFC0
0100
0100
0100
0600
0600
0600
1800
1800
1800
0000
2000
2000
2000
C000
FFC0
FFC0
ENDCHAR
STARTCHAR 0397
ENCODING 919
SWIDTH 668 0
DWIDTH 13 0
BBX 12 18 0 0
BITMAP
C030
C030
C030
C030
C030
C030
C030
C030
FFF0
FFF0
C030
C030
C030
C030
C030
C030
C030
C030
ENDCHAR
STARTCHAR 0398
ENCODING 920
SWIDTH 771 0
DWIDTH 15 0
BBX 13 18 0 0
BITMAP
1FC0
1FC0
2030
C008
C008
C008
C008
C008
DFC8
DFC8
C008
C008
C008
C008
C008
2030
1FC0
1FC0
ENDCHAR
STARTCHAR 0399
ENCODING 921
SWIDTH 360 0
DWIDTH 7 0
BBX 5 18 0 0
BITMAP
F8
F8
60
60
60
60
60
60
60
60
60
60
60
60
60
60
F8
F8
ENDCHAR
STARTCHAR 039A
ENCODING 922
SWIDTH 668 0
DWIDTH 13 0
BBX 12 18 0 0
BITMAP
C030
C030
C0C0
C100
C100
C600
DE00
D800
E000
E000
D800
C600
C600
C100
C100
C0C0
C030
C030
ENDCHAR
STARTCHAR 039B
ENCODING 923
SWIDTH 668 0
DWIDTH 13 0
BBX 12 18 0 0
BITMAP
0600
0600
1900
1900
1900
1900
20C0
20C0
20C0
20C0
20C0
20C0
20C0
C030
C030
C030
C030
C030
ENDCHAR
STARTCHAR 039C
ENCODING 924
SWIDTH 822 0
DWIDTH 16 0
BBX 15 18 0 0
BITMAP
C006
C006
E00E
E00E
E00E
D836
D836
D836
D836
D836
C6C6
C6C6
C6C6
C6C6
C6C6
C106
C106
C106
ENDCHAR
STARTCHAR 039D
ENCODING 925
SWIDTH 720 0
DWIDTH 14 0
BBX 12 18 0 0
BITMAP
C030
C030
E030
E030
E030
D830
D830
D830
C630
C630
C130
C130
C130
C0F0
C0F0
C0F0
C030
C030
ENDCHAR
STARTCHAR 039E
ENCODING 926
SWIDTH 668 0
DWIDTH 13 0
BBX 12 18 0 0
BITMAP
FFF0
FFF0
0000
0000
0000
0000
0000
0000
7FC0
7FC0
0000
0000
0000
0000
0000
0000
FFF0
FFF0
ENDCHAR
STARTCHAR 039F
ENCODING 927
SWIDTH 771 0
DWIDTH 15 0
BBX 13 18 0 0
BITMAP
1FC0
1FC0
2030
C008
C008
C008
C008
C008
C008
C008
C008
C008
C008
C008
C008
2030
1FC0
1FC0
ENDCHAR
STARTCHAR 03A0
ENCODING 928
SWIDTH 668 0
DWIDTH 13 0
BBX 12 18 0 0
BITMAP
FFF0
FFF0
C030
C030
C030
C030
C030
C030
C030
C030
C030
C030
C030
C030
C030
C030
C030
C030
ENDCHAR
STARTCHAR 03A1
ENCODING 929
SWIDTH 668 0
DWIDTH 13 0
BBX 12 18 0 0
BITMAP
FF00
FF00
C0C0
C030
C030
C030
C030
C030
C0C0
C0C0
FF00
FF00
C000
C000
C000
C000
C000
C000
ENDCHAR
STARTCHAR 03A3
ENCODING 931
SWIDTH 668 0
DWIDTH 13 0
BBX 12 18 0 0
BITMAP
FFF0
FFF0
C000
2000
2000
1800
1E00
0600
0100
0100
0600
1800
1800
2000
2000
C000
FFF0
FFF0
ENDCHAR
STARTCHAR 03A4
ENCODING 932
SWIDTH 668 0
DWIDTH 13 0
BBX 12 18 0 0
BITMAP
FFF0
FFF0
0600
0600
0600
0600
0600
0600
0600
0600
0600
0600
0600
0600
0600
0600
0600
0600
ENDCHAR
STARTCHAR 03A5
ENCODING 933
SWIDTH 668 0
DWIDTH 13 0
BBX 12 18 0 0
BITMAP
C030
C030
C030
20C0
20C0
20C0
0000
1900
1900
1900
0600
0600
0600
0600
0600
0600
0600
0600
ENDCHAR
STARTCHAR 03A6
ENCODING 934
SWIDTH 822 0
DWIDTH 16 0
BBX 15 18 0 0
BITMAP
0300
0300
1FE0
2318
2318
C306
C306
C306
C306
C306
C306
C306
C306
2318
2318
1FE0
1FE0
0300
ENDCHAR
STARTCHAR 03A7
ENCODING 935
SWIDTH 668 0
DWIDTH 13 0
BBX 12 18 0 0
BITMAP
C030
C030
20C0
20C0
20C0
1900
1900
1900
0600
0600
1900
1900
1900
20C0
20C0
20C0
C030
C030
ENDCHAR
STARTCHAR 03A8
ENCODING 936
SWIDTH 668 0
DWIDTH 13 0
BBX 12 18 0 0
BITMAP
C630
C630
C630
C630
C630
C630
C630
C630
C630
C630
3FC0
3FC0
0600
0600
0600
0600
0600
0600
ENDCHAR
STARTCHAR 03A9
ENCODING 937
SWIDTH 771 0
DWIDTH 15 0
BBX 13 18 0 0
BITMAP
1FC0
1FC0
2030
C008
C008
C008
C008
C008
C008
C008
C008
2030
2030
18C0
18C0
18C0
F8F8
F8F8
ENDCHAR
STARTCHAR 03AA
ENCODING 938
SWIDTH 360 0
DWIDTH 7 0
BBX 5 21 0 0
BITMAP
D8
D8
00
F8
F8
20
20
20
20
20
20
20
20
20
20
20
20
20
20
F8
F8
ENDCHAR
STARTCHAR 03AB
ENCODING 939
SWIDTH 668 0
DWIDTH 13 0
BBX 12 21 0 0
BITMAP
1900
1900
0000
C030
C030
C030
20C0
20C0
20C0
0000
1900
1900
1900
0600
0600
0600
0600
0600
0600
0600
0600
ENDCHAR
STARTCHAR 03AC
ENCODING 940
SWIDTH 771 0
DWIDTH 15 0
BBX 13 18 0 0
BITMAP
0100
0100
0600
0600
0000
1F08
3FC8
20C8
C030
C030
C030
C030
C030
C030
C030
20F0
1F08
1F08
ENDCHAR
STARTCHAR 03AD
ENCODING 941
SWIDTH 565 0
DWIDTH 11 0
BBX 10 18 0 0
BITMAP
0600
0600
1800
1800
0000
3F00
3F00
C0C0
C0C0
C000
3E00
C000
C000
C000
C000
C0C0
3F00
3F00
ENDCHAR
STARTCHAR 03AE
ENCODING 942
SWIDTH 565 0
DWIDTH 11 0
BBX 10 21 0 -3
BITMAP
0600
1E00
1800
0000
0000
DF00
FFC0
E0C0
C0C0
C0C0
C0C0
C0C0
C0C0
C0C0
C0C0
C0C0
C0C0
C0C0
00C0
00C0
00C0
ENDCHAR
STARTCHAR 03AF
ENCODING 943
SWIDTH 308 0
DWIDTH 6 0
BBX 5 18 0 0
BITMAP
20
20
C0
C0
00
C0
C0
C0
C0
C0
C0
C0
C0
C0
C0
C0
38
38
ENDCHAR
STARTCHAR 03B0
ENCODING 944
SWIDTH 771 0
DWIDTH 15 0
BBX 13 18 0 0
BITMAP
00C0
00C0
1908
1908
0000
E008
E008
1808
1808
1808
1808
1808
1808
1808
1808
0630
01C0
01C0
ENDCHAR
STARTCHAR 03B1
ENCODING 945
SWIDTH 771 0
DWIDTH 15 0
BBX 13 13 0 0
BITMAP
1F08
3FC8
20C8
C030
C030
C030
C030
C030
C030
C030
20F0
1F08
1F08
ENDCHAR
STARTCHAR 03B2
ENCODING 946
SWIDTH 668 0
DWIDTH 13 0
BBX 12 21 0 -3
BITMAP
1F00
3FC0
20C0
C030
C030
C030
C0C0
C0C0
DF00
C0C0
C0C0
C030
C030
C030
C0C0
C0C0
DF00
DF00
C000
C000
C000
ENDCHAR
STARTCHAR 03B3
ENCODING 947
SWIDTH 668 0
DWIDTH 13 0
BBX 12 16 0 -3
BITMAP
C030
C030
C030
20C0
20C0
20C0
1900
1900
1900
0000
0600
0600
0600
0600
0600
0600
ENDCHAR
STARTCHAR 03B4
ENCODING 948
SWIDTH 668 0
DWIDTH 13 0
BBX 12 18 0 0
BITMAP
1F00
1F00
20C0
20C0
2000
1F00
3FC0
20C0
C030
C030
C030
C030
C030
C030
C030
20C0
1F00
1F00
ENDCHAR
STARTCHAR 03B5
ENCODING 949
SWIDTH 565 0
DWIDTH 11 0
BBX 10 13 0 0
BITMAP
3F00
3F00
C0C0
C0C0
C000
3E00
C000
C000
C000
C000
C0C0
3F00
3F00
ENDCHAR
STARTCHAR 03B6
ENCODING 950
SWIDTH 617 0
DWIDTH 12 0
BBX 10 16 0 -3
BITMAP
FF00
FF00
0100
0600
1800
1800
2000
2000
C000
C000
C000
3F00
3F00
00C0
0100
0100
ENDCHAR
STARTCHAR 03B7
ENCODING 951
SWIDTH 565 0
DWIDTH 11 0
BBX 10 16 0 -3
BITMAP
DF00
FFC0
E0C0
C0C0
C0C0
C0C0
C0C0
C0C0
C0C0
C0C0
C0C0
C0C0
C0C0
00C0
00C0
00C0
ENDCHAR
STARTCHAR 03B8
ENCODING 952
SWIDTH 668 0
DWIDTH 13 0
BBX 12 18 0 0
BITMAP
1F00
1F00
20C0
C030
C030
C030
C030
C030
FFF0
FFF0
C030
C030
C030
C030
C030
20C0
1F00
1F00
ENDCHAR
STARTCHAR 03B9
ENCODING 953
SWIDTH 360 0
DWIDTH 7 0
BBX 5 13 0 0
BITMAP
C0
C0
C0
C0
C0
C0
C0
C0
C0
C0
C0
38
38
ENDCHAR
STARTCHAR 03BA
ENCODING 954
SWIDTH 565 0
DWIDTH 11 0
BBX 10 13 0 0
BITMAP
C0C0
C1C0
C100
C600
C600
F800
F800
D800
C600
C600
C100
C0C0
C0C0
ENDCHAR
STARTCHAR 03BB
ENCODING 955
SWIDTH 771 0
DWIDTH 15 0
BBX 13 18 0 0
BITMAP
3800
3800
0600
0600
0600
0600
0600
1900
1900
1900
1900
20C0
20C0
20C0
00C0
C0C0
C038
C038
ENDCHAR
STARTCHAR 03BC
ENCODING 956
SWIDTH 565 0
DWIDTH 11 0
BBX 10 16 0 -3
BITMAP
C0C0
C0C0
C0C0
C0C0
C0C0
C0C0
C0C0
C0C0
C0C0
E3C0
E3C0
DCC0
DCC0
C000
C000
C000
ENDCHAR
STARTCHAR 03BD
ENCODING 957
SWIDTH 771 0
DWIDTH 15 0
BBX 13 13 0 0
BITMAP
E008
E008
1808
1808
1808
1830
0630
0630
06C0
06C0
06C0
0100
0100
ENDCHAR
STARTCHAR 03BE
ENCODING 958
SWIDTH 565 0
DWIDTH 11 0
BBX 10 16 0 -3
BITMAP
3F00
FFC0
C0C0
C000
3E00
3E00
C000
C000
C000
C000
C000
3F00
3F00
00C0
0100
0100
ENDCHAR
STARTCHAR 03BF
ENCODING 959
SWIDTH 668 0
DWIDTH 13 0
BBX 12 13 0 0
BITMAP
1F00
3FC0
20C0
C030
C030
C030
C030
C030
C030
C030
20C0
1F00
1F00
ENDCHAR
STARTCHAR 03C0
ENCODING 960
SWIDTH 771 0
DWIDTH 15 0
BBX 13 13 0 0
BITMAP
3FF8
FFF8
D8C0
18C0
18C0
18C0
18C0
18C0
18C0
18C0
18C0
1838
1838
ENDCHAR
STARTCHAR 03C1
ENCODING 961
SWIDTH 668 0
DWIDTH 13 0
BBX 12 16 0 -3
BITMAP
1F00
3FC0
20C0
C030
C030
C030
C030
C030
C030
E0C0
E0C0
DF00
DF00
C000
C000
C000
ENDCHAR
STARTCHAR 03C2
ENCODING 962
SWIDTH 668 0
DWIDTH 13 0
BBX 12 16 0 -3
BITMAP
1F00
3FC0
20C0
C030
C030
C000
C000
C000
C000
2000
2000
1FC0
1FC0
0030
00C0
00C0
ENDCHAR
STARTCHAR 03C3
ENCODING 963
SWIDTH 668 0
DWIDTH 13 0
BBX 12 13 0 0
BITMAP
1FF0
3FF0
20C0
C030
C030
C030
C030
C030
C030
C030
20C0
1F00
1F00
ENDCHAR
STARTCHAR 03C4
ENCODING 964
SWIDTH 668 0
DWIDTH 13 0
BBX 12 13 0 0
BITMAP
3FF0
FFF0
C600
0600
0600
0600
0600
0600
0600
0600
0600
01C0
01C0
ENDCHAR
STARTCHAR 03C5
ENCODING 965
SWIDTH 771 0
DWIDTH 15 0
BBX 13 13 0 0
BITMAP
E008
E008
1808
1808
1808
1808
1808
1808
1808
1808
0630
01C0
01C0
ENDCHAR
STARTCHAR 03C6
ENCODING 966
SWIDTH 822 0
DWIDTH 16 0
BBX 15 16 0 -3
BITMAP
18E0
3BF8
2318
C306
C306
C306
C306
C306
C306
2318
2318
1FE0
1FE0
0300
0300
0300
ENDCHAR
STARTCHAR 03C7
ENCODING 967
SWIDTH 668 0
DWIDTH 13 0
BBX 12 13 0 0
BITMAP
E030
F8F0
18C0
1900
1900
0600
0600
0600
1900
1900
2100
C0F0
C0F0
ENDCHAR
STARTCHAR 03C8
ENCODING 968
SWIDTH 668 0
DWIDTH 13 0
BBX 12 16 0 -3
BITMAP
C630
C630
C630
C630
C630
C630
C630
C630
C630
C630
C630
3FC0
3FC0
0600
0600
0600
ENDCHAR
STARTCHAR 03C9
ENCODING 969
SWIDTH 822 0
DWIDTH 16 0
BBX 15 13 0 0
BITMAP
1860
3878
2018
C006
C306
C306
C306
C306
C306
C306
2318
1CE0
1CE0
ENDCHAR
STARTCHAR 03CA
ENCODING 970
SWIDTH 411 0
DWIDTH 8 0
BBX 6 16 0 0
BITMAP
D8
D8
00
20
20
20
20
20
20
20
20
20
20
20
1C
1C
ENDCHAR
STARTCHAR 03CB
ENCODING 971
SWIDTH 771 0
DWIDTH 15 0
BBX 13 16 0 0
BITMAP
06C0
06C0
0000
E008
E008
1808
1808
1808
1808
1808
1808
1808
1808
0630
01C0
01C0
ENDCHAR
STARTCHAR 03CC
ENCODING 972
SWIDTH 668 0
DWIDTH 13 0
BBX 12 18 0 0
BITMAP
0100
0100
0600
0600
0000
1F00
3FC0
20C0
C030
C030
C030
C030
C030
C030
C030
20C0
1F00
1F00
ENDCHAR
STARTCHAR 03CD
ENCODING 973
SWIDTH 771 0
DWIDTH 15 0
BBX 13 18 0 0
BITMAP
00C0
00C0
0100
0100
0000
E008
E008
1808
1808
1808
1808
1808
1808
1808
1808
0630
01C0
01C0
ENDCHAR
STARTCHAR 03CE
ENCODING 974
SWIDTH 822 0
DWIDTH 16 0
BBX 15 18 0 0
BITMAP
00C0
00C0
0300
0300
0000
1830
3838
2008
C006
C306
C306
C306
C306
C306
C306
2308
1CF0
1CF0
ENDCHAR
STARTCHAR 0400
ENCODING 1024
SWIDTH 565 0
DWIDTH 11 0
BBX 10 23 0 0
BITMAP
1800
1800
0600
0600
0000
FFC0
FFC0
C000
C000
C000
C000
C000
C000
FFC0
FFC0
C000
C000
C000
C000
C000
C000
FFC0
FFC0
ENDCHAR
STARTCHAR 0401
ENCODING 1025
SWIDTH 565 0
DWIDTH 11 0
BBX 10 21 0 0
BITMAP
1B00
1B00
0000
FFC0
FFC0
C000
C000
C000
C000
C000
C000
FFC0
FFC0
C000
C000
C000
C000
C000
C000
FFC0
FFC0
ENDCHAR
STARTCHAR 0402
ENCODING 1026
SWIDTH 822 0
DWIDTH 16 0
BBX 15 18 0 0
BITMAP
FFF0
FFF0
0600
0600
0600
0600
06F8
06F8
0706
0706
0606
0606
0606
0606
0606
0606
0638
0638
ENDCHAR
STARTCHAR 0403
ENCODING 1027
SWIDTH 565 0
DWIDTH 11 0
BBX 10 23 0 0
BITMAP
0600
0600
1800
1800
0000
FFC0
FFC0
C000
C000
C000
C000
C000
C000
C000
C000
C000
C000
C000
C000
C000
C000
C000
C000
ENDCHAR
STARTCHAR 0404
ENCODING 1028
SWIDTH 771 0
DWIDTH 15 0
BBX 13 18 0 0
BITMAP
1FC0
1FC0
2030
C008
C008
C000
C000
C000
FF00
FF00
C000
C000
C000
C008
C008
2030
1FC0
1FC0
ENDCHAR
STARTCHAR 0405
ENCODING 1029
SWIDTH 668 0
DWIDTH 13 0
BBX 12 18 0 0
BITMAP
1F00
1F00
20C0
C030
C030
C000
2000
2000
1F00
1F00
00C0
00C0
0030
C030
C030
20C0
1F00
1F00
ENDCHAR
STARTCHAR 0406
ENCODING 1030
SWIDTH 360 0
DWIDTH 7 0
BBX 5 18 0 0
BITMAP
F8
F8
60
60
60
60
60
60
60
60
60
60
60
60
60
60
F8
F8
ENDCHAR
STARTCHAR 0407
ENCODING 1031
SWIDTH 360 0
DWIDTH 7 0
BBX 5 21 0 0
BITMAP
D8
D8
00
F8
F8
20
20
20
20
20
20
20
20
20
20
20
20
20
20
F8
F8
ENDCHAR
STARTCHAR 0408
ENCODING 1032
SWIDTH 565 0
DWIDTH 11 0
BBX 10 18 0 0
BITMAP
00C0
00C0
00C0
00C0
00C0
00C0
00C0
00C0
00C0
00C0
00C0
00C0
00C0
C0C0
C0C0
2300
1C00
1C00
ENDCHAR
STARTCHAR 0409
ENCODING 1033
SWIDTH 1234 0
DWIDTH 24 0
BBX 23 18 0 0
BITMAP
1FF800
1FF800
181800
181800
181800
181800
181FE0
181FE0
181818
181818
181806
181806
181806
181806
181806
181818
E01FE0
E01FE0
ENDCHAR
STARTCHAR 040A
ENCODING 1034
SWIDTH 1182 0
DWIDTH 23 0
BBX 21 18 0 0
BITMAP
C03000
C03000
C03000
C03000
C03000
C03000
FFFFC0
FFFFC0
C03030
C03030
C03008
C03008
C03008
C03008
C03008
C03030
C03FC0
C03FC0
ENDCHAR
STARTCHAR 040B
ENCODING 1035
SWIDTH 822 0
DWIDTH 16 0
BBX 15 18 0 0
BITMAP
FFE0
FFE0
0600
0600
0600
0600
06F8
06F8
0706
0706
0606
0606
0606
0606
0606
0606
0606
0606
ENDCHAR
STARTCHAR 040C
ENCODING 1036
SWIDTH 668 0
DWIDTH 13 0
BBX 12 23 0 0
BITMAP
0100
0100
0600
0600
0000
C030
C030
C0C0
C100
C100
C600
DE00
D800
E000
E000
D800
C600
C600
C100
C100
C0C0
C030
C030
ENDCHAR
STARTCHAR 040D
ENCODING 1037
SWIDTH 720 0
DWIDTH 14 0
BBX 12 23 0 0
BITMAP
1800
1800
0600
0600
0000
C030
C030
C0F0
C0F0
C0F0
C130
C130
C130
C630
C630
D830
D830
D830
E030
E030
E030
C030
C030
ENDCHAR
STARTCHAR 040E
ENCODING 1038
SWIDTH 668 0
DWIDTH 13 0
BBX 12 23 0 0
BITMAP
18C0
18C0
0700
0700
0000
C030
C030
C030
20C0
20C0
20C0
0000
1900
1900
1900
0600
0600
0600
0600
0600
1800
E000
E000
ENDCHAR
STARTCHAR 040F
ENCODING 1039
SWIDTH 668 0
DWIDTH 13 0
BBX 12 21 0 -3
BITMAP
C030
C030
C030
C030
C030
C030
C030
C030
C030
C030
C030
C030
C030
C030
C030
C030
FFF0
FFF0
0600
0600
0600
ENDCHAR
STARTCHAR 0410
ENCODING 1040
SWIDTH 668 0
DWIDTH 13 0
BBX 12 18 0 0
BITMAP
0600
0600
1900
1900
1900
1900
1900
20C0
20C0
20C0
20C0
3FC0
3FC0
C030
C030
C030
C030
C030
ENDCHAR
STARTCHAR 0411
ENCODING 1041
SWIDTH 668 0
DWIDTH 13 0
BBX 12 18 0 0
BITMAP
FFC0
FFC0
C000
C000
C000
C000
C000
C000
FF00
FF00
C0C0
C0C0
C030
C030
C030
C0C0
FF00
FF00
ENDCHAR
STARTCHAR 0412
ENCODING 1042
SWIDTH 668 0
DWIDTH 13 0
BBX 12 18 0 0
BITMAP
FF00
FF00
C0C0
C030
C030
C030
C0C0
C0C0
FF00
FF00
C0C0
C0C0
C030
C030
C030
C0C0
FF00
FF00
ENDCHAR
STARTCHAR 0413
ENCODING 1043
SWIDTH 565 0
DWIDTH 11 0
BBX 10 18 0 0
BITMAP
FFC0
FFC0
C000
C000
C000
C000
C000
C000
C000
C000
C000
C000
C000
C000
C000
C000
C000
C000
ENDCHAR
STARTCHAR 0414
ENCODING 1044
SWIDTH 822 0
DWIDTH 16 0
BBX 15 20 0 -2
BITMAP
07F8
07F8
0618
0618
0618
0618
0618
0618
0618
0618
1818
1818
1818
2018
2018
FFFE
FFFE
C006
C006
C006
ENDCHAR
STARTCHAR 0415
ENCODING 1045
SWIDTH 565 0
DWIDTH 11 0
BBX 10 18 0 0
BITMAP
FFC0
FFC0
C000
C000
C000
C000
C000
C000
FFC0
FFC0
C000
C000
C000
C000
C000
C000
FFC0
FFC0
ENDCHAR
STARTCHAR 0416
ENCODING 1046
SWIDTH 1028 0
DWIDTH 20 0
BBX 18 18 0 0
BITMAP
C0C0C0
C0C0C0
20C100
20C100
20C100
18C600
1EDE00
06D800
01E000
01E000
06D800
18C600
18C600
20C100
20C100
20C100
C0C0C0
C0C0C0
ENDCHAR
STARTCHAR 0417
ENCODING 1047
SWIDTH 771 0
DWIDTH 15 0
BBX 13 18 0 0
BITMAP
1FC0
1FC0
2030
C008
C008
0008
0030
0030
07C0
07C0
0030
0030
0008
C008
C008
2030
1FC0
1FC0
ENDCHAR
STARTCHAR 0418
ENCODING 1048
SWIDTH 720 0
DWIDTH 14 0
BBX 12 18 0 0
BITMAP
C030
C030
C0F0
C0F0
C0F0
C130
C130
C130
C630
C630
D830
D830
D830
E030
E030
E030
C030
C030
ENDCHAR
STARTCHAR 0419
ENCODING 1049
SWIDTH 720 0
DWIDTH 14 0
BBX 12 23 0 0
BITMAP
1900
1900
0600
0600
0000
C030
C030
C0F0
C0F0
C0F0
C130
C130
C130
C630
C630
D830
D830
D830
E030
E030
E030
C030
C030
ENDCHAR
STARTCHAR 041A
ENCODING 1050
SWIDTH 668 0
DWIDTH 13 0
BBX 12 18 0 0
BITMAP
C030
C030
C0C0
C100
C100
C600
DE00
D800
E000
E000
D800
C600
C600
C100
C100
C0C0
C030
C030
ENDCHAR
STARTCHAR 041B
ENCODING 1051
SWIDTH 771 0
DWIDTH 15 0
BBX 13 18 0 0
BITMAP
1FF8
1FF8
1818
1818
1818
1818
1818
1818
1818
1818
1818
1818
1818
1818
1818
1818
E018
E018
ENDCHAR
STARTCHAR 041C
ENCODING 1052
SWIDTH 822 0
DWIDTH 16 0
BBX 15 18 0 0
BITMAP
C006
C006
E00E
E00E
E00E
D836
D836
D836
D836
D836
C6C6
C6C6
C6C6
C6C6
C6C6
C106
C106
C106
ENDCHAR
STARTCHAR 041D
ENCODING 1053
SWIDTH 668 0
DWIDTH 13 0
BBX 12 18 0 0
BITMAP
C030
C030
C030
C030
C030
C030
C030
C030
FFF0
FFF0
C030
C030
C030
C030
C030
C030
C030
C030
ENDCHAR
STARTCHAR 041E
ENCODING 1054
SWIDTH 771 0
DWIDTH 15 0
BBX 13 18 0 0
BITMAP
1FC0
1FC0
2030
C008
C008
C008
C008
C008
C008
C008
C008
C008
C008
C008
C008
2030
1FC0
1FC0
ENDCHAR
STARTCHAR 041F
ENCODING 1055
SWIDTH 668 0
DWIDTH 13 0
BBX 12 18 0 0
BITMAP
FFF0
FFF0
C030
C030
C030
C030
C030
C030
C030
C030
C030
C030
C030
C030
C030
C030
C030
C030
ENDCHAR
STARTCHAR 0420
ENCODING 1056
SWIDTH 668 0
DWIDTH 13 0
BBX 12 18 0 0
BITMAP
FF00
FF00
C0C0
C030
C030
C030
C030
C030
C0C0
C0C0
FF00
FF00
C000
C000
C000
C000
C000
C000
ENDCHAR
STARTCHAR 0421
ENCODING 1057
SWIDTH 771 0
DWIDTH 15 0
BBX 13 18 0 0
BITMAP
1FC0
1FC0
2030
C008
C008
C000
C000
C000
C000
C000
C000
C000
C000
C008
C008
2030
1FC0
1FC0
ENDCHAR
STARTCHAR 0422
ENCODING 1058
SWIDTH 668 0
DWIDTH 13 0
BBX 12 18 0 0
BITMAP
FFF0
FFF0
0600
0600
0600
0600
0600
0600
0600
0600
0600
0600
0600
0600
0600
0600
0600
0600
ENDCHAR
STARTCHAR 0423
ENCODING 1059
SWIDTH 668 0
DWIDTH 13 0
BBX 12 18 0 0
BITMAP
C030
C030
C030
20C0
20C0
20C0
0000
1900
1900
1900
0600
0600
0600
0600
0600
1800
E000
E000
ENDCHAR
STARTCHAR 0424
ENCODING 1060
SWIDTH 822 0
DWIDTH 16 0
BBX 15 18 0 0
BITMAP
0300
0300
1FE0
2318
2318
C306
C306
C306
C306
C306
C306
C306
C306
2318
2318
1FE0
1FE0
0300
ENDCHAR
STARTCHAR 0425
ENCODING 1061
SWIDTH 668 0
DWIDTH 13 0
BBX 12 18 0 0
BITMAP
C030
C030
20C0
20C0
20C0
1900
1900
1900
0600
0600
1900
1900
1900
20C0
20C0
20C0
C030
C030
ENDCHAR
STARTCHAR 0426
ENCODING 1062
SWIDTH 668 0
DWIDTH 13 0
BBX 12 19 0 -1
BITMAP
C0C0
C0C0
C0C0
C0C0
C0C0
C0C0
C0C0
C0C0
C0C0
C0C0
C0C0
C0C0
C0C0
C0C0
C0C0
C0C0
FFF0
FFF0
0030
ENDCHAR
STARTCHAR 0427
ENCODING 1063
SWIDTH 668 0
DWIDTH 13 0
BBX 12 18 0 0
BITMAP
C030
C030
C030
C030
C030
C030
C030
C030
20F0
20F0
1F30
1F30
0030
0030
0030
0030
0030
0030
ENDCHAR
STARTCHAR 0428
ENCODING 1064
SWIDTH 822 0
DWIDTH 16 0
BBX 14 18 0 0
BITMAP
C304
C304
C304
C304
C304
C304
C304
C304
C304
C304
C304
C304
C304
C304
C304
C304
FFFC
FFFC
ENDCHAR
STARTCHAR 0429
ENCODING 1065
SWIDTH 925 0
DWIDTH 18 0
BBX 16 19 0 -1
BITMAP
C306
C306
C306
C306
C306
C306
C306
C306
C306
C306
C306
C306
C306
C306
C306
C306
FFFF
FFFF
0001
ENDCHAR
STARTCHAR 042A
ENCODING 1066
SWIDTH 822 0
DWIDTH 16 0
BBX 15 18 0 0
BITMAP
F800
F800
1800
1800
1800
1800
1FE0
1FE0
1818
1818
1806
1806
1806
1806
1806
1818
1FE0
1FE0
ENDCHAR
STARTCHAR 042B
ENCODING 1067
SWIDTH 822 0
DWIDTH 16 0
BBX 15 18 0 0
BITMAP
C006
C006
C006
C006
C006
C006
FF06
FF06
C0C6
C0C6
C036
C036
C036
C036
C036
C0C6
FF06
FF06
ENDCHAR
STARTCHAR 042C
ENCODING 1068
SWIDTH 668 0
DWIDTH 13 0
BBX 12 18 0 0
BITMAP
C000
C000
C000
C000
C000
C000
FF00
FF00
C0C0
C0C0
C030
C030
C030
C030
C030
C0C0
FF00
FF00
ENDCHAR
STARTCHAR 042D
ENCODING 1069
SWIDTH 771 0
DWIDTH 15 0
BBX 13 18 0 0
BITMAP
1FC0
1FC0
2030
C008
C008
0008
0008
0008
07F8
07F8
0008
0008
0008
C008
C008
2030
1FC0
1FC0
ENDCHAR
STARTCHAR 042E
ENCODING 1070
SWIDTH 874 0
DWIDTH 17 0
BBX 16 18 0 0
BITMAP
C0F8
C0F8
C10C
C601
C601
C601
C601
C601
FE01
FE01
C601
C601
C601
C601
C601
C10C
C0F8
C0F8
ENDCHAR
STARTCHAR 042F
ENCODING 1071
SWIDTH 668 0
DWIDTH 13 0
BBX 12 18 0 0
BITMAP
1FF0
1FF0
2030
C030
C030
C030
C030
C030
2030
2030
1FF0
1FF0
0630
1830
1830
2030
C030
C030
ENDCHAR
STARTCHAR 0430
ENCODING 1072
SWIDTH 565 0
DWIDTH 11 0
BBX 10 13 0 0
BITMAP
3F00
FFC0
C0C0
00C0
00C0
1FC0
20C0
20C0
C0C0
C0C0
C1C0
3EC0
3EC0
ENDCHAR
STARTCHAR 0431
ENCODING 1073
SWIDTH 668 0
DWIDTH 13 0
BBX 12 18 0 0
BITMAP
00C0
00C0
1F00
2000
2000
DF00
FFC0
E0C0
C030
C030
C030
C030
C030
C030
C030
20C0
1F00
1F00
ENDCHAR
STARTCHAR 0432
ENCODING 1074
SWIDTH 565 0
DWIDTH 11 0
BBX 10 13 0 0
BITMAP
FF00
FF00
C0C0
C0C0
C0C0
FF00
C0C0
C0C0
C0C0
C0C0
C0C0
FF00
FF00
ENDCHAR
STARTCHAR 0433
ENCODING 1075
SWIDTH 514 0
DWIDTH 10 0
BBX 8 13 0 0
BITMAP
FF
FF
C0
C0
C0
C0
C0
C0
C0
C0
C0
C0
C0
ENDCHAR
STARTCHAR 0434
ENCODING 1076
SWIDTH 771 0
DWIDTH 15 0
BBX 13 16 0 -3
BITMAP
07F0
07F0
0630
0630
0630
0630
1830
1830
1830
2030
2030
FFF8
FFF8
C008
C008
C008
ENDCHAR
STARTCHAR 0435
ENCODING 1077
SWIDTH 668 0
DWIDTH 13 0
BBX 12 13 0 0
BITMAP
1F00
3FC0
20C0
C030
C030
FFF0
FFF0
C000
C030
C030
20C0
1F00
1F00
ENDCHAR
STARTCHAR 0436
ENCODING 1078
SWIDTH 822 0
DWIDTH 16 0
BBX 15 13 0 0
BITMAP
C306
C306
2308
2308
2308
1B30
07C0
07C0
1B30
1B30
2308
C306
C306
ENDCHAR
STARTCHAR 0437
ENCODING 1079
SWIDTH 565 0
DWIDTH 11 0
BBX 10 13 0 0
BITMAP
3F00
3F00
C0C0
C0C0
00C0
1F00
00C0
00C0
00C0
00C0
C0C0
3F00
3F00
ENDCHAR
STARTCHAR 0438
ENCODING 1080
SWIDTH 720 0
DWIDTH 14 0
BBX 12 13 0 0
BITMAP
C030
C0F0
C0F0
C130
C130
C630
C630
C630
D830
D830
E030
E030
C030
ENDCHAR
STARTCHAR 0439
ENCODING 1081
SWIDTH 720 0
DWIDTH 14 0
BBX 12 16 0 0
BITMAP
1900
0600
0600
C030
C0F0
C0F0
C130
C130
C630
C630
C630
D830
D830
E030
E030
C030
ENDCHAR
STARTCHAR 043A
ENCODING 1082
SWIDTH 565 0
DWIDTH 11 0
BBX 10 13 0 0
BITMAP
C0C0
C1C0
C100
C600
C600
F800
F800
D800
C600
C600
C100
C0C0
C0C0
ENDCHAR
STARTCHAR 043B
ENCODING 1083
SWIDTH 668 0
DWIDTH 13 0
BBX 12 13 0 0
BITMAP
1FF0
1FF0
1830
1830
1830
1830
1830
1830
1830
1830
1830
E030
E030
ENDCHAR
STARTCHAR 043C
ENCODING 1084
SWIDTH 720 0
DWIDTH 14 0
BBX 12 13 0 0
BITMAP
C030
C030
E0F0
E0F0
E0F0
D930
D930
D930
D930
D930
C630
C630
C630
ENDCHAR
STARTCHAR 043D
ENCODING 1085
SWIDTH 565 0
DWIDTH 11 0
BBX 10 13 0 0
BITMAP
C0C0
C0C0
C0C0
C0C0
C0C0
FFC0
FFC0
C0C0
C0C0
C0C0
C0C0
C0C0
C0C0
ENDCHAR
STARTCHAR 043E
ENCODING 1086
SWIDTH 668 0
DWIDTH 13 0
BBX 12 13 0 0
BITMAP
1F00
3FC0
20C0
C030
C030
C030
C030
C030
C030
C030
20C0
1F00
1F00
ENDCHAR
STARTCHAR 043F
ENCODING 1087
SWIDTH 565 0
DWIDTH 11 0
BBX 10 13 0 0
BITMAP
FFC0
FFC0
C0C0
C0C0
C0C0
C0C0
C0C0
C0C0
C0C0
C0C0
C0C0
C0C0
C0C0
ENDCHAR
STARTCHAR 0440
ENCODING 1088
SWIDTH 668 0
DWIDTH 13 0
BBX 12 16 0 -3
BITMAP
DF00
FFC0
E0C0
C030
C030
C030
C030
C030
C030
E0C0
E0C0
DF00
DF00
C000
C000
C000
ENDCHAR
STARTCHAR 0441
ENCODING 1089
SWIDTH 668 0
DWIDTH 13 0
BBX 12 13 0 0
BITMAP
1F00
3FC0
20C0
C030
C030
C000
C000
C000
C030
C030
20C0
1F00
1F00
ENDCHAR
STARTCHAR 0442
ENCODING 1090
SWIDTH 668 0
DWIDTH 13 0
BBX 12 13 0 0
BITMAP
FFF0
FFF0
0600
0600
0600
0600
0600
0600
0600
0600
0600
0600
0600
ENDCHAR
STARTCHAR 0443
ENCODING 1091
SWIDTH 668 0
DWIDTH 13 0
BBX 12 16 0 -3
BITMAP
C030
C030
C030
20C0
20C0
20C0
1900
1900
1900
0000
0600
0600
0600
1800
E000
E000
ENDCHAR
STARTCHAR 0444
ENCODING 1092
SWIDTH 822 0
DWIDTH 16 0
BBX 15 20 0 -3
BITMAP
0300
0300
0300
0300
1FE0
3FF8
2318
C306
C306
C306
C306
C306
C306
2318
2318
1FE0
1FE0
0300
0300
0300
ENDCHAR
STARTCHAR 0445
ENCODING 1093
SWIDTH 668 0
DWIDTH 13 0
BBX 12 13 0 0
BITMAP
C030
E0F0
20C0
1900
1900
0600
0600
0600
1900
1900
20C0
C030
C030
ENDCHAR
STARTCHAR 0446
ENCODING 1094
SWIDTH 668 0
DWIDTH 13 0
BBX 12 16 0 -3
BITMAP
C0C0
C0C0
C0C0
C0C0
C0C0
C0C0
C0C0
C0C0
C0C0
C0C0
C0C0
FFF0
FFF0
0030
0030
0030
ENDCHAR
STARTCHAR 0447
ENCODING 1095
SWIDTH 565 0
DWIDTH 11 0
BBX 10 13 0 0
BITMAP
C0C0
C0C0
C0C0
C0C0
C0C0
C0C0
C1C0
C1C0
3EC0
3EC0
00C0
00C0
00C0
ENDCHAR
STARTCHAR 0448
ENCODING 1096
SWIDTH 668 0
DWIDTH 13 0
BBX 12 13 0 0
BITMAP
C630
C630
C630
C630
C630
C630
C630
C630
C630
C630
C630
FFF0
FFF0
ENDCHAR
STARTCHAR 0449
ENCODING 1097
SWIDTH 771 0
DWIDTH 15 0
BBX 13 16 0 -3
BITMAP
C630
C630
C630
C630
C630
C630
C630
C630
C630
C630
C630
FFF8
FFF8
0008
0008
0008
ENDCHAR
STARTCHAR 044A
ENCODING 1098
SWIDTH 720 0
DWIDTH 14 0
BBX 13 13 0 0
BITMAP
F800
F800
1800
1800
1800
1FE0
1818
1818
1818
1818
1818
1FE0
1FE0
ENDCHAR
STARTCHAR 044B
ENCODING 1099
SWIDTH 771 0
DWIDTH 15 0
BBX 13 13 0 0
BITMAP
C018
C018
C018
C018
C018
FF18
C0D8
C0D8
C0D8
C0D8
C0D8
FF18
FF18
ENDCHAR
STARTCHAR 044C
ENCODING 1100
SWIDTH 565 0
DWIDTH 11 0
BBX 10 13 0 0
BITMAP
C000
C000
C000
C000
C000
FF00
C0C0
C0C0
C0C0
C0C0
C0C0
FF00
FF00
ENDCHAR
STARTCHAR 044D
ENCODING 1101
SWIDTH 668 0
DWIDTH 13 0
BBX 12 13 0 0
BITMAP
1F00
3FC0
20C0
C030
C030
07F0
07F0
0030
C030
C030
20C0
1F00
1F00
ENDCHAR
STARTCHAR 044E
ENCODING 1102
SWIDTH 874 0
DWIDTH 17 0
BBX 16 13 0 0
BITMAP
C0F8
C1FC
C10C
C601
C601
FE01
FE01
C601
C601
C601
C10C
C0F8
C0F8
ENDCHAR
STARTCHAR 044F
ENCODING 1103
SWIDTH 565 0
DWIDTH 11 0
BBX 10 13 0 0
BITMAP
3FC0
3FC0
C0C0
C0C0
C0C0
C0C0
3FC0
3FC0
18C0
18C0
20C0
C0C0
C0C0
ENDCHAR
STARTCHAR 0450
ENCODING 1104
SWIDTH 668 0
DWIDTH 13 0
BBX 12 18 0 0
BITMAP
1800
1800
0600
0600
0000
1F00
3FC0
20C0
C030
C030
FFF0
FFF0
C000
C030
C030
20C0
1F00
1F00
ENDCHAR
STARTCHAR 0451
ENCODING 1105
SWIDTH 668 0
DWIDTH 13 0
BBX 12 16 0 0
BITMAP
1B00
1B00
0000
1F00
3FC0
20C0
C030
C030
FFF0
FFF0
C000
C030
C030
20C0
1F00
1F00
ENDCHAR
STARTCHAR 0452
ENCODING 1106
SWIDTH 720 0
DWIDTH 14 0
BBX 13 21 0 -3
BITMAP
1800
FF00
FF00
1800
1800
1800
1BE0
1BE0
1C18
1C18
1818
1818
1818
1818
1818
1818
1818
1818
0018
00E0
00E0
ENDCHAR
STARTCHAR 0453
ENCODING 1107
SWIDTH 514 0
DWIDTH 10 0
BBX 8 18 0 0
BITMAP
06
06
18
18
00
FF
FF
C0
C0
C0
C0
C0
C0
C0
C0
C0
C0
C0
ENDCHAR
STARTCHAR 0454
ENCODING 1108
SWIDTH 668 0
DWIDTH 13 0
BBX 12 13 0 0
BITMAP
1F00
3FC0
20C0
C030
C030
FF00
FF00
C000
C030
C030
20C0
1F00
1F00
ENDCHAR
STARTCHAR 0455
ENCODING 1109
SWIDTH 565 0
DWIDTH 11 0
BBX 10 13 0 0
BITMAP
3F00
3F00
C0C0
C0C0
C000
3800
0700
0700
00C0
00C0
C0C0
3F00
3F00
ENDCHAR
STARTCHAR 0456
ENCODING 1110
SWIDTH 360 0
DWIDTH 7 0
BBX 2 16 2 0
BITMAP
C0
C0
00
C0
C0
C0
C0
C0
C0
C0
C0
C0
C0
C0
C0
C0
ENDCHAR
STARTCHAR 0457
ENCODING 1111
SWIDTH 360 0
DWIDTH 7 0
BBX 5 16 0 0
BITMAP
D8
D8
00
20
20
20
20
20
20
20
20
20
20
20
20
20
ENDCHAR
STARTCHAR 0458
ENCODING 1112
SWIDTH 411 0
DWIDTH 8 0
BBX 7 20 0 -3
BITMAP
06
06
00
00
06
06
06
06
06
06
06
06
06
06
06
06
06
C6
38
38
ENDCHAR
STARTCHAR 0459
ENCODING 1113
SWIDTH 1028 0
DWIDTH 20 0
BBX 18 13 0 0
BITMAP
1FF000
1FF000
183000
183000
183000
183F00
1830C0
1830C0
1830C0
1830C0
1830C0
E03F00
E03F00
ENDCHAR
STARTCHAR 045A
ENCODING 1114
SWIDTH 925 0
DWIDTH 18 0
BBX 16 13 0 0
BITMAP
C0C0
C0C0
C0C0
C0C0
C0C0
FFFE
C0C1
C0C1
C0C1
C0C1
C0C1
C0FE
C0FE
ENDCHAR
STARTCHAR 045B
ENCODING 1115
SWIDTH 720 0
DWIDTH 14 0
BBX 13 18 0 0
BITMAP
1800
1800
FF00
FF00
1800
1800
1BE0
1BE0
1C18
1C18
1818
1818
1818
1818
1818
1818
1818
1818
ENDCHAR
STARTCHAR 045C
ENCODING 1116
SWIDTH 565 0
DWIDTH 11 0
BBX 10 18 0 0
BITMAP
0600
0600
1800
1800
0000
C0C0
C1C0
C100
C600
C600
F800
F800
D800
C600
C600
C100
C0C0
C0C0
ENDCHAR
STARTCHAR 045D
ENCODING 1117
SWIDTH 720 0
DWIDTH 14 0
BBX 12 18 0 0
BITMAP
1800
1800
0600
0600
0000
C030
C0F0
C0F0
C130
C130
C630
C630
C630
D830
D830
E030
E030
C030
ENDCHAR
STARTCHAR 045E
ENCODING 1118
SWIDTH 668 0
DWIDTH 13 0
BBX 12 21 0 -3
BITMAP
18C0
1FC0
0700
0000
0000
C030
C030
C030
20C0
20C0
20C0
1900
1900
1900
0000
0600
0600
0600
1800
E000
E000
ENDCHAR
STARTCHAR 045F
ENCODING 1119
SWIDTH 668 0
DWIDTH 13 0
BBX 12 16 0 -3
BITMAP
C030
C030
C030
C030
C030
C030
C030
C030
C030
C030
C030
FFF0
FFF0
0600
0600
0600
ENDCHAR
STARTCHAR 0490
ENCODING 1168
SWIDTH 565 0
DWIDTH 11 0
BBX 10 21 0 0
BITMAP
00C0
00C0
00C0
FFC0
FFC0
C000
C000
C000
C000
C000
C000
C000
C000
C000
C000
C000
C000
C000
C000
C000
C000
ENDCHAR
STARTCHAR 0491
ENCODING 1169
SWIDTH 514 0
DWIDTH 10 0
BBX 8 17 0 0
BITMAP
03
03
03
03
FF
FF
C0
C0
C0
C0
C0
C0
C0
C0
C0
C0
C0
ENDCHAR
STARTCHAR 04C0
ENCODING 1216
SWIDTH 360 0
DWIDTH 7 0
BBX 5 18 0 0
BITMAP
F8
F8
60
60
60
60
60
60
60
60
60
60
60
60
60
60
F8
F8
ENDCHAR
STARTCHAR 04C1
ENCODING 1217
SWIDTH 1028 0
DWIDTH 20 0
BBX 18 23 0 0
BITMAP
011800
011800
00E000
00E000
000000
C0C0C0
C0C0C0
20C100
20C100
20C100
18C600
1EDE00
06D800
01E000
01E000
06D800
18C600
18C600
20C100
20C100
20C100
C0C0C0
C0C0C0
ENDCHAR
STARTCHAR 04C2
ENCODING 1218
SWIDTH 822 0
DWIDTH 16 0
BBX 15 18 0 0
BITMAP
0630
0630
01C0
01C0
0000
C106
C106
2108
2108
2108
1930
07C0
07C0
1930
1930
2108
C106
C106
ENDCHAR
STARTCHAR 04CF
ENCODING 1231
SWIDTH 360 0
DWIDTH 7 0
BBX 2 18 2 0
BITMAP
C0
C0
C0
C0
C0
C0
C0
C0
C0
C0
C0
C0
C0
C0
C0
C0
C0
C0
ENDCHAR
STARTCHAR 04D0
ENCODING 1232
SWIDTH 668 0
DWIDTH 13 0
BBX 12 23 0 0
BITMAP
18C0
18C0
0700
0700
0000
0600
0600
1900
1900
1900
1900
1900
20C0
20C0
20C0
20C0
3FC0
3FC0
C030
C030
C030
C030
C030
ENDCHAR
STARTCHAR 04D1
ENCODING 1233
SWIDTH 565 0
DWIDTH 11 0
BBX 10 18 0 0
BITMAP
2300
2300
1C00
1C00
0000
3F00
FFC0
C0C0
00C0
00C0
1FC0
20C0
20C0
C0C0
C0C0
C3C0
3CC0
3CC0
ENDCHAR
STARTCHAR 04D2
ENCODING 1234
SWIDTH 668 0
DWIDTH 13 0
BBX 12 21 0 0
BITMAP
1900
1900
0000
0600
0600
1900
1900
1900
1900
1900
20C0
20C0
20C0
20C0
3FC0
3FC0
C030
C030
C030
C030
C030
ENDCHAR
STARTCHAR 04D3
ENCODING 1235
SWIDTH 565 0
DWIDTH 11 0
BBX 10 16 0 0
BITMAP
2100
2100
0000
3F00
FFC0
C0C0
00C0
00C0
1FC0
20C0
20C0
C0C0
C0C0
C1C0
3EC0
3EC0
ENDCHAR
STARTCHAR 04D4
ENCODING 1236
SWIDTH 822 0
DWIDTH 16 0
BBX 15 18 0 0
BITMAP
07FE
07FE
1B00
1B00
1B00
1B00
1B00
2300
23FE
23FE
2300
3F00
3F00
C300
C300
C300
C3FE
C3FE
ENDCHAR
STARTCHAR 04D5
ENCODING 1237
SWIDTH 668 0
DWIDTH 13 0
BBX 12 13 0 0
BITMAP
39C0
FFF0
C630
0630
0630
1FF0
2600
2600
C600
C600
C630
39C0
39C0
ENDCHAR
STARTCHAR 04D6
ENCODING 1238
SWIDTH 565 0
DWIDTH 11 0
BBX 10 23 0 0
BITMAP
2300
2300
1C00
1C00
0000
FFC0
FFC0
C000
C000
C000
C000
C000
C000
FFC0
FFC0
C000
C000
C000
C000
C000
C000
FFC0
FFC0
ENDCHAR
STARTCHAR 04D7
ENCODING 1239
SWIDTH 668 0
DWIDTH 13 0
BBX 12 18 0 0
BITMAP
18C0
18C0
0700
0700
0000
1F00
3FC0
20C0
C030
C030
FFF0
FFF0
C000
C030
C030
20C0
1F00
1F00
ENDCHAR
STARTCHAR 04D8
ENCODING 1240
SWIDTH 771 0
DWIDTH 15 0
BBX 13 18 0 0
BITMAP
1FC0
1FC0
2030
C008
C008
0008
0008
0008
FFF8
FFF8
C008
C008
C008
C008
C008
2030
1FC0
1FC0
ENDCHAR
STARTCHAR 04D9
ENCODING 1241
SWIDTH 668 0
DWIDTH 13 0
BBX 12 13 0 0
BITMAP
1F00
3FC0
20C0
C030
C030
0030
FFF0
FFF0
C030
C030
20C0
1F00
1F00
ENDCHAR
STARTCHAR 04DA
ENCODING 1242
SWIDTH 771 0
DWIDTH 15 0
BBX 13 21 0 0
BITMAP
18C0
18C0
0000
1FC0
1FC0
2030
C008
C008
0008
0008
0008
FFF8
FFF8
C008
C008
C008
C008
C008
2030
1FC0
1FC0
ENDCHAR
STARTCHAR 04DB
ENCODING 1243
SWIDTH 668 0
DWIDTH 13 0
BBX 12 16 0 0
BITMAP
1B00
1B00
0000
1F00
3FC0
20C0
C030
C030
0030
FFF0
FFF0
C030
C030
20C0
1F00
1F00
ENDCHAR
STARTCHAR 04DC
ENCODING 1244
SWIDTH 1028 0
DWIDTH 20 0
BBX 18 21 0 0
BITMAP
013000
013000
000000
C0C0C0
C0C0C0
20C100
20C100
20C100
18C600
1ECE00
06C800
01F000
01F000
06C800
18C600
18C600
20C100
20C100
20C100
C0C0C0
C0C0C0
ENDCHAR
STARTCHAR 04DD
ENCODING 1245
SWIDTH 822 0
DWIDTH 16 0
BBX 15 16 0 0
BITMAP
06C0
06C0
0000
C106
C106
2108
2108
2108
1930
07C0
07C0
1930
1930
2108
C106
C106
ENDCHAR
STARTCHAR 04DE
ENCODING 1246
SWIDTH 771 0
DWIDTH 15 0
BBX 13 21 0 0
BITMAP
18C0
18C0
0000
1FC0
1FC0
2030
C008
C008
0008
0030
0030
07C0
07C0
0030
0030
0008
C008
C008
2030
1FC0
1FC0
ENDCHAR
STARTCHAR 04DF
ENCODING 1247
SWIDTH 565 0
DWIDTH 11 0
BBX 10 16 0 0
BITMAP
2300
2300
0000
3F00
3F00
C0C0
C0C0
00C0
1F00
00C0
00C0
00C0
00C0
C0C0
3F00
3F00
ENDCHAR
STARTCHAR 04E0
ENCODING 1248
SWIDTH 771 0
DWIDTH 15 0
BBX 13 18 0 0
BITMAP
FFF8
FFF8
0008
0030
0030
00C0
00C0
0300
07C0
07C0
0030
0030
0008
C008
C008
2030
1FC0
1FC0
ENDCHAR
STARTCHAR 04E1
ENCODING 1249
SWIDTH 565 0
DWIDTH 11 0
BBX 10 13 0 0
BITMAP
FFC0
FFC0
0100
0600
0600
1F00
00C0
00C0
00C0
00C0
C0C0
3F00
3F00
ENDCHAR
STARTCHAR 04E2
ENCODING 1250
SWIDTH 668 0
DWIDTH 13 0
BBX 12 21 0 0
BITMAP
3FC0
3FC0
0000
C030
C030
C0F0
C0F0
C0F0
C130
C130
C130
C630
C630
D830
D830
D830
E030
E030
E030
C030
C030
ENDCHAR
STARTCHAR 04E3
ENCODING 1251
SWIDTH 668 0
DWIDTH 13 0
BBX 12 16 0 0
BITMAP
3FC0
3FC0
0000
C030
C0F0
C0F0
C130
C130
C630
C630
C630
D830
D830
E030
E030
C030
ENDCHAR
STARTCHAR 04E4
ENCODING 1252
SWIDTH 720 0
DWIDTH 14 0
BBX 12 21 0 0
BITMAP
1900
1900
0000
C030
C030
C0F0
C0F0
C0F0
C130
C130
C130
C630
C630
D830
D830
D830
E030
E030
E030
C030
C030
ENDCHAR
STARTCHAR 04E5
ENCODING 1253
SWIDTH 720 0
DWIDTH 14 0
BBX 12 16 0 0
BITMAP
1900
1900
0000
C030
C0F0
C0F0
C130
C130
C630
C630
C630
D830
D830
E030
E030
C030
ENDCHAR
STARTCHAR 04E6
ENCODING 1254
SWIDTH 771 0
DWIDTH 15 0
BBX 13 21 0 0
BITMAP
18C0
18C0
0000
1FC0
1FC0
2030
C008
C008
C008
C008
C008
C008
C008
C008
C008
C008
C008
C008
2030
1FC0
1FC0
ENDCHAR
STARTCHAR 04E7
ENCODING 1255
SWIDTH 668 0
DWIDTH 13 0
BBX 12 16 0 0
BITMAP
1B00
1B00
0000
1F00
3FC0
20C0
C030
C030
C030
C030
C030
C030
C030
20C0
1F00
1F00
ENDCHAR
STARTCHAR 04E8
ENCODING 1256
SWIDTH 771 0
DWIDTH 15 0
BBX 13 18 0 0
BITMAP
1FC0
1FC0
2030
C008
C008
C008
C008
C008
FFF8
FFF8
C008
C008
C008
C008
C008
2030
1FC0
1FC0
ENDCHAR
STARTCHAR 04E9
ENCODING 1257
SWIDTH 668 0
DWIDTH 13 0
BBX 12 13 0 0
BITMAP
1F00
3FC0
20C0
C030
C030
FFF0
FFF0
C030
C030
C030
20C0
1F00
1F00
ENDCHAR
STARTCHAR 04EA
ENCODING 1258
SWIDTH 771 0
DWIDTH 15 0
BBX 13 21 0 0
BITMAP
18C0
18C0
0000
1FC0
1FC0
2030
C008
C008
C008
C008
C008
FFF8
FFF8
C008
C008
C008
C008
C008
2030
1FC0
1FC0
ENDCHAR
STARTCHAR 04EB
ENCODING 1259
SWIDTH 668 0
DWIDTH 13 0
BBX 12 16 0 0
BITMAP
1B00
1B00
0000
1F00
3FC0
20C0
C030
C030
FFF0
FFF0
C030
C030
C030
20C0
1F00
1F00
ENDCHAR
STARTCHAR 04EC
ENCODING 1260
SWIDTH 771 0
DWIDTH 15 0
BBX 13 21 0 0
BITMAP
18C0
18C0
0000
1FC0
1FC0
2030
C008
C008
0008
0008
0008
07F8
07F8
0008
0008
0008
C008
C008
2030
1FC0
1FC0
ENDCHAR
STARTCHAR 04ED
ENCODING 1261
SWIDTH 668 0
DWIDTH 13 0
BBX 12 16 0 0
BITMAP
1B00
1B00
0000
1F00
3FC0
20C0
C030
C030
07F0
07F0
0030
C030
C030
20C0
1F00
1F00
ENDCHAR
STARTCHAR 04EE
ENCODING 1262
SWIDTH 668 0
DWIDTH 13 0
BBX 12 21 0 0
BITMAP
3FC0
3FC0
0000
C030
C030
C030
20C0
20C0
20C0
0000
1900
1900
1900
0600
0600
0600
0600
0600
1800
E000
E000
ENDCHAR
STARTCHAR 04EF
ENCODING 1263
SWIDTH 668 0
DWIDTH 13 0
BBX 12 20 0 -3
BITMAP
3FC0
3FC0
0000
0000
C030
C030
C030
20C0
20C0
20C0
1900
1900
1900
0000
0600
0600
0600
1800
E000
E000
ENDCHAR
STARTCHAR 04F0
ENCODING 1264
SWIDTH 668 0
DWIDTH 13 0
BBX 12 21 0 0
BITMAP
1900
1900
0000
C030
C030
C030
20C0
20C0
20C0
0000
1900
1900
1900
0600
0600
0600
0600
0600
1800
E000
E000
ENDCHAR
STARTCHAR 04F1
ENCODING 1265
SWIDTH 668 0
DWIDTH 13 0
BBX 12 20 0 -3
BITMAP
1900
1900
0000
0000
C030
C030
C030
20C0
20C0
20C0
1900
1900
1900
0000
0600
0600
0600
1800
E000
E000
ENDCHAR
STARTCHAR 04F2
ENCODING 1266
SWIDTH 668 0
DWIDTH 13 0
BBX 12 21 0 0
BITMAP
06C0
1900
1900
C030
C030
C030
20C0
20C0
20C0
0000
1900
1900
1900
0600
0600
0600
0600
0600
1800
E000
E000
ENDCHAR
STARTCHAR 04F3
ENCODING 1267
SWIDTH 668 0
DWIDTH 13 0
BBX 12 20 0 -3
BITMAP
06C0
06C0
1900
1900
C030
C030
C030
20C0
20C0
20C0
1900
1900
1900
0000
0600
0600
0600
1800
E000
E000
ENDCHAR
STARTCHAR 04F4
ENCODING 1268
SWIDTH 668 0
DWIDTH 13 0
BBX 12 21 0 0
BITMAP
1B00
1B00
0000
C030
C030
C030
C030
C030
C030
C030
C030
20F0
20F0
1F30
1F30
0030
0030
0030
0030
0030
0030
ENDCHAR
STARTCHAR 04F5
ENCODING 1269
SWIDTH 565 0
DWIDTH 11 0
BBX 10 16 0 0
BITMAP
2100
2100
0000
C0C0
C0C0
C0C0
C0C0
C0C0
C0C0
C1C0
C1C0
3EC0
3EC0
00C0
00C0
00C0
ENDCHAR
STARTCHAR 04F8
ENCODING 1272
SWIDTH 822 0
DWIDTH 16 0
BBX 15 20 0 0
BITMAP
06C0
06C0
C006
C006
C006
C006
C006
C006
FF06
FF06
C0C6
C0C6
C036
C036
C036
C036
C036
C0C6
FF06
FF06
ENDCHAR
STARTCHAR 04F9
ENCODING 1273
SWIDTH 771 0
DWIDTH 15 0
BBX 13 16 0 0
BITMAP
18C0
18C0
0000
C018
C018
C018
C018
C018
FF18
C0D8
C0D8
C0D8
C0D8
C0D8
FF18
FF18
ENDCHAR
STARTCHAR 1EF2
ENCODING 7922
SWIDTH 668 0
DWIDTH 13 0
BBX 12 21 0 0
BITMAP
1800
0600
0600
C030
C030
C030
20C0
20C0
20C0
0000
1900
1900
1900
0600
0600
0600
0600
0600
0600
0600
0600
ENDCHAR
STARTCHAR 1EF3
ENCODING 7923
SWIDTH 668 0
DWIDTH 13 0
BBX 12 20 0 -3
BITMAP
1800
1800
0600
0600
C030
C030
C030
20C0
20C0
20C0
1900
1900
1900
0000
0600
0600
0600
1800
E000
E000
ENDCHAR
STARTCHAR 2010
ENCODING 8208
SWIDTH 514 0
DWIDTH 10 0
BBX 8 2 0 8
BITMAP
FF
FF
ENDCHAR
STARTCHAR 2011
ENCODING 8209
SWIDTH 514 0
DWIDTH 10 0
BBX 8 2 0 8
BITMAP
FF
FF
ENDCHAR
STARTCHAR 2012
ENCODING 8210
SWIDTH 668 0
DWIDTH 13 0
BBX 12 2 0 8
BITMAP
FFF0
FFF0
ENDCHAR
STARTCHAR 2013
ENCODING 8211
SWIDTH 565 0
DWIDTH 11 0
BBX 10 2 0 8
BITMAP
FFC0
FFC0
ENDCHAR
STARTCHAR 2014
ENCODING 8212
SWIDTH 1028 0
DWIDTH 20 0
BBX 18 2 0 8
BITMAP
FFFFC0
FFFFC0
ENDCHAR
STARTCHAR 2015
ENCODING 8213
SWIDTH 1028 0
DWIDTH 20 0
BBX 18 2 0 8
BITMAP
FFFFC0
FFFFC0
ENDCHAR
STARTCHAR 2016
ENCODING 8214
SWIDTH 360 0
DWIDTH 7 0
BBX 5 18 0 0
BITMAP
D8
D8
D8
D8
D8
D8
D8
D8
D8
D8
D8
D8
D8
D8
D8
D8
D8
D8
ENDCHAR
STARTCHAR 2017
ENCODING 8215
SWIDTH 565 0
DWIDTH 11 0
BBX 10 5 0 0
BITMAP
FFC0
FFC0
0000
FFC0
FFC0
ENDCHAR
STARTCHAR 2018
ENCODING 8216
SWIDTH 360 0
DWIDTH 7 0
BBX 3 5 2 13
BITMAP
20
20
C0
C0
C0
ENDCHAR
STARTCHAR 2019
ENCODING 8217
SWIDTH 308 0
DWIDTH 6 0
BBX 3 5 0 13
BITMAP
20
20
20
C0
C0
ENDCHAR
STARTCHAR 201A
ENCODING 8218
SWIDTH 308 0
DWIDTH 6 0
BBX 3 5 0 -2
BITMAP
20
20
20
C0
C0
ENDCHAR
STARTCHAR 201B
ENCODING 8219
SWIDTH 360 0
DWIDTH 7 0
BBX 3 5 2 13
BITMAP
C0
C0
C0
20
20
ENDCHAR
STARTCHAR 201C
ENCODING 8220
SWIDTH 514 0
DWIDTH 10 0
BBX 7 5 2 13
BITMAP
26
26
D8
D8
D8
ENDCHAR
STARTCHAR 201D
ENCODING 8221
SWIDTH 514 0
DWIDTH 10 0
BBX 7 5 0 13
BITMAP
26
26
26
D8
D8
ENDCHAR
STARTCHAR 201E
ENCODING 8222
SWIDTH 514 0
DWIDTH 10 0
BBX 7 5 0 -2
BITMAP
26
26
26
D8
D8
ENDCHAR
STARTCHAR 201F
ENCODING 8223
SWIDTH 514 0
DWIDTH 10 0
BBX 7 5 2 13
BITMAP
D8
D8
D8
26
26
ENDCHAR
STARTCHAR 2020
ENCODING 8224
SWIDTH 514 0
DWIDTH 10 0
BBX 8 18 0 0
BITMAP
18
18
18
18
18
FF
FF
18
18
18
18
18
18
18
18
18
18
18
ENDCHAR
STARTCHAR 2021
ENCODING 8225
SWIDTH 514 0
DWIDTH 10 0
BBX 8 18 0 0
BITMAP
18
18
18
FF
FF
18
18
18
18
18
18
18
18
FF
FF
18
18
18
ENDCHAR
STARTCHAR 2022
ENCODING 8226
SWIDTH 462 0
DWIDTH 9 0
BBX 7 7 0 5
BITMAP
38
38
FE
FE
FE
38
38
ENDCHAR
STARTCHAR 2023
ENCODING 8227
SWIDTH 462 0
DWIDTH 9 0
BBX 5 8 2 5
BITMAP
C0
E0
E0
F8
F8
E0
C0
C0
ENDCHAR
STARTCHAR 2024
ENCODING 8228
SWIDTH 360 0
DWIDTH 7 0
BBX 2 2 2 0
BITMAP
C0
C0
ENDCHAR
STARTCHAR 2025
ENCODING 8229
SWIDTH 822 0
DWIDTH 16 0
BBX 10 2 3 8
BITMAP
C0C0
C0C0
ENDCHAR
STARTCHAR 2026
ENCODING 8230
SWIDTH 874 0
DWIDTH 17 0
BBX 12 2 2 8
BITMAP
C630
C630
ENDCHAR
STARTCHAR 2027
ENCODING 8231
SWIDTH 360 0
DWIDTH 7 0
BBX 2 2 2 8
BITMAP
C0
C0
ENDCHAR
STARTCHAR 2030
ENCODING 8240
SWIDTH 1080 0
DWIDTH 21 0
BBX 20 15 0 1
BITMAP
380600
C60800
C60800
C63000
FEF000
38C000
010000
010000
0639C0
18C630
18C630
20C630
20C630
C039C0
C039C0
ENDCHAR
STARTCHAR 2031
ENCODING 8241
SWIDTH 1337 0
DWIDTH 26 0
BBX 24 15 0 1
BITMAP
380600
C60800
C60800
C63000
FEF000
38C000
010000
010000
0639CE
18C631
18C631
20C631
20C631
C039CE
C039CE
ENDCHAR
STARTCHAR 2032
ENCODING 8242
SWIDTH 308 0
DWIDTH 6 0
BBX 3 5 0 13
BITMAP
20
20
20
C0
C0
ENDCHAR
STARTCHAR 2033
ENCODING 8243
SWIDTH 514 0
DWIDTH 10 0
BBX 7 5 0 13
BITMAP
26
26
26
D8
D8
ENDCHAR
STARTCHAR 2034
ENCODING 8244
SWIDTH 668 0
DWIDTH 13 0
BBX 10 5 0 13
BITMAP
26C0
26C0
26C0
D900
D900
ENDCHAR
STARTCHAR 2035
ENCODING 8245
SWIDTH 360 0
DWIDTH 7 0
BBX 3 5 2 13
BITMAP
C0
C0
C0
20
20
ENDCHAR
STARTCHAR 2036
ENCODING 8246
SWIDTH 514 0
DWIDTH 10 0
BBX 7 5 2 13
BITMAP
D8
D8
D8
26
26
ENDCHAR
STARTCHAR 2037
ENCODING 8247
SWIDTH 720 0
DWIDTH 14 0
BBX 10 5 2 13
BITMAP
D900
D900
D900
26C0
26C0
ENDCHAR
STARTCHAR 2038
ENCODING 8248
SWIDTH 514 0
DWIDTH 10 0
BBX 8 5 0 0
BITMAP
18
18
26
C1
C1
ENDCHAR
STARTCHAR 2039
ENCODING 8249
SWIDTH 360 0
DWIDTH 7 0
BBX 5 8 0 3
BITMAP
18
20
20
C0
C0
20
18
18
ENDCHAR
STARTCHAR 203A
ENCODING 8250
SWIDTH 360 0
DWIDTH 7 0
BBX 5 8 0 3
BITMAP
C0
20
20
18
18
20
C0
C0
ENDCHAR
STARTCHAR 203B
ENCODING 8251
SWIDTH 1028 0
DWIDTH 20 0
BBX 15 15 2 1
BITMAP
C106
2108
2108
1830
1EF0
06C0
E10E
E10E
06C0
1830
1830
2108
2108
C106
C106
ENDCHAR
STARTCHAR 203C
ENCODING 8252
SWIDTH 617 0
DWIDTH 12 0
BBX 7 18 2 0
BITMAP
C6
C6
C6
C6
C6
C6
C6
C6
C6
C6
C6
C6
C6
00
00
C6
C6
C6
ENDCHAR
STARTCHAR 203D
ENCODING 8253
SWIDTH 514 0
DWIDTH 10 0
BBX 8 18 0 0
BITMAP
3E
3E
C1
D9
D9
19
1E
1E
18
18
18
18
18
00
00
18
18
18
ENDCHAR
STARTCHAR 2043
ENCODING 8259
SWIDTH 411 0
DWIDTH 8 0
BBX 7 2 0 8
BITMAP
FE
FE
ENDCHAR
STARTCHAR 2044
ENCODING 8260
SWIDTH 514 0
DWIDTH 10 0
BBX 8 18 0 0
BITMAP
01
01
01
06
06
06
00
18
18
18
18
18
20
20
20
C0
C0
C0
ENDCHAR
STARTCHAR 2045
ENCODING 8261
SWIDTH 360 0
DWIDTH 7 0
BBX 5 18 0 0
BITMAP
F8
F8
C0
C0
C0
C0
C0
C0
F8
F8
C0
C0
C0
C0
C0
C0
F8
F8
ENDCHAR
STARTCHAR 2046
ENCODING 8262
SWIDTH 308 0
DWIDTH 6 0
BBX 5 18 0 0
BITMAP
F8
F8
18
18
18
18
18
18
F8
F8
18
18
18
18
18
18
F8
F8
ENDCHAR
STARTCHAR 2047
ENCODING 8263
SWIDTH 1028 0
DWIDTH 20 0
BBX 18 18 0 0
BITMAP
3E0F00
3E0F00
C130C0
C130C0
C130C0
0100C0
060100
060100
180600
180600
180600
180600
180600
000000
000000
180600
180600
180600
ENDCHAR
STARTCHAR 2048
ENCODING 8264
SWIDTH 822 0
DWIDTH 16 0
BBX 13 18 0 0
BITMAP
3E18
3E18
C118
C118
C118
0118
0618
0618
1818
1818
1818
1818
1818
0000
0000
1818
1818
1818
ENDCHAR
STARTCHAR 2049
ENCODING 8265
SWIDTH 874 0
DWIDTH 17 0
BBX 13 18 2 0
BITMAP
C1E0
C1E0
C618
C618
C618
C018
C020
C020
C0C0
C0C0
C0C0
C0C0
C0C0
0000
0000
C0C0
C0C0
C0C0
ENDCHAR
STARTCHAR 204B
ENCODING 8267
SWIDTH 565 0
DWIDTH 11 0
BBX 10 18 0 0
BITMAP
FF00
FF00
DFC0
DFC0
DFC0
DFC0
DFC0
DF00
DF00
D800
D800
D800
D800
D800
D800
D800
D800
D800
ENDCHAR
STARTCHAR 2057
ENCODING 8279
SWIDTH 822 0
DWIDTH 16 0
BBX 13 5 0 13
BITMAP
26C8
26C8
26C8
D930
D930
ENDCHAR
STARTCHAR 20A1
ENCODING 8353
SWIDTH 668 0
DWIDTH 13 0
BBX 12 18 0 0
BITMAP
00C0
00C0
1F00
21C0
21C0
C130
C130
C600
C600
C600
C600
D830
D830
38C0
38C0
1F00
2000
2000
ENDCHAR
STARTCHAR 20A4
ENCODING 8356
SWIDTH 771 0
DWIDTH 15 0
BBX 13 15 0 2
BITMAP
07C0
07C0
1820
1820
1820
1800
1800
3FC0
3FC0
0600
3E18
3E18
C618
39E0
39E0
ENDCHAR
STARTCHAR 20A9
ENCODING 8361
SWIDTH 1028 0
DWIDTH 20 0
BBX 18 14 0 2
BITMAP
304180
304180
304180
FFFFC0
FFFFC0
304180
FFFFC0
FFFFC0
09B200
09B200
09B200
060C00
060C00
060C00
ENDCHAR
STARTCHAR 20AC
ENCODING 8364
SWIDTH 771 0
DWIDTH 15 0
BBX 14 15 0 2
BITMAP
07F0
07F0
080C
080C
3000
FFC0
FFC0
3000
3000
FFC0
FFC0
3000
080C
07F0
07F0
ENDCHAR
STARTCHAR 20B1
ENCODING 8369
SWIDTH 874 0
DWIDTH 17 0
BBX 15 18 0 0
BITMAP
3FC0
3FC0
3030
FFFE
FFFE
300C
FFFE
FFFE
3030
3030
3FC0
3FC0
3000
3000
3000
3000
3000
3000
ENDCHAR
STARTCHAR 20B9
ENCODING 8377
SWIDTH 668 0
DWIDTH 13 0
BBX 11 18 0 0
BITMAP
FFE0
FFE0
0400
0300
0300
FFE0
FFE0
0300
0400
0400
F800
F800
2000
1800
1800
0400
0300
0300
ENDCHAR
STARTCHAR 20BD
ENCODING 8381
SWIDTH 874 0
DWIDTH 17 0
BBX 14 18 0 0
BITMAP
3FC0
3FC0
3030
300C
300C
300C
300C
300C
3030
3030
FFC0
FFC0
3000
FF00
FF00
3000
3000
3000
ENDCHAR
STARTCHAR 2103
ENCODING 8451
SWIDTH 977 0
DWIDTH 19 0
BBX 18 18 0 0
BITMAP
200000
200000
D8FC00
D8FC00
230300
0400C0
0400C0
040000
040000
040000
040000
040000
040000
0400C0
0400C0
030300
03FF00
00FC00
ENDCHAR
STARTCHAR 2109
ENCODING 8457
SWIDTH 925 0
DWIDTH 18 0
BBX 16 18 0 0
BITMAP
2000
2000
DBFF
2300
2300
0300
0300
0300
03FF
03FF
0300
0300
0300
0300
0300
0300
0300
0300
ENDCHAR
STARTCHAR 2116
ENCODING 8470
SWIDTH 977 0
DWIDTH 19 0
BBX 18 18 0 0
BITMAP
C30000
C30000
C30000
E30000
E30000
E30C00
E30C00
DB3300
DB3300
DB3300
DB3300
DB3300
C73300
C73300
C73300
C33300
C33FC0
C30CC0
ENDCHAR
STARTCHAR 2121
ENCODING 8481
SWIDTH 977 0
DWIDTH 19 0
BBX 18 18 0 0
BITMAP
FBE600
FBE600
630600
630600
630600
630600
630600
630600
63E600
63E600
630600
630600
630600
630600
630600
630600
63E7C0
63E7C0
ENDCHAR
STARTCHAR 2122
ENCODING 8482
SWIDTH 977 0
DWIDTH 19 0
BBX 18 6 0 12
BITMAP
FF30C0
FF30C0
1839C0
1836C0
1836C0
1830C0
ENDCHAR
STARTCHAR 2150
ENCODING 8528
SWIDTH 1028 0
DWIDTH 20 0
BBX 16 18 2 0
BITMAP
E000
E000
2006
2008
2008
2030
20F0
20C0
213F
213F
0601
1806
1806
2006
2006
C008
C008
0008
ENDCHAR
STARTCHAR 2151
ENCODING 8529
SWIDTH 1028 0
DWIDTH 20 0
BBX 16 18 2 0
BITMAP
E000
E000
2006
2008
2008
2030
20F0
20C0
210E
210E
0631
1831
1831
200F
200F
C001
000E
000E
ENDCHAR
STARTCHAR 2152
ENCODING 8530
SWIDTH 1028 0
DWIDTH 20 0
BBX 16 18 2 0
BITMAP
E000
E000
2006
2008
2008
2030
20F0
20C0
2100
2100
06C6
18C9
18C9
20C9
20C9
C0C9
00C6
00C6
ENDCHAR
STARTCHAR 2153
ENCODING 8531
SWIDTH 1028 0
DWIDTH 20 0
BBX 16 18 2 0
BITMAP
E000
E000
2006
2008
2008
2030
20F0
20C0
213E
213E
0601
180E
180E
2001
2001
C001
003E
003E
ENDCHAR
STARTCHAR 2154
ENCODING 8532
SWIDTH 1028 0
DWIDTH 20 0
BBX 18 18 0 0
BITMAP
F80000
F80000
060100
180600
180600
200800
E03800
C03000
FECF00
FECF00
0100C0
060700
060700
1800C0
1800C0
2000C0
000F00
000F00
ENDCHAR
STARTCHAR 2155
ENCODING 8533
SWIDTH 1028 0
DWIDTH 20 0
BBX 16 18 2 0
BITMAP
E000
E000
2006
2008
2008
2030
20F0
20C0
213F
213F
0630
183E
183E
2001
2001
C001
003E
003E
ENDCHAR
STARTCHAR 2156
ENCODING 8534
SWIDTH 1028 0
DWIDTH 20 0
BBX 18 18 0 0
BITMAP
F80000
F80000
060100
180600
180600
200800
E03800
C03000
FECFC0
FECFC0
010800
060F00
060F00
1800C0
1800C0
2000C0
000F00
000F00
ENDCHAR
STARTCHAR 2157
ENCODING 8535
SWIDTH 1028 0
DWIDTH 20 0
BBX 18 18 0 0
BITMAP
F80000
F80000
060100
780600
780600
060800
063800
063000
F8CFC0
F8CFC0
010800
060F00
060F00
1800C0
1800C0
6000C0
000F00
000F00
ENDCHAR
STARTCHAR 2158
ENCODING 8536
SWIDTH 1028 0
DWIDTH 20 0
BBX 18 18 0 0
BITMAP
060000
060000
1E0100
260600
260600
C60800
FF3800
FF3000
06CFC0
06CFC0
010800
060F00
060F00
1800C0
1800C0
2000C0
000F00
000F00
ENDCHAR
STARTCHAR 2159
ENCODING 8537
SWIDTH 1028 0
DWIDTH 20 0
BBX 16 18 2 0
BITMAP
E000
E000
2006
2008
2008
2030
20F0
20C0
210E
210E
0630
183E
183E
2031
2031
C031
000E
000E
ENDCHAR
STARTCHAR 215A
ENCODING 8538
SWIDTH 1028 0
DWIDTH 20 0
BBX 18 18 0 0
BITMAP
FE0000
FE0000
C00100
F80600
F80600
060800
063800
063000
F8C700
F8C700
010800
060F00
060F00
1808C0
1808C0
2008C0
000700
000700
ENDCHAR
STARTCHAR 215B
ENCODING 8539
SWIDTH 1028 0
DWIDTH 20 0
BBX 16 18 2 0
BITMAP
E000
E000
2006
2008
2008
2030
20F0
20C0
210E
210E
0631
180E
180E
2031
2031
C031
000E
000E
ENDCHAR
STARTCHAR 215C
ENCODING 8540
SWIDTH 1028 0
DWIDTH 20 0
BBX 18 18 0 0
BITMAP
F80000
F80000
060100
780600
780600
060800
063800
063000
F8C700
F8C700
0108C0
060700
060700
1808C0
1808C0
6008C0
000700
000700
ENDCHAR
STARTCHAR 215D
ENCODING 8541
SWIDTH 1028 0
DWIDTH 20 0
BBX 18 18 0 0
BITMAP
FE0000
FE0000
C00100
F80600
F80600
060800
063800
063000
F8C700
F8C700
0108C0
060700
060700
1808C0
1808C0
2008C0
000700
000700
ENDCHAR
STARTCHAR 215E
ENCODING 8542
SWIDTH 1028 0
DWIDTH 20 0
BBX 16 18 2 0
BITMAP
FE00
FE00
0606
1808
1808
1830
38F0
20C0
210E
210E
0631
180E
180E
2031
2031
C031
000E
000E
ENDCHAR
STARTCHAR 215F
ENCODING 8543
SWIDTH 1028 0
DWIDTH 20 0
BBX 15 17 2 1
BITMAP
E000
E000
2006
2008
2008
2030
20F0
20C0
2100
2100
0600
1800
1800
2000
2000
C000
C000
ENDCHAR
STARTCHAR 2160
ENCODING 8544
SWIDTH 360 0
DWIDTH 7 0
BBX 5 18 0 0
BITMAP
F8
F8
60
60
60
60
60
60
60
60
60
60
60
60
60
60
F8
F8
ENDCHAR
STARTCHAR 2161
ENCODING 8545
SWIDTH 514 0
DWIDTH 10 0
BBX 9 18 0 0
BITMAP
FF80
FF80
3200
3200
3200
3200
3200
3200
3200
3200
3200
3200
3200
3200
3200
3200
FF80
FF80
ENDCHAR
STARTCHAR 2162
ENCODING 8546
SWIDTH 668 0
DWIDTH 13 0
BBX 12 18 0 0
BITMAP
FFF0
FFF0
36C0
36C0
36C0
36C0
36C0
36C0
36C0
36C0
36C0
36C0
36C0
36C0
36C0
36C0
FFF0
FFF0
ENDCHAR
STARTCHAR 2163
ENCODING 8547
SWIDTH 925 0
DWIDTH 18 0
BBX 16 18 0 0
BITMAP
FE01
FE01
6601
6601
6601
6106
6106
6106
6106
6106
60C8
60C8
60C8
60C8
60C8
6030
F830
F830
ENDCHAR
STARTCHAR 2164
ENCODING 8548
SWIDTH 668 0
DWIDTH 13 0
BBX 12 18 0 0
BITMAP
C030
C030
C030
C030
C030
20C0
20C0
20C0
20C0
20C0
1900
1900
1900
1900
1900
0600
0600
0600
ENDCHAR
STARTCHAR 2165
ENCODING 8549
SWIDTH 925 0
DWIDTH 18 0
BBX 16 18 0 0
BITMAP
C03F
C03F
C036
C036
C036
20C6
20C6
20C6
20C6
20C6
1906
1906
1906
1906
1906
0606
060F
060F
ENDCHAR
STARTCHAR 2166
ENCODING 8550
SWIDTH 1080 0
DWIDTH 21 0
BBX 20 18 0 0
BITMAP
C03FF0
C03FF0
C036C0
C036C0
C036C0
20C6C0
20C6C0
20C6C0
20C6C0
20C6C0
1906C0
1906C0
1906C0
1906C0
1906C0
0606C0
060FF0
060FF0
ENDCHAR
STARTCHAR 2167
ENCODING 8551
SWIDTH 1234 0
DWIDTH 24 0
BBX 23 18 0 0
BITMAP
C03FFE
C03FFE
C036D8
C036D8
C036D8
20C6D8
20C6D8
20C6D8
20C6D8
20C6D8
1906D8
1906D8
1906D8
1906D8
1906D8
0606D8
060FFE
060FFE
ENDCHAR
STARTCHAR 2168
ENCODING 8552
SWIDTH 925 0
DWIDTH 18 0
BBX 17 18 0 0
BITMAP
FE0180
FE0180
318200
318200
318200
304C00
304C00
304C00
303000
303000
304C00
304C00
304C00
318200
318200
318200
FE0180
FE0180
ENDCHAR
STARTCHAR 2169
ENCODING 8553
SWIDTH 668 0
DWIDTH 13 0
BBX 12 18 0 0
BITMAP
C030
C030
20C0
20C0
20C0
1900
1900
1900
0600
0600
1900
1900
1900
20C0
20C0
20C0
C030
C030
ENDCHAR
STARTCHAR 216A
ENCODING 8554
SWIDTH 925 0
DWIDTH 18 0
BBX 16 18 0 0
BITMAP
C03F
C03F
20C6
20C6
20C6
1906
1906
1906
0606
0606
1906
1906
1906
20C6
20C6
20C6
C03F
C03F
ENDCHAR
STARTCHAR 216B
ENCODING 8555
SWIDTH 1080 0
DWIDTH 21 0
BBX 20 18 0 0
BITMAP
C03FF0
C03FF0
20C6C0
20C6C0
20C6C0
1906C0
1906C0
1906C0
0606C0
0606C0
1906C0
1906C0
1906C0
20C6C0
20C6C0
20C6C0
C03FF0
C03FF0
ENDCHAR
STARTCHAR 216C
ENCODING 8556
SWIDTH 565 0
DWIDTH 11 0
BBX 10 18 0 0
BITMAP
C000
C000
C000
C000
C000
C000
C000
C000
C000
C000
C000
C000
C000
C000
C000
C000
FFC0
FFC0
ENDCHAR
STARTCHAR 216D
ENCODING 8557
SWIDTH 771 0
DWIDTH 15 0
BBX 13 18 0 0
BITMAP
1FC0
1FC0
2030
C008
C008
C000
C000
C000
C000
C000
C000
C000
C000
C008
C008
2030
1FC0
1FC0
ENDCHAR
STARTCHAR 216E
ENCODING 8558
SWIDTH 668 0
DWIDTH 13 0
BBX 12 18 0 0
BITMAP
FF00
FF00
C0C0
C030
C030
C030
C030
C030
C030
C030
C030
C030
C030
C030
C030
C0C0
FF00
FF00
ENDCHAR
STARTCHAR 216F
ENCODING 8559
SWIDTH 822 0
DWIDTH 16 0
BBX 15 18 0 0
BITMAP
C006
C006
E00E
E00E
E00E
D836
D836
D836
D836
D836
C6C6
C6C6
C6C6
C6C6
C6C6
C106
C106
C106
ENDCHAR
STARTCHAR 2170
ENCODING 8560
SWIDTH 360 0
DWIDTH 7 0
BBX 2 16 2 0
BITMAP
C0
C0
00
C0
C0
C0
C0
C0
C0
C0
C0
C0
C0
C0
C0
C0
ENDCHAR
STARTCHAR 2171
ENCODING 8561
SWIDTH 360 0
DWIDTH 7 0
BBX 5 16 0 0
BITMAP
D8
D8
00
D8
D8
D8
D8
D8
D8
D8
D8
D8
D8
D8
D8
D8
ENDCHAR
STARTCHAR 2172
ENCODING 8562
SWIDTH 514 0
DWIDTH 10 0
BBX 8 16 0 0
BITMAP
D9
D9
00
D9
D9
D9
D9
D9
D9
D9
D9
D9
D9
D9
D9
D9
ENDCHAR
STARTCHAR 2173
ENCODING 8563
SWIDTH 822 0
DWIDTH 16 0
BBX 15 16 0 0
BITMAP
C000
C000
0000
D806
D806
D806
C608
C608
C608
C000
C130
C130
C130
C0C0
C0C0
C0C0
ENDCHAR
STARTCHAR 2174
ENCODING 8564
SWIDTH 668 0
DWIDTH 13 0
BBX 12 13 0 0
BITMAP
C030
C030
C030
20C0
20C0
20C0
0000
1900
1900
1900
0600
0600
0600
ENDCHAR
STARTCHAR 2175
ENCODING 8565
SWIDTH 822 0
DWIDTH 16 0
BBX 15 16 0 0
BITMAP
0006
0006
0000
C036
C036
C036
20C6
20C6
20C6
0006
1906
1906
1906
0606
0606
0606
ENDCHAR
STARTCHAR 2176
ENCODING 8566
SWIDTH 1028 0
DWIDTH 20 0
BBX 18 16 0 0
BITMAP
0006C0
0006C0
000000
C036C0
C036C0
C036C0
20C6C0
20C6C0
20C6C0
0006C0
1906C0
1906C0
1906C0
0606C0
0606C0
0606C0
ENDCHAR
STARTCHAR 2177
ENCODING 8567
SWIDTH 1182 0
DWIDTH 23 0
BBX 21 16 0 0
BITMAP
0006D8
0006D8
000000
C036D8
C036D8
C036D8
20C6D8
20C6D8
20C6D8
0006D8
1906D8
1906D8
1906D8
0606D8
0606D8
0606D8
ENDCHAR
STARTCHAR 2178
ENCODING 8568
SWIDTH 822 0
DWIDTH 16 0
BBX 15 16 0 0
BITMAP
C000
C000
0000
D806
DE0E
C608
C130
C130
C0C0
C0C0
C0C0
C130
C130
C608
D806
D806
ENDCHAR
STARTCHAR 2179
ENCODING 8569
SWIDTH 668 0
DWIDTH 13 0
BBX 12 13 0 0
BITMAP
C030
E0F0
20C0
1900
1900
0600
0600
0600
1900
1900
20C0
C030
C030
ENDCHAR
STARTCHAR 217A
ENCODING 8570
SWIDTH 822 0
DWIDTH 16 0
BBX 15 16 0 0
BITMAP
0006
0006
0000
C036
E0F6
20C6
1906
1906
0606
0606
0606
1906
1906
20C6
C036
C036
ENDCHAR
STARTCHAR 217B
ENCODING 8571
SWIDTH 1028 0
DWIDTH 20 0
BBX 18 16 0 0
BITMAP
0006C0
0006C0
000000
C036C0
E0F6C0
20C6C0
1906C0
1906C0
0606C0
0606C0
0606C0
1906C0
1906C0
20C6C0
C036C0
C036C0
ENDCHAR
STARTCHAR 217C
ENCODING 8572
SWIDTH 360 0
DWIDTH 7 0
BBX 2 18 2 0
BITMAP
C0
C0
C0
C0
C0
C0
C0
C0
C0
C0
C0
C0
C0
C0
C0
C0
C0
C0
ENDCHAR
STARTCHAR 217D
ENCODING 8573
SWIDTH 565 0
DWIDTH 11 0
BBX 10 13 0 0
BITMAP
1F00
3FC0
20C0
C000
C000
C000
C000
C000
C000
C000
20C0
1F00
1F00
ENDCHAR
STARTCHAR 217E
ENCODING 8574
SWIDTH 668 0
DWIDTH 13 0
BBX 12 18 0 0
BITMAP
0030
0030
0030
0030
0030
1F30
3FF0
20F0
C030
C030
C030
C030
C030
C030
C030
20F0
1F30
1F30
ENDCHAR
STARTCHAR 217F
ENCODING 8575
SWIDTH 822 0
DWIDTH 16 0
BBX 15 13 0 0
BITMAP
DC38
FFFE
E3C6
C306
C306
C306
C306
C306
C306
C306
C306
C306
C306
ENDCHAR
STARTCHAR 2180
ENCODING 8576
SWIDTH 1028 0
DWIDTH 20 0
BBX 18 18 0 0
BITMAP
1FFE00
1FFE00
20C100
C0C0C0
C0C0C0
C0C0C0
C0C0C0
C0C0C0
C0C0C0
C0C0C0
C0C0C0
C0C0C0
C0C0C0
C0C0C0
C0C0C0
20C100
1FFE00
1FFE00
ENDCHAR
STARTCHAR 2181
ENCODING 8577
SWIDTH 977 0
DWIDTH 19 0
BBX 12 18 3 0
BITMAP
FF00
FF00
C0C0
FE30
FE30
C130
C130
C130
C130
C130
C130
C130
C130
FE30
FE30
C0C0
FF00
FF00
ENDCHAR
STARTCHAR 2182
ENCODING 8578
SWIDTH 1028 0
DWIDTH 20 0
BBX 18 18 0 0
BITMAP
1FFE00
1FFE00
20C100
C7F8C0
C7F8C0
D8C6C0
D8C6C0
D8C6C0
D8C6C0
D8C6C0
D8C6C0
D8C6C0
D8C6C0
C7F8C0
C7F8C0
20C100
1FFE00
1FFE00
ENDCHAR
STARTCHAR 2189
ENCODING 8585
SWIDTH 1028 0
DWIDTH 20 0
BBX 18 18 0 0
BITMAP
380000
380000
C60100
C60600
C60600
C60800
C63800
C63000
38CF00
38CF00
0100C0
060700
060700
1800C0
1800C0
2000C0
000F00
000F00
ENDCHAR
STARTCHAR 2190
ENCODING 8592
SWIDTH 977 0
DWIDTH 19 0
BBX 15 12 1 3
BITMAP
0600
0600
0800
0800
3000
FFFE
FFFE
3000
3000
0800
0600
0600
ENDCHAR
STARTCHAR 2191
ENCODING 8593
SWIDTH 977 0
DWIDTH 19 0
BBX 12 15 3 1
BITMAP
0600
0600
0F80
36C0
36C0
C630
0600
0600
0600
0600
0600
0600
0600
0600
0600
ENDCHAR
STARTCHAR 2192
ENCODING 8594
SWIDTH 977 0
DWIDTH 19 0
BBX 15 12 1 3
BITMAP
0040
0040
0030
0030
0008
FFFE
FFFE
0008
0008
0030
0040
0040
ENDCHAR
STARTCHAR 2193
ENCODING 8595
SWIDTH 977 0
DWIDTH 19 0
BBX 12 15 3 1
BITMAP
0600
0600
0600
0600
0600
0600
0600
0600
C630
C630
36C0
0F80
0F80
0600
0600
ENDCHAR
STARTCHAR 2194
ENCODING 8596
SWIDTH 977 0
DWIDTH 19 0
BBX 18 12 0 3
BITMAP
041800
041800
180600
180600
200100
FFFFC0
FFFFC0
200100
200100
180600
041800
041800
ENDCHAR
STARTCHAR 2195
ENCODING 8597
SWIDTH 977 0
DWIDTH 19 0
BBX 12 18 3 0
BITMAP
0600
0600
0F80
0F80
36C0
C630
C630
0600
0600
0600
0600
C630
C630
36C0
36C0
0F80
0F80
0600
ENDCHAR
STARTCHAR 2196
ENCODING 8598
SWIDTH 977 0
DWIDTH 19 0
BBX 12 12 3 3
BITMAP
FF80
FF80
F000
F800
D800
C600
C600
C180
C180
0040
0030
0030
ENDCHAR
STARTCHAR 2197
ENCODING 8599
SWIDTH 977 0
DWIDTH 19 0
BBX 12 12 3 3
BITMAP
1FF0
1FF0
00F0
01F0
01B0
0630
0630
1830
1830
2000
C000
C000
ENDCHAR
STARTCHAR 2198
ENCODING 8600
SWIDTH 977 0
DWIDTH 19 0
BBX 12 12 3 3
BITMAP
C000
C000
2000
1830
1830
0630
0630
01B0
01F0
00F0
1FF0
1FF0
ENDCHAR
STARTCHAR 2199
ENCODING 8601
SWIDTH 977 0
DWIDTH 19 0
BBX 12 12 3 3
BITMAP
0030
0030
0040
C180
C180
C600
C600
D800
F800
F000
FF80
FF80
ENDCHAR
STARTCHAR 219A
ENCODING 8602
SWIDTH 977 0
DWIDTH 19 0
BBX 15 8 1 5
BITMAP
0800
0800
3030
FFFE
FFFE
3040
3840
0800
ENDCHAR
STARTCHAR 219B
ENCODING 8603
SWIDTH 977 0
DWIDTH 19 0
BBX 15 8 1 5
BITMAP
0030
0030
0608
FFFE
FFFE
0808
0838
0030
ENDCHAR
STARTCHAR 219C
ENCODING 8604
SWIDTH 977 0
DWIDTH 19 0
BBX 17 7 1 6
BITMAP
FE0000
F03800
F03800
D8C600
D8C600
C70180
C70180
ENDCHAR
STARTCHAR 219D
ENCODING 8605
SWIDTH 977 0
DWIDTH 19 0
BBX 16 7 0 6
BITMAP
003F
1C07
1C07
231B
231B
C0E3
C0E3
ENDCHAR
STARTCHAR 219E
ENCODING 8606
SWIDTH 977 0
DWIDTH 19 0
BBX 15 8 1 5
BITMAP
0980
0980
3600
FFFE
FFFE
3600
3F80
0980
ENDCHAR
STARTCHAR 219F
ENCODING 8607
SWIDTH 977 0
DWIDTH 19 0
BBX 8 15 5 1
BITMAP
18
18
3E
DB
DB
3E
DB
DB
18
18
18
18
18
18
18
ENDCHAR
STARTCHAR 21A0
ENCODING 8608
SWIDTH 977 0
DWIDTH 19 0
BBX 15 8 1 5
BITMAP
01B0
01B0
0048
FFFE
FFFE
0048
01F8
01B0
ENDCHAR
STARTCHAR 21A1
ENCODING 8609
SWIDTH 977 0
DWIDTH 19 0
BBX 8 15 5 1
BITMAP
18
18
18
18
18
18
DB
DB
3E
3E
DB
3E
3E
18
18
ENDCHAR
STARTCHAR 21A2
ENCODING 8610
SWIDTH 977 0
DWIDTH 19 0
BBX 14 8 2 5
BITMAP
180C
180C
6010
FFE0
FFE0
6010
781C
180C
ENDCHAR
STARTCHAR 21A3
ENCODING 8611
SWIDTH 977 0
DWIDTH 19 0
BBX 15 8 1 5
BITMAP
C030
C030
3008
0FFE
0FFE
3008
C030
C030
ENDCHAR
STARTCHAR 21A4
ENCODING 8612
SWIDTH 977 0
DWIDTH 19 0
BBX 15 8 2 5
BITMAP
1806
1806
6006
FFFE
FFFE
6006
6006
1806
ENDCHAR
STARTCHAR 21A5
ENCODING 8613
SWIDTH 977 0
DWIDTH 19 0
BBX 8 15 5 1
BITMAP
18
18
7C
9B
9B
18
18
18
18
18
18
18
18
FF
FF
ENDCHAR
STARTCHAR 21A6
ENCODING 8614
SWIDTH 977 0
DWIDTH 19 0
BBX 15 8 1 5
BITMAP
C030
C030
C008
FFFE
FFFE
C008
C008
C030
ENDCHAR
STARTCHAR 21A7
ENCODING 8615
SWIDTH 977 0
DWIDTH 19 0
BBX 8 15 5 1
BITMAP
FF
FF
18
18
18
18
18
18
18
9B
9B
7C
7C
18
18
ENDCHAR
STARTCHAR 21A8
ENCODING 8616
SWIDTH 977 0
DWIDTH 19 0
BBX 8 18 5 0
BITMAP
18
18
7C
9B
9B
18
18
18
18
18
18
9B
9B
7C
7C
18
FF
FF
ENDCHAR
STARTCHAR 21A9
ENCODING 8617
SWIDTH 977 0
DWIDTH 19 0
BBX 18 15 0 3
BITMAP
000100
000100
0000C0
0000C0
0400C0
1800C0
1800C0
200100
FFFE00
FFFE00
200000
200000
180000
040000
040000
ENDCHAR
STARTCHAR 21AA
ENCODING 8618
SWIDTH 977 0
DWIDTH 19 0
BBX 18 15 0 3
BITMAP
200000
200000
C00000
C00000
C00800
C00600
C00600
200100
1FFFC0
1FFFC0
000100
000100
000600
000800
000800
ENDCHAR
STARTCHAR 21AB
ENCODING 8619
SWIDTH 1080 0
DWIDTH 21 0
BBX 19 15 0 2
BITMAP
0007C0
0007C0
041820
041820
181820
181820
201820
FFFFC0
FFFFC0
201800
201800
181800
041800
041800
001800
ENDCHAR
STARTCHAR 21AC
ENCODING 8620
SWIDTH 977 0
DWIDTH 19 0
BBX 18 15 0 2
BITMAP
3C0000
3C0000
C31800
C31800
C30400
C30400
C30300
3FFFC0
3FFFC0
030300
030300
030400
031800
031800
030000
ENDCHAR
STARTCHAR 21AD
ENCODING 8621
SWIDTH 977 0
DWIDTH 19 0
BBX 18 8 0 5
BITMAP
180600
180600
20C100
FCCFC0
FCCFC0
233100
180600
180600
ENDCHAR
STARTCHAR 21AE
ENCODING 8622
SWIDTH 977 0
DWIDTH 19 0
BBX 18 8 0 5
BITMAP
180600
180600
202100
FFFFC0
FFFFC0
230100
180600
180600
ENDCHAR
STARTCHAR 21AF
ENCODING 8623
SWIDTH 977 0
DWIDTH 19 0
BBX 12 18 5 0
BITMAP
C000
C000
C000
C000
C000
C300
C700
C700
DB00
DB00
E300
E300
C300
1B30
1B30
07C0
07C0
0300
ENDCHAR
STARTCHAR 21B0
ENCODING 8624
SWIDTH 977 0
DWIDTH 19 0
BBX 15 14 2 2
BITMAP
0C00
1000
1000
6000
FFFE
FFFE
6006
6006
1006
0C06
0C06
0006
0006
0006
ENDCHAR
STARTCHAR 21B1
ENCODING 8625
SWIDTH 977 0
DWIDTH 19 0
BBX 15 14 1 2
BITMAP
00C0
0030
0030
000C
FFFE
FFFE
C00C
C00C
C030
C0C0
C0C0
C000
C000
C000
ENDCHAR
STARTCHAR 21B2
ENCODING 8626
SWIDTH 977 0
DWIDTH 19 0
BBX 15 15 2 1
BITMAP
0006
0006
0006
0C06
1006
1006
6006
6006
FFFE
FFFE
6000
1000
1000
0C00
0C00
ENDCHAR
STARTCHAR 21B3
ENCODING 8627
SWIDTH 977 0
DWIDTH 19 0
BBX 15 15 1 1
BITMAP
C000
C000
C000
C0C0
C030
C030
C00C
C00C
FFFE
FFFE
000C
0030
0030
00C0
00C0
ENDCHAR
STARTCHAR 21B4
ENCODING 8628
SWIDTH 977 0
DWIDTH 19 0
BBX 14 15 2 1
BITMAP
FFC0
FFC0
00C0
00C0
00C0
00C0
00C0
00C0
18C4
18C4
04D8
03E0
03E0
00C0
00C0
ENDCHAR
STARTCHAR 21B5
ENCODING 8629
SWIDTH 977 0
DWIDTH 19 0
BBX 15 15 2 1
BITMAP
0006
0006
0006
0C06
1006
1006
6006
6006
FFFE
FFFE
6000
1000
1000
0C00
0C00
ENDCHAR
STARTCHAR 21B6
ENCODING 8630
SWIDTH 977 0
DWIDTH 19 0
BBX 18 14 0 2
BITMAP
00FC00
00FC00
010300
0600C0
0600C0
0600C0
0600C0
0600C0
C62000
26C000
26C000
1F0000
1F0000
060000
ENDCHAR
STARTCHAR 21B7
ENCODING 8631
SWIDTH 977 0
DWIDTH 19 0
BBX 18 14 0 2
BITMAP
1F8000
1F8000
206000
C01800
C01800
C01800
C01800
C01800
0318C0
009B00
009B00
007E00
007E00
001800
ENDCHAR
STARTCHAR 21B8
ENCODING 8632
SWIDTH 977 0
DWIDTH 19 0
BBX 15 15 1 1
BITMAP
FFFE
FFFE
0000
FE00
FE00
F000
D800
D800
C600
0180
0180
0040
0040
0030
0030
ENDCHAR
STARTCHAR 21B9
ENCODING 8633
SWIDTH 977 0
DWIDTH 19 0
BBX 15 14 1 2
BITMAP
C600
DE00
D800
FFFE
FFFE
D800
C6C6
C6C6
0036
0036
FFFE
0036
0036
00C6
ENDCHAR
STARTCHAR 21BA
ENCODING 8634
SWIDTH 977 0
DWIDTH 19 0
BBX 15 17 1 1
BITMAP
00FE
00FE
18F0
18F0
20CC
C0C2
C002
C002
C002
C002
C002
C002
C002
200C
200C
1FF0
1FF0
ENDCHAR
STARTCHAR 21BB
ENCODING 8635
SWIDTH 977 0
DWIDTH 19 0
BBX 15 17 1 1
BITMAP
FE00
FE00
0E30
0E30
3208
C206
C006
C006
C006
C006
C006
C006
C006
3008
3008
0FF0
0FF0
ENDCHAR
STARTCHAR 21BC
ENCODING 8636
SWIDTH 977 0
DWIDTH 19 0
BBX 15 7 1 8
BITMAP
0600
0600
0800
0800
3000
FFFE
FFFE
ENDCHAR
STARTCHAR 21BD
ENCODING 8637
SWIDTH 977 0
DWIDTH 19 0
BBX 15 7 1 3
BITMAP
FFFE
FFFE
3000
3000
0800
0600
0600
ENDCHAR
STARTCHAR 21BE
ENCODING 8638
SWIDTH 977 0
DWIDTH 19 0
BBX 7 15 8 1
BITMAP
C0
C0
E0
D8
D8
C6
C0
C0
C0
C0
C0
C0
C0
C0
C0
ENDCHAR
STARTCHAR 21BF
ENCODING 8639
SWIDTH 977 0
DWIDTH 19 0
BBX 7 15 3 1
BITMAP
06
06
0E
36
36
C6
06
06
06
06
06
06
06
06
06
ENDCHAR
STARTCHAR 21C0
ENCODING 8640
SWIDTH 977 0
DWIDTH 19 0
BBX 15 7 1 8
BITMAP
0040
0040
0030
0030
0008
FFFE
FFFE
ENDCHAR
STARTCHAR 21C1
ENCODING 8641
SWIDTH 977 0
DWIDTH 19 0
BBX 15 7 1 3
BITMAP
FFFE
FFFE
0008
0008
0030
0040
0040
ENDCHAR
STARTCHAR 21C2
ENCODING 8642
SWIDTH 977 0
DWIDTH 19 0
BBX 7 15 8 1
BITMAP
C0
C0
C0
C0
C0
C0
C0
C0
C6
C6
D8
E0
E0
C0
C0
ENDCHAR
STARTCHAR 21C3
ENCODING 8643
SWIDTH 977 0
DWIDTH 19 0
BBX 7 15 3 1
BITMAP
06
06
06
06
06
06
06
06
C6
C6
36
0E
0E
06
06
ENDCHAR
STARTCHAR 21C4
ENCODING 8644
SWIDTH 977 0
DWIDTH 19 0
BBX 15 15 1 1
BITMAP
0030
0038
0008
FFFE
FFFE
0008
0830
0830
3000
FFFE
FFFE
3000
3000
0800
0800
ENDCHAR
STARTCHAR 21C5
ENCODING 8645
SWIDTH 977 0
DWIDTH 19 0
BBX 15 15 1 1
BITMAP
1830
1830
3E30
D9B0
D9B0
1830
1830
1830
1830
1830
19B6
18F8
18F8
1830
1830
ENDCHAR
STARTCHAR 21C6
ENCODING 8646
SWIDTH 977 0
DWIDTH 19 0
BBX 15 15 1 1
BITMAP
0800
3800
3000
FFFE
FFFE
3000
0830
0830
0008
FFFE
FFFE
0008
0008
0030
0030
ENDCHAR
STARTCHAR 21C7
ENCODING 8647
SWIDTH 977 0
DWIDTH 19 0
BBX 15 15 1 1
BITMAP
0800
3800
3000
FFFE
FFFE
3000
0800
0800
3000
FFFE
FFFE
3000
3000
0800
0800
ENDCHAR
STARTCHAR 21C8
ENCODING 8648
SWIDTH 977 0
DWIDTH 19 0
BBX 15 15 1 1
BITMAP
1830
1830
3EF8
D9B6
D9B6
1830
1830
1830
1830
1830
1830
1830
1830
1830
1830
ENDCHAR
STARTCHAR 21C9
ENCODING 8649
SWIDTH 977 0
DWIDTH 19 0
BBX 15 15 1 1
BITMAP
0030
0038
0008
FFFE
FFFE
0008
0030
0030
0008
FFFE
FFFE
0008
0008
0030
0030
ENDCHAR
STARTCHAR 21CA
ENCODING 8650
SWIDTH 977 0
DWIDTH 19 0
BBX 15 15 1 1
BITMAP
1830
1830
1830
1830
1830
1830
1830
1830
1830
1830
D9B6
3EF8
3EF8
1830
1830
ENDCHAR
STARTCHAR 21CB
ENCODING 8651
SWIDTH 977 0
DWIDTH 19 0
BBX 15 15 1 1
BITMAP
0800
3800
3000
FFFE
FFFE
0000
0000
0000
0000
FFFE
FFFE
0008
0008
0030
0030
ENDCHAR
STARTCHAR 21CC
ENCODING 8652
SWIDTH 977 0
DWIDTH 19 0
BBX 15 15 1 1
BITMAP
0030
0038
0008
FFFE
FFFE
0000
0000
0000
0000
FFFE
FFFE
3000
3000
0800
0800
ENDCHAR
STARTCHAR 21CD
ENCODING 8653
SWIDTH 977 0
DWIDTH 19 0
BBX 15 12 1 3
BITMAP
0600
0600
180C
3FFE
3FFE
C030
C030
3FFE
3FFE
18C0
0600
0600
ENDCHAR
STARTCHAR 21CE
ENCODING 8654
SWIDTH 977 0
DWIDTH 19 0
BBX 18 12 0 3
BITMAP
040800
040800
183600
3FFF00
3FFF00
C0C0C0
C0C0C0
3FFF00
3FFF00
1B0600
040800
040800
ENDCHAR
STARTCHAR 21CF
ENCODING 8655
SWIDTH 977 0
DWIDTH 19 0
BBX 15 12 2 3
BITMAP
00C0
00C0
0420
FFF8
FFF8
1806
1806
FFF8
FFF8
2020
00C0
00C0
ENDCHAR
STARTCHAR 21D0
ENCODING 8656
SWIDTH 977 0
DWIDTH 19 0
BBX 15 12 1 3
BITMAP
0600
0600
1800
3FFE
3FFE
C000
C000
3FFE
3FFE
1800
0600
0600
ENDCHAR
STARTCHAR 21D1
ENCODING 8657
SWIDTH 977 0
DWIDTH 19 0
BBX 12 15 3 2
BITMAP
0600
0600
1980
1980
39C0
D9B0
D9B0
1980
1980
1980
1980
1980
1980
1980
1980
ENDCHAR
STARTCHAR 21D2
ENCODING 8658
SWIDTH 977 0
DWIDTH 19 0
BBX 15 12 2 3
BITMAP
00C0
00C0
0020
FFF8
FFF8
0006
0006
FFF8
FFF8
0020
00C0
00C0
ENDCHAR
STARTCHAR 21D3
ENCODING 8659
SWIDTH 977 0
DWIDTH 19 0
BBX 12 15 3 1
BITMAP
1980
1980
1980
1980
1980
1980
1980
1980
D9B0
39C0
39C0
1980
1980
0600
0600
ENDCHAR
STARTCHAR 21D4
ENCODING 8660
SWIDTH 977 0
DWIDTH 19 0
BBX 18 12 0 3
BITMAP
061800
061800
180600
3FFF00
3FFF00
C000C0
C000C0
3FFF00
3FFF00
180600
061800
061800
ENDCHAR
STARTCHAR 21D5
ENCODING 8661
SWIDTH 977 0
DWIDTH 19 0
BBX 12 18 3 0
BITMAP
0600
0600
1980
1980
39C0
D9B0
D9B0
1980
1980
1980
1980
1980
D9B0
39C0
39C0
1980
1F80
0600
ENDCHAR
STARTCHAR 21D6
ENCODING 8662
SWIDTH 977 0
DWIDTH 19 0
BBX 12 12 3 3
BITMAP
FF80
FF80
D800
FE00
F600
D980
D980
C640
C640
01B0
0040
0040
ENDCHAR
STARTCHAR 21D7
ENCODING 8663
SWIDTH 977 0
DWIDTH 19 0
BBX 12 12 3 3
BITMAP
1FF0
1FF0
01B0
07F0
06F0
19B0
19B0
2630
2630
D800
2000
2000
ENDCHAR
STARTCHAR 21D8
ENCODING 8664
SWIDTH 977 0
DWIDTH 19 0
BBX 12 12 3 3
BITMAP
2000
2000
D800
2630
2630
19B0
19B0
06F0
07F0
01B0
1FF0
1FF0
ENDCHAR
STARTCHAR 21D9
ENCODING 8665
SWIDTH 977 0
DWIDTH 19 0
BBX 12 12 3 3
BITMAP
0040
0040
01B0
C640
C640
D980
D980
F600
FE00
D800
FF80
FF80
ENDCHAR
STARTCHAR 21DA
ENCODING 8666
SWIDTH 977 0
DWIDTH 19 0
BBX 15 12 1 3
BITMAP
0600
0600
0FFE
0FFE
3000
FFFE
FFFE
3000
3FFE
0FFE
0600
0600
ENDCHAR
STARTCHAR 21DB
ENCODING 8667
SWIDTH 977 0
DWIDTH 19 0
BBX 15 12 1 3
BITMAP
0040
0040
FFF0
FFF0
0008
FFFE
FFFE
0008
FFF8
FFF0
0040
0040
ENDCHAR
STARTCHAR 21DC
ENCODING 8668
SWIDTH 977 0
DWIDTH 19 0
BBX 14 8 2 5
BITMAP
1000
1000
6020
FCDC
FCDC
6300
1000
1000
ENDCHAR
STARTCHAR 21DD
ENCODING 8669
SWIDTH 977 0
DWIDTH 19 0
BBX 14 8 2 5
BITMAP
0060
0060
1018
ECFC
ECFC
0318
0060
0060
ENDCHAR
STARTCHAR 21DE
ENCODING 8670
SWIDTH 977 0
DWIDTH 19 0
BBX 8 15 5 1
BITMAP
18
18
3C
DB
DB
18
FF
FF
18
18
FF
18
18
18
18
ENDCHAR
STARTCHAR 21DF
ENCODING 8671
SWIDTH 977 0
DWIDTH 19 0
BBX 8 15 5 1
BITMAP
18
18
18
FF
FF
18
FF
FF
18
18
DB
3C
3C
18
18
ENDCHAR
STARTCHAR 21E0
ENCODING 8672
SWIDTH 977 0
DWIDTH 19 0
BBX 15 12 2 3
BITMAP
0400
0400
1800
1800
2000
2000
FB36
2000
2000
1800
0400
0400
ENDCHAR
STARTCHAR 21E1
ENCODING 8673
SWIDTH 977 0
DWIDTH 19 0
BBX 12 15 3 1
BITMAP
0200
0200
0F80
3240
3240
C030
0200
0200
0000
0200
0200
0000
0000
0200
0200
ENDCHAR
STARTCHAR 21E2
ENCODING 8674
SWIDTH 977 0
DWIDTH 19 0
BBX 15 12 1 3
BITMAP
0040
0040
0030
0030
0008
0008
D9BE
0008
0008
0030
0040
0040
ENDCHAR
STARTCHAR 21E3
ENCODING 8675
SWIDTH 977 0
DWIDTH 19 0
BBX 12 14 3 2
BITMAP
0200
0200
0000
0200
0200
0000
0200
0200
C030
3240
3240
0F80
0200
0200
ENDCHAR
STARTCHAR 21E4
ENCODING 8676
SWIDTH 977 0
DWIDTH 19 0
BBX 18 11 0 3
BITMAP
C30000
C40000
C40000
D80000
FFFFC0
FFFFC0
D80000
D80000
C40000
C30000
C30000
ENDCHAR
STARTCHAR 21E5
ENCODING 8677
SWIDTH 977 0
DWIDTH 19 0
BBX 18 11 0 3
BITMAP
0030C0
0008C0
0008C0
0006C0
FFFFC0
FFFFC0
0006C0
0006C0
0008C0
0030C0
0030C0
ENDCHAR
STARTCHAR 21E6
ENCODING 8678
SWIDTH 977 0
DWIDTH 19 0
BBX 18 18 0 0
BITMAP
00C000
00C000
03C000
03C000
04C000
18FFC0
18FFC0
2000C0
C000C0
C000C0
2000C0
18FFC0
18FFC0
04C000
04C000
03C000
03C000
00C000
ENDCHAR
STARTCHAR 21E7
ENCODING 8679
SWIDTH 977 0
DWIDTH 19 0
BBX 17 18 0 0
BITMAP
00C000
00C000
032000
032000
0C1800
100400
100400
600300
FC1F80
FC1F80
0C1800
0C1800
0C1800
0C1800
0C1800
0C1800
0FF800
0FF800
ENDCHAR
STARTCHAR 21E8
ENCODING 8680
SWIDTH 977 0
DWIDTH 19 0
BBX 18 18 0 0
BITMAP
00C000
00C000
00E000
00E000
00D800
FFC400
FFC400
C00300
C000C0
C000C0
C00300
FFC400
FFC400
00D800
00D800
00E000
00E000
00C000
ENDCHAR
STARTCHAR 21E9
ENCODING 8681
SWIDTH 977 0
DWIDTH 19 0
BBX 17 18 0 0
BITMAP
0FF800
0FF800
0C1800
0C1800
0C1800
0C1800
0C1800
0C1800
FC1F80
FC1F80
600300
700700
100400
0C1800
0C1800
032000
03E000
00C000
ENDCHAR
STARTCHAR 21EA
ENCODING 8682
SWIDTH 977 0
DWIDTH 19 0
BBX 17 18 0 0
BITMAP
00C000
00C000
032000
032000
0C1800
100400
100400
600300
FC1F80
FC1F80
0C1800
0C1800
0C1800
0FF800
0FF800
000000
0FF800
0FF800
ENDCHAR
STARTCHAR 21EB
ENCODING 8683
SWIDTH 977 0
DWIDTH 19 0
BBX 18 18 0 0
BITMAP
00C000
00C000
032000
032000
041800
180600
180600
200100
FC1FC0
FC1FC0
041800
041800
041800
041800
041800
041800
FFFFC0
FFFFC0
ENDCHAR
STARTCHAR 21EC
ENCODING 8684
SWIDTH 977 0
DWIDTH 19 0
BBX 18 18 0 0
BITMAP
00C000
00C000
032000
073800
041800
1FFE00
1FFE00
200100
FC1FC0
FC1FC0
041800
041800
041800
041800
041800
041800
FFFFC0
FFFFC0
ENDCHAR
STARTCHAR 21ED
ENCODING 8685
SWIDTH 977 0
DWIDTH 19 0
BBX 18 18 0 0
BITMAP
00C000
00C000
03E000
03E000
04D800
18C600
18C600
20C100
FCDFC0
FCDFC0
04D800
04D800
04D800
04D800
04D800
04D800
FFFFC0
FFFFC0
ENDCHAR
STARTCHAR 21EE
ENCODING 8686
SWIDTH 977 0
DWIDTH 19 0
BBX 18 18 0 0
BITMAP
00C000
00C000
033000
033000
04C800
1B3600
1B3600
240900
D806C0
D806C0
200100
FC0FC0
FC0FC0
040800
040800
040800
07F800
07F800
ENDCHAR
STARTCHAR 21EF
ENCODING 8687
SWIDTH 977 0
DWIDTH 19 0
BBX 18 18 0 0
BITMAP
00C000
00C000
032000
032000
04D800
1B2600
1B2600
241900
D806C0
D806C0
200100
FC1FC0
FC1FC0
041800
041800
041800
FFFFC0
FFFFC0
ENDCHAR
STARTCHAR 21F0
ENCODING 8688
SWIDTH 977 0
DWIDTH 19 0
BBX 18 18 0 0
BITMAP
C0C000
C0C000
C0E000
C0E000
C0D800
FFC400
FFC400
C00300
C000C0
C000C0
C00300
FFC400
FFC400
C0D800
C0D800
C0E000
C0E000
C0C000
ENDCHAR
STARTCHAR 21F1
ENCODING 8689
SWIDTH 977 0
DWIDTH 19 0
BBX 15 15 1 1
BITMAP
FFFE
FFFE
C000
DFC0
DFC0
DE00
D980
D980
D840
C030
C030
C008
C008
C006
C006
ENDCHAR
STARTCHAR 21F2
ENCODING 8690
SWIDTH 977 0
DWIDTH 19 0
BBX 15 15 1 1
BITMAP
C006
C006
2006
1806
1806
0636
01B6
01B6
00F6
07F6
07F6
0006
0006
FFFE
FFFE
ENDCHAR
STARTCHAR 21F3
ENCODING 8691
SWIDTH 977 0
DWIDTH 19 0
BBX 14 18 2 0
BITMAP
0300
0300
0CC0
1020
1020
6018
6018
F03C
F03C
1020
F03C
F03C
6018
1020
1020
0CC0
0FC0
0300
ENDCHAR
STARTCHAR 21F4
ENCODING 8692
SWIDTH 977 0
DWIDTH 19 0
BBX 18 8 0 5
BITMAP
07C600
07C600
182100
FFFFC0
FFFFC0
182100
1FE700
07C600
ENDCHAR
STARTCHAR 21F5
ENCODING 8693
SWIDTH 977 0
DWIDTH 19 0
BBX 15 15 1 1
BITMAP
1830
1830
18F8
19B6
19B6
1830
1830
1830
1830
1830
D9B0
3E30
3E30
1830
1830
ENDCHAR
STARTCHAR 21F6
ENCODING 8694
SWIDTH 977 0
DWIDTH 19 0
BBX 15 18 1 0
BITMAP
0030
0030
0008
FFFE
FFFE
0030
0030
0008
FFFE
FFFE
0008
0038
0030
FFFE
FFFE
0008
0030
0030
ENDCHAR
STARTCHAR 21F7
ENCODING 8695
SWIDTH 977 0
DWIDTH 19 0
BBX 15 8 1 5
BITMAP
0840
0840
3040
FFFE
FFFE
3040
3040
0840
ENDCHAR
STARTCHAR 21F8
ENCODING 8696
SWIDTH 977 0
DWIDTH 19 0
BBX 15 8 1 5
BITMAP
0630
0630
0608
FFFE
FFFE
0608
0608
0630
ENDCHAR
STARTCHAR 21F9
ENCODING 8697
SWIDTH 977 0
DWIDTH 19 0
BBX 18 8 0 5
BITMAP
18C600
18C600
20C100
FFFFC0
FFFFC0
20C100
20C100
18C600
ENDCHAR
STARTCHAR 21FA
ENCODING 8698
SWIDTH 977 0
DWIDTH 19 0
BBX 15 8 1 5
BITMAP
09B0
09B0
31B0
FFFE
FFFE
31B0
09B0
09B0
ENDCHAR
STARTCHAR 21FB
ENCODING 8699
SWIDTH 977 0
DWIDTH 19 0
BBX 15 8 1 5
BITMAP
09B0
09B0
0988
FFFE
FFFE
0988
09B0
09B0
ENDCHAR
STARTCHAR 21FC
ENCODING 8700
SWIDTH 977 0
DWIDTH 19 0
BBX 18 8 0 5
BITMAP
1B2600
1B2600
232100
FFFFC0
FFFFC0
232100
1B2600
1B2600
ENDCHAR
STARTCHAR 21FD
ENCODING 8701
SWIDTH 977 0
DWIDTH 19 0
BBX 15 11 1 3
BITMAP
0600
0E00
0E00
3600
3600
C7FE
3600
3600
0E00
0600
0600
ENDCHAR
STARTCHAR 21FE
ENCODING 8702
SWIDTH 977 0
DWIDTH 19 0
BBX 15 11 2 3
BITMAP
00C0
00E0
00E0
00D8
00D8
FFC6
00D8
00D8
00E0
00C0
00C0
ENDCHAR
STARTCHAR 21FF
ENCODING 8703
SWIDTH 977 0
DWIDTH 19 0
BBX 18 11 0 3
BITMAP
061800
1E1E00
1E1E00
261B00
261B00
C7F8C0
261B00
261B00
1E1E00
061800
061800
ENDCHAR
STARTCHAR 2200
ENCODING 8704
SWIDTH 977 0
DWIDTH 19 0
BBX 18 18 0 0
BITMAP
C000C0
C000C0
C000C0
200100
200100
200100
1FFE00
1FFE00
180600
180600
040800
040800
040800
033000
033000
033000
00C000
00C000
ENDCHAR
STARTCHAR 2202
ENCODING 8706
SWIDTH 977 0
DWIDTH 19 0
BBX 10 17 3 1
BITMAP
0F00
0F00
30C0
30C0
00C0
00C0
00C0
0EC0
3100
3100
C100
C100
C100
C600
C600
3800
3800
ENDCHAR
STARTCHAR 2203
ENCODING 8707
SWIDTH 977 0
DWIDTH 19 0
BBX 16 15 0 1
BITMAP
FFFF
FFFF
0003
0003
0003
0003
FFFF
FFFF
0003
0003
0003
0003
0003
FFFF
FFFF
ENDCHAR
STARTCHAR 2205
ENCODING 8709
SWIDTH 977 0
DWIDTH 19 0
BBX 15 15 1 1
BITMAP
1FF6
1FF6
2008
C036
C036
C046
C186
C186
C606
D806
D806
2008
2008
DFF0
DFF0
ENDCHAR
STARTCHAR 2206
ENCODING 8710
SWIDTH 977 0
DWIDTH 19 0
BBX 18 18 0 0
BITMAP
00C000
00C000
033000
033000
033000
040800
040800
040800
180600
180600
180600
180600
200100
200100
200100
C000C0
FFFFC0
FFFFC0
ENDCHAR
STARTCHAR 2207
ENCODING 8711
SWIDTH 977 0
DWIDTH 19 0
BBX 18 18 0 0
BITMAP
FFFFC0
FFFFC0
C000C0
200100
200100
200100
200100
180600
180600
180600
040800
040800
040800
033000
033000
033000
00C000
00C000
ENDCHAR
STARTCHAR 2208
ENCODING 8712
SWIDTH 977 0
DWIDTH 19 0
BBX 15 15 1 1
BITMAP
0FFE
0FFE
3000
C000
C000
C000
FFFE
FFFE
C000
C000
C000
3000
3000
0FFE
0FFE
ENDCHAR
STARTCHAR 220B
ENCODING 8715
SWIDTH 977 0
DWIDTH 19 0
BBX 14 15 2 1
BITMAP
FFE0
FFE0
0010
000C
000C
000C
FFFC
FFFC
000C
000C
000C
0010
0010
FFE0
FFE0
ENDCHAR
STARTCHAR 220F
ENCODING 8719
SWIDTH 977 0
DWIDTH 19 0
BBX 13 18 3 0
BITMAP
FFF8
FFF8
2020
2020
2020
2020
2020
2020
2020
2020
2020
2020
2020
2020
2020
2020
2020
2020
ENDCHAR
STARTCHAR 2210
ENCODING 8720
SWIDTH 977 0
DWIDTH 19 0
BBX 13 18 3 0
BITMAP
2020
2020
2020
2020
2020
2020
2020
2020
2020
2020
2020
2020
2020
2020
2020
2020
FFF8
FFF8
ENDCHAR
STARTCHAR 2211
ENCODING 8721
SWIDTH 977 0
DWIDTH 19 0
BBX 13 18 3 0
BITMAP
FFF8
FFF8
2000
1800
1800
0600
0100
0100
00C0
00C0
0100
0100
0600
1800
1800
2000
FFF8
FFF8
ENDCHAR
STARTCHAR 221A
ENCODING 8730
SWIDTH 977 0
DWIDTH 19 0
BBX 18 18 0 0
BITMAP
003FC0
003FC0
002000
002000
002000
00C000
00C000
00C000
00C000
00C000
010000
010000
C10000
210000
210000
1E0000
1E0000
060000
ENDCHAR
STARTCHAR 221D
ENCODING 8733
SWIDTH 977 0
DWIDTH 19 0
BBX 16 8 0 5
BITMAP
3C0F
3C0F
C330
C0C0
C0C0
C330
3C0F
3C0F
ENDCHAR
STARTCHAR 221E
ENCODING 8734
SWIDTH 977 0
DWIDTH 19 0
BBX 18 8 0 5
BITMAP
3C0F00
3C0F00
C330C0
C0C0C0
C0C0C0
C330C0
3C0F00
3C0F00
ENDCHAR
STARTCHAR 221F
ENCODING 8735
SWIDTH 977 0
DWIDTH 19 0
BBX 15 15 1 1
BITMAP
C000
C000
C000
C000
C000
C000
C000
C000
C000
C000
C000
C000
C000
FFFE
FFFE
ENDCHAR
STARTCHAR 2220
ENCODING 8736
SWIDTH 977 0
DWIDTH 19 0
BBX 15 14 1 1
BITMAP
0008
0008
0030
0030
0040
0180
0180
0600
0800
0800
3000
3000
FFFE
FFFE
ENDCHAR
STARTCHAR 2223
ENCODING 8739
SWIDTH 977 0
DWIDTH 19 0
BBX 2 18 8 0
BITMAP
C0
C0
C0
C0
C0
C0
C0
C0
C0
C0
C0
C0
C0
C0
C0
C0
C0
C0
ENDCHAR
STARTCHAR 2224
ENCODING 8740
SWIDTH 977 0
DWIDTH 19 0
BBX 8 18 5 0
BITMAP
18
18
18
18
18
1B
1E
1E
18
18
38
D8
D8
18
18
18
18
18
ENDCHAR
STARTCHAR 2225
ENCODING 8741
SWIDTH 977 0
DWIDTH 19 0
BBX 7 18 5 0
BITMAP
C6
C6
C6
C6
C6
C6
C6
C6
C6
C6
C6
C6
C6
C6
C6
C6
C6
C6
ENDCHAR
STARTCHAR 2226
ENCODING 8742
SWIDTH 977 0
DWIDTH 19 0
BBX 13 18 2 0
BITMAP
18C0
18C0
18C0
18C0
18C0
18C0
18F8
18F8
1FC0
1FC0
F8C0
F8C0
18C0
18C0
18C0
18C0
18C0
18C0
ENDCHAR
STARTCHAR 2227
ENCODING 8743
SWIDTH 977 0
DWIDTH 19 0
BBX 15 15 1 1
BITMAP
0180
0180
0180
0640
0640
0640
1830
1830
1830
2008
2008
2008
2008
C006
C006
ENDCHAR
STARTCHAR 2228
ENCODING 8744
SWIDTH 977 0
DWIDTH 19 0
BBX 15 14 1 2
BITMAP
C006
C006
2008
2008
2008
1830
1830
1830
0640
0640
0640
0180
0180
0180
ENDCHAR
STARTCHAR 2229
ENCODING 8745
SWIDTH 977 0
DWIDTH 19 0
BBX 15 14 1 2
BITMAP
0FF0
0FF0
3008
C006
C006
C006
C006
C006
C006
C006
C006
C006
C006
C006
ENDCHAR
STARTCHAR 222A
ENCODING 8746
SWIDTH 977 0
DWIDTH 19 0
BBX 15 15 1 1
BITMAP
C006
C006
C006
C006
C006
C006
C006
C006
C006
C006
C006
3008
3008
0FF0
0FF0
ENDCHAR
STARTCHAR 222B
ENCODING 8747
SWIDTH 977 0
DWIDTH 19 0
BBX 8 18 5 0
BITMAP
04
04
1B
1B
18
18
18
18
18
18
18
18
18
18
18
D8
F8
20
ENDCHAR
STARTCHAR 222C
ENCODING 8748
SWIDTH 977 0
DWIDTH 19 0
BBX 13 18 1 0
BITMAP
0630
0630
19C8
19C8
1840
1840
1840
1840
1840
1840
1840
1840
1840
1840
1840
DE40
FFC0
2180
ENDCHAR
STARTCHAR 222D
ENCODING 8749
SWIDTH 977 0
DWIDTH 19 0
BBX 15 18 1 0
BITMAP
0648
0648
19B6
19B6
19B0
19B0
19B0
19B0
19B0
19B0
19B0
19B0
19B0
19B0
19B0
D9B0
FFF0
2640
ENDCHAR
STARTCHAR 222E
ENCODING 8750
SWIDTH 977 0
DWIDTH 19 0
BBX 8 18 5 0
BITMAP
04
04
1B
1B
18
3C
3C
DB
DB
DB
3C
3C
18
18
18
D8
F8
20
ENDCHAR
STARTCHAR 222F
ENCODING 8751
SWIDTH 977 0
DWIDTH 19 0
BBX 15 18 1 0
BITMAP
0630
0630
19C8
19C8
1840
3FF8
3FF8
D846
D846
D846
3FF8
3FF8
1840
1840
1840
DE40
FFC0
2180
ENDCHAR
STARTCHAR 2230
ENCODING 8752
SWIDTH 977 0
DWIDTH 19 0
BBX 15 18 1 0
BITMAP
0648
0648
19B6
19B6
19B0
3FF8
3FF8
D9B6
D9B6
D9B6
3FF8
3FF8
19B0
19B0
19B0
D9B0
FFF0
2640
ENDCHAR
STARTCHAR 2234
ENCODING 8756
SWIDTH 977 0
DWIDTH 19 0
BBX 17 16 0 2
BITMAP
01C000
01C000
01C000
000000
000000
000000
000000
000000
000000
000000
000000
000000
000000
E00380
E00380
E00380
ENDCHAR
STARTCHAR 2235
ENCODING 8757
SWIDTH 977 0
DWIDTH 19 0
BBX 17 16 0 0
BITMAP
E00380
E00380
E00380
000000
000000
000000
000000
000000
000000
000000
000000
000000
000000
01C000
01C000
01C000
ENDCHAR
STARTCHAR 2236
ENCODING 8758
SWIDTH 977 0
DWIDTH 19 0
BBX 3 14 7 2
BITMAP
E0
E0
E0
00
00
00
00
00
00
00
00
E0
E0
E0
ENDCHAR
STARTCHAR 2237
ENCODING 8759
SWIDTH 977 0
DWIDTH 19 0
BBX 14 14 2 2
BITMAP
E01C
E01C
E01C
0000
0000
0000
0000
0000
0000
0000
0000
E01C
E01C
E01C
ENDCHAR
STARTCHAR 223D
ENCODING 8765
SWIDTH 977 0
DWIDTH 19 0
BBX 18 8 0 5
BITMAP
3C0F00
3C0F00
C030C0
C0C0C0
C0C0C0
C300C0
3C0F00
3C0F00
ENDCHAR
STARTCHAR 2252
ENCODING 8786
SWIDTH 977 0
DWIDTH 19 0
BBX 15 13 1 3
BITMAP
3800
3800
0000
FFFE
FFFE
0000
0000
0000
FFFE
FFFE
0000
0038
0038
ENDCHAR
STARTCHAR 2260
ENCODING 8800
SWIDTH 977 0
DWIDTH 19 0
BBX 15 13 1 3
BITMAP
0040
0040
0040
FFFE
FFFE
0180
0180
0180
FFFE
FFFE
0600
0600
0600
ENDCHAR
STARTCHAR 2261
ENCODING 8801
SWIDTH 977 0
DWIDTH 19 0
BBX 15 12 1 3
BITMAP
FFFE
FFFE
0000
0000
0000
FFFE
FFFE
0000
0000
0000
FFFE
FFFE
ENDCHAR
STARTCHAR 2264
ENCODING 8804
SWIDTH 977 0
DWIDTH 19 0
BBX 15 15 1 1
BITMAP
000E
000E
01F0
0E00
0E00
F000
0E00
0E00
01F0
000E
000E
0000
0000
FFFE
FFFE
ENDCHAR
STARTCHAR 2265
ENCODING 8805
SWIDTH 977 0
DWIDTH 19 0
BBX 15 15 1 1
BITMAP
F000
F000
0F80
0070
0070
000E
0070
0070
0F80
F000
F000
0000
0000
FFFE
FFFE
ENDCHAR
STARTCHAR 2266
ENCODING 8806
SWIDTH 977 0
DWIDTH 19 0
BBX 15 15 1 1
BITMAP
003E
003E
07C0
F800
F800
07C0
003E
003E
0000
FFFE
FFFE
0000
0000
FFFE
FFFE
ENDCHAR
STARTCHAR 2267
ENCODING 8807
SWIDTH 977 0
DWIDTH 19 0
BBX 15 15 1 1
BITMAP
F800
F800
07C0
003E
003E
07C0
F800
F800
0000
FFFE
FFFE
0000
0000
FFFE
FFFE
ENDCHAR
STARTCHAR 226A
ENCODING 8810
SWIDTH 977 0
DWIDTH 19 0
BBX 13 15 1 1
BITMAP
0188
0188
0630
1840
1840
2180
C600
C600
2180
1840
1840
0630
0630
0188
0188
ENDCHAR
STARTCHAR 226B
ENCODING 8811
SWIDTH 977 0
DWIDTH 19 0
BBX 13 15 3 1
BITMAP
C600
C600
2180
1840
1840
0630
0188
0188
0630
1840
1840
2180
2180
C600
C600
ENDCHAR
STARTCHAR 2282
ENCODING 8834
SWIDTH 977 0
DWIDTH 19 0
BBX 15 15 1 1
BITMAP
0FFE
0FFE
3000
C000
C000
C000
C000
C000
C000
C000
C000
3000
3000
0FFE
0FFE
ENDCHAR
STARTCHAR 2283
ENCODING 8835
SWIDTH 977 0
DWIDTH 19 0
BBX 14 15 2 1
BITMAP
FFE0
FFE0
0010
000C
000C
000C
000C
000C
000C
000C
000C
0010
0010
FFE0
FFE0
ENDCHAR
STARTCHAR 2286
ENCODING 8838
SWIDTH 977 0
DWIDTH 19 0
BBX 15 15 1 1
BITMAP
0FFE
0FFE
3000
C000
C000
C000
C000
C000
3000
0FFE
0FFE
0000
0000
FFFE
FFFE
ENDCHAR
STARTCHAR 2287
ENCODING 8839
SWIDTH 977 0
DWIDTH 19 0
BBX 14 15 2 1
BITMAP
FFE0
FFE0
0010
000C
000C
000C
000C
000C
0010
FFE0
FFE0
0000
0000
FFFC
FFFC
ENDCHAR
STARTCHAR 22A4
ENCODING 8868
SWIDTH 977 0
DWIDTH 19 0
BBX 15 13 1 2
BITMAP
FFFE
FFFE
0180
0180
0180
0180
0180
0180
0180
0180
0180
0180
0180
ENDCHAR
STARTCHAR 22A5
ENCODING 8869
SWIDTH 977 0
DWIDTH 19 0
BBX 15 13 1 1
BITMAP
0180
0180
0180
0180
0180
0180
0180
0180
0180
0180
0180
FFFE
FFFE
ENDCHAR
STARTCHAR 22BF
ENCODING 8895
SWIDTH 977 0
DWIDTH 19 0
BBX 15 15 2 1
BITMAP
0006
0006
001E
0026
0026
00C6
0306
0306
0C06
1006
1006
6006
6006
FFFE
FFFE
ENDCHAR
STARTCHAR 2460
ENCODING 9312
SWIDTH 977 0
DWIDTH 19 0
BBX 18 18 0 0
BITMAP
07F800
07F800
180600
180600
20C100
C3C0C0
C3C0C0
C0C0C0
C0C0C0
C0C0C0
C0C0C0
C0C0C0
C0C0C0
23E100
23E100
180600
1FFE00
07F800
ENDCHAR
STARTCHAR 2461
ENCODING 9313
SWIDTH 977 0
DWIDTH 19 0
BBX 18 18 0 0
BITMAP
07F800
07F800
180600
180600
23E100
C418C0
C418C0
C018C0
C060C0
C060C0
C080C0
C080C0
C300C0
27F900
27F900
180600
1FFE00
07F800
ENDCHAR
STARTCHAR 2462
ENCODING 9314
SWIDTH 977 0
DWIDTH 19 0
BBX 18 18 0 0
BITMAP
07F800
07F800
180600
180600
23E100
C418C0
C418C0
C018C0
C0E0C0
C0E0C0
C018C0
C418C0
C418C0
23E100
23E100
180600
1FFE00
07F800
ENDCHAR
STARTCHAR 2463
ENCODING 9315
SWIDTH 977 0
DWIDTH 19 0
BBX 18 18 0 0
BITMAP
07F800
07F800
180400
180400
202300
C0E0C0
C0E0C0
C320C0
C420C0
C420C0
DFF8C0
C020C0
C020C0
202300
202300
180400
1FFC00
07F800
ENDCHAR
STARTCHAR 2464
ENCODING 9316
SWIDTH 977 0
DWIDTH 19 0
BBX 18 18 0 0
BITMAP
07F800
07F800
180600
180600
27F900
C400C0
C400C0
C7E0C0
C418C0
C418C0
C018C0
C418C0
C418C0
23E100
23E100
180600
1FFE00
07F800
ENDCHAR
STARTCHAR 2465
ENCODING 9317
SWIDTH 977 0
DWIDTH 19 0
BBX 18 18 0 0
BITMAP
07F800
07F800
180600
180600
23E100
C418C0
C418C0
C400C0
C7E0C0
C7E0C0
C418C0
C418C0
C418C0
23E100
23E100
180600
1FFE00
07F800
ENDCHAR
STARTCHAR 2466
ENCODING 9318
SWIDTH 977 0
DWIDTH 19 0
BBX 18 18 0 0
BITMAP
07F800
07F800
180400
180400
27FB00
C018C0
C018C0
C020C0
C020C0
C020C0
C0C0C0
C0C0C0
C0C0C0
20C300
20C300
180400
1FFC00
07F800
ENDCHAR
STARTCHAR 2467
ENCODING 9319
SWIDTH 977 0
DWIDTH 19 0
BBX 18 18 0 0
BITMAP
07F800
07F800
180600
180600
23E100
C418C0
C418C0
C418C0
C3E0C0
C3E0C0
C418C0
C418C0
C418C0
23E100
23E100
180600
1FFE00
07F800
ENDCHAR
STARTCHAR 2468
ENCODING 9320
SWIDTH 977 0
DWIDTH 19 0
BBX 18 18 0 0
BITMAP
07F800
07F800
180600
180600
23E100
C418C0
C418C0
C418C0
C3F8C0
C3F8C0
C018C0
C418C0
C418C0
23E100
23E100
180600
1FFE00
07F800
ENDCHAR
STARTCHAR 2469
ENCODING 9321
SWIDTH 977 0
DWIDTH 19 0
BBX 18 18 0 0
BITMAP
07F800
07F800
180600
180600
263900
DEC6C0
DEC6C0
C6C6C0
C6C6C0
C6C6C0
C6C6C0
C6C6C0
C6C6C0
263900
263900
180600
1FFE00
07F800
ENDCHAR
STARTCHAR 246A
ENCODING 9322
SWIDTH 977 0
DWIDTH 19 0
BBX 18 18 0 0
BITMAP
07F800
07F800
180400
180400
261B00
DE38C0
DE38C0
C618C0
C618C0
C618C0
C618C0
C618C0
C618C0
261B00
261B00
180400
1FFC00
07F800
ENDCHAR
STARTCHAR 246B
ENCODING 9323
SWIDTH 977 0
DWIDTH 19 0
BBX 18 18 0 0
BITMAP
07F800
07F800
180600
180600
263900
DEC6C0
DEC6C0
C606C0
C618C0
C618C0
C620C0
C620C0
C6C0C0
26FF00
26FF00
180600
1FFE00
07F800
ENDCHAR
STARTCHAR 246C
ENCODING 9324
SWIDTH 977 0
DWIDTH 19 0
BBX 18 18 0 0
BITMAP
07F800
07F800
180600
180600
263900
DEC6C0
DEC6C0
C606C0
C638C0
C638C0
C606C0
C6C6C0
C6C6C0
263900
263900
180600
1FFE00
07F800
ENDCHAR
STARTCHAR 246D
ENCODING 9325
SWIDTH 977 0
DWIDTH 19 0
BBX 18 18 0 0
BITMAP
07F800
07F800
180400
180400
261B00
DE38C0
DE38C0
C6D8C0
C6D8C0
C6D8C0
C6FCC0
C618C0
C618C0
261B00
261B00
180400
1FFC00
07F800
ENDCHAR
STARTCHAR 246E
ENCODING 9326
SWIDTH 977 0
DWIDTH 19 0
BBX 18 18 0 0
BITMAP
07F800
07F800
180600
180600
26FF00
DEC0C0
DEC0C0
C6F8C0
C6C6C0
C6C6C0
C606C0
C6C6C0
C6C6C0
263900
263900
180600
1FFE00
07F800
ENDCHAR
STARTCHAR 246F
ENCODING 9327
SWIDTH 977 0
DWIDTH 19 0
BBX 18 18 0 0
BITMAP
07F800
07F800
180600
180600
263900
DEC6C0
DEC6C0
C6C0C0
C6F8C0
C6F8C0
C6C6C0
C6C6C0
C6C6C0
263900
263900
180600
1FFE00
07F800
ENDCHAR
STARTCHAR 2470
ENCODING 9328
SWIDTH 977 0
DWIDTH 19 0
BBX 18 18 0 0
BITMAP
07F800
07F800
180400
180400
26FF00
DE04C0
DE04C0
C618C0
C618C0
C618C0
C620C0
C620C0
C620C0
262300
262300
180400
1FFC00
07F800
ENDCHAR
STARTCHAR 2471
ENCODING 9329
SWIDTH 977 0
DWIDTH 19 0
BBX 18 18 0 0
BITMAP
07F800
07F800
180600
180600
263900
DEC6C0
DEC6C0
C6C6C0
C638C0
C638C0
C6C6C0
C6C6C0
C6C6C0
263900
263900
180600
1FFE00
07F800
ENDCHAR
STARTCHAR 2472
ENCODING 9330
SWIDTH 977 0
DWIDTH 19 0
BBX 18 18 0 0
BITMAP
07F800
07F800
180600
180600
263900
DEC6C0
DEC6C0
C6C6C0
C63EC0
C63EC0
C606C0
C6C6C0
C6C6C0
263900
263900
180600
1FFE00
07F800
ENDCHAR
STARTCHAR 2473
ENCODING 9331
SWIDTH 977 0
DWIDTH 19 0
BBX 18 18 0 0
BITMAP
07F800
07F800
180600
180600
240900
DB36C0
DB36C0
C336C0
C436C0
C436C0
C436C0
D836C0
D836C0
3F0900
180600
180600
07F800
07F800
ENDCHAR
STARTCHAR 24B6
ENCODING 9398
SWIDTH 977 0
DWIDTH 19 0
BBX 18 18 0 0
BITMAP
07F800
07F800
180600
180600
20C100
C330C0
C330C0
C408C0
C408C0
C408C0
C7F8C0
C408C0
C408C0
240900
240900
180600
1FFE00
07F800
ENDCHAR
STARTCHAR 24B7
ENCODING 9399
SWIDTH 977 0
DWIDTH 19 0
BBX 18 18 0 0
BITMAP
07F800
07F800
180400
180400
27E300
C618C0
C618C0
C618C0
C7E0C0
C7E0C0
C618C0
C618C0
C618C0
27E300
27E300
180400
1FFC00
07F800
ENDCHAR
STARTCHAR 24B8
ENCODING 9400
SWIDTH 977 0
DWIDTH 19 0
BBX 18 18 0 0
BITMAP
07F800
07F800
180600
180600
23E100
C418C0
C418C0
C400C0
C400C0
C400C0
C400C0
C418C0
C418C0
23E100
23E100
180600
1FFE00
07F800
ENDCHAR
STARTCHAR 24B9
ENCODING 9401
SWIDTH 977 0
DWIDTH 19 0
BBX 18 18 0 0
BITMAP
07F800
07F800
180400
180400
27E300
C618C0
C618C0
C618C0
C618C0
C618C0
C618C0
C618C0
C618C0
27E300
27E300
180400
1FFC00
07F800
ENDCHAR
STARTCHAR 24BA
ENCODING 9402
SWIDTH 977 0
DWIDTH 19 0
BBX 18 18 0 0
BITMAP
07F800
07F800
180600
180600
27F900
C600C0
C600C0
C600C0
C7E0C0
C7E0C0
C600C0
C600C0
C600C0
27F900
27F900
180600
1FFE00
07F800
ENDCHAR
STARTCHAR 24BB
ENCODING 9403
SWIDTH 977 0
DWIDTH 19 0
BBX 18 18 0 0
BITMAP
07F800
07F800
180600
180600
27F900
C600C0
C600C0
C600C0
C7E0C0
C7E0C0
C600C0
C600C0
C600C0
260100
260100
180600
1FFE00
07F800
ENDCHAR
STARTCHAR 24BC
ENCODING 9404
SWIDTH 977 0
DWIDTH 19 0
BBX 18 18 0 0
BITMAP
07F800
07F800
180600
180600
23E100
C418C0
C418C0
C400C0
C4F8C0
C4F8C0
C418C0
C418C0
C418C0
23E100
23E100
180600
1FFE00
07F800
ENDCHAR
STARTCHAR 24BD
ENCODING 9405
SWIDTH 977 0
DWIDTH 19 0
BBX 18 18 0 0
BITMAP
07F800
07F800
180400
180400
261B00
C618C0
C618C0
C618C0
C7F8C0
C7F8C0
C618C0
C618C0
C618C0
261B00
261B00
180400
1FFC00
07F800
ENDCHAR
STARTCHAR 24BE
ENCODING 9406
SWIDTH 977 0
DWIDTH 19 0
BBX 18 18 0 0
BITMAP
07F800
07F800
180600
180600
23E100
C0C0C0
C0C0C0
C0C0C0
C0C0C0
C0C0C0
C0C0C0
C0C0C0
C0C0C0
23E100
23E100
180600
1FFE00
07F800
ENDCHAR
STARTCHAR 24BF
ENCODING 9407
SWIDTH 977 0
DWIDTH 19 0
BBX 18 18 0 0
BITMAP
07F800
07F800
180600
180600
201900
C018C0
C018C0
C018C0
C018C0
C018C0
C418C0
C418C0
C418C0
23E100
23E100
180600
1FFE00
07F800
ENDCHAR
STARTCHAR 24C0
ENCODING 9408
SWIDTH 977 0
DWIDTH 19 0
BBX 18 18 0 0
BITMAP
07F800
07F800
180400
180400
261B00
C620C0
C620C0
C6C0C0
C700C0
C700C0
C6C0C0
C620C0
C620C0
261B00
261B00
180400
1FFC00
07F800
ENDCHAR
STARTCHAR 24C1
ENCODING 9409
SWIDTH 977 0
DWIDTH 19 0
BBX 18 18 0 0
BITMAP
07F800
07F800
180600
180600
260100
C600C0
C600C0
C600C0
C600C0
C600C0
C600C0
C600C0
C600C0
27F900
27F900
180600
1FFE00
07F800
ENDCHAR
STARTCHAR 24C2
ENCODING 9410
SWIDTH 977 0
DWIDTH 19 0
BBX 18 18 0 0
BITMAP
07F800
07F800
180600
180600
380700
DE1EC0
DE1EC0
DE1EC0
DB36C0
DB36C0
DB36C0
DB36C0
D8C6C0
38C700
38C700
180600
1FFE00
07F800
ENDCHAR
STARTCHAR 24C3
ENCODING 9411
SWIDTH 977 0
DWIDTH 19 0
BBX 18 18 0 0
BITMAP
07F800
07F800
180400
180400
261B00
C718C0
C718C0
C718C0
C6D8C0
C6D8C0
C638C0
C638C0
C638C0
261B00
261B00
180400
1FFC00
07F800
ENDCHAR
STARTCHAR 24C4
ENCODING 9412
SWIDTH 977 0
DWIDTH 19 0
BBX 18 18 0 0
BITMAP
07F800
07F800
180600
180600
23E100
C418C0
C418C0
C418C0
C418C0
C418C0
C418C0
C418C0
C418C0
23E100
23E100
180600
1FFE00
07F800
ENDCHAR
STARTCHAR 24C5
ENCODING 9413
SWIDTH 977 0
DWIDTH 19 0
BBX 18 18 0 0
BITMAP
07F800
07F800
180400
180400
27E300
C618C0
C618C0
C618C0
C7E0C0
C7E0C0
C600C0
C600C0
C600C0
260300
260300
180400
1FFC00
07F800
ENDCHAR
STARTCHAR 24C6
ENCODING 9414
SWIDTH 977 0
DWIDTH 19 0
BBX 18 18 0 0
BITMAP
07F800
07F800
180600
180600
23E300
C418C0
C418C0
C418C0
C418C0
C418C0
C418C0
C418C0
C498C0
23E300
23E300
181E00
1FFE00
07F800
ENDCHAR
STARTCHAR 24C7
ENCODING 9415
SWIDTH 977 0
DWIDTH 19 0
BBX 18 18 0 0
BITMAP
07F800
07F800
180600
180600
27F100
C608C0
C608C0
C608C0
C7F0C0
C7F0C0
C630C0
C630C0
C608C0
260900
260900
180600
1FFE00
07F800
ENDCHAR
STARTCHAR 24C8
ENCODING 9416
SWIDTH 977 0
DWIDTH 19 0
BBX 18 18 0 0
BITMAP
07F800
07F800
180600
180600
23E100
C418C0
C418C0
C400C0
C3E0C0
C3E0C0
C018C0
C418C0
C418C0
23E100
23E100
180600
1FFE00
07F800
ENDCHAR
STARTCHAR 24C9
ENCODING 9417
SWIDTH 977 0
DWIDTH 19 0
BBX 18 18 0 0
BITMAP
07F800
07F800
180600
180600
27F900
C0C0C0
C0C0C0
C0C0C0
C0C0C0
C0C0C0
C0C0C0
C0C0C0
C0C0C0
20C100
20C100
180600
1FFE00
07F800
ENDCHAR
STARTCHAR 24CA
ENCODING 9418
SWIDTH 977 0
DWIDTH 19 0
BBX 18 18 0 0
BITMAP
07F800
07F800
180600
180600
241900
C418C0
C418C0
C418C0
C418C0
C418C0
C418C0
C418C0
C418C0
23E100
23E100
180600
1FFE00
07F800
ENDCHAR
STARTCHAR 24CB
ENCODING 9419
SWIDTH 977 0
DWIDTH 19 0
BBX 18 18 0 0
BITMAP
07F800
07F800
180600
180600
240900
C408C0
C408C0
C408C0
C330C0
C330C0
C330C0
C0C0C0
C0C0C0
20C100
20C100
180600
1FFE00
07F800
ENDCHAR
STARTCHAR 24CC
ENCODING 9420
SWIDTH 977 0
DWIDTH 19 0
BBX 18 18 0 0
BITMAP
07F800
07F800
180600
380700
380700
D8C6C0
D8C6C0
D8C6C0
DB36C0
DB36C0
DB36C0
C408C0
C408C0
240900
240900
180600
1FFE00
07F800
ENDCHAR
STARTCHAR 24CD
ENCODING 9421
SWIDTH 977 0
DWIDTH 19 0
BBX 18 18 0 0
BITMAP
07F800
07F800
180600
180600
240900
C408C0
C408C0
C330C0
C0C0C0
C0C0C0
C330C0
C408C0
C408C0
240900
240900
180600
1FFE00
07F800
ENDCHAR
STARTCHAR 24CE
ENCODING 9422
SWIDTH 977 0
DWIDTH 19 0
BBX 18 18 0 0
BITMAP
07F800
07F800
180600
180600
240900
C408C0
C408C0
C408C0
C330C0
C330C0
C0C0C0
C0C0C0
C0C0C0
20C100
20C100
180600
1FFE00
07F800
ENDCHAR
STARTCHAR 24CF
ENCODING 9423
SWIDTH 977 0
DWIDTH 19 0
BBX 18 18 0 0
BITMAP
07F800
07F800
180600
180600
27F900
C008C0
C008C0
C030C0
C0C0C0
C0C0C0
C300C0
C300C0
C400C0
27F900
27F900
180600
1FFE00
07F800
ENDCHAR
STARTCHAR 24EA
ENCODING 9450
SWIDTH 977 0
DWIDTH 19 0
BBX 18 18 0 0
BITMAP
07F800
07F800
180600
180600
23E100
C418C0
C418C0
C418C0
C418C0
C418C0
C418C0
C418C0
C418C0
23E100
23E100
180600
1FFE00
07F800
ENDCHAR
STARTCHAR 24EB
ENCODING 9451
SWIDTH 977 0
DWIDTH 19 0
BBX 18 18 0 0
BITMAP
07F800
07F800
3FFF00
39E700
39E700
E1C7C0
E1C7C0
F9E7C0
F9E7C0
F9E7C0
F9E7C0
F9E7C0
F9E7C0
39E700
39E700
3FFF00
3FFF00
07F800
ENDCHAR
STARTCHAR 24EC
ENCODING 9452
SWIDTH 977 0
DWIDTH 19 0
BBX 18 18 0 0
BITMAP
07F800
07F800
3FFF00
39C700
39C700
E139C0
E139C0
F9F9C0
F9E7C0
F9E7C0
F9CFC0
F9FFC0
F93FC0
390100
390100
3FFF00
3FFF00
07F800
ENDCHAR
STARTCHAR 24ED
ENCODING 9453
SWIDTH 977 0
DWIDTH 19 0
BBX 18 18 0 0
BITMAP
07F800
07F800
3FFF00
39C700
39C700
E139C0
E139C0
F9F9C0
F9F9C0
F9C7C0
F9F9C0
F9F9C0
F939C0
39C700
39C700
3FFF00
07F800
07F800
ENDCHAR
STARTCHAR 24EE
ENCODING 9454
SWIDTH 977 0
DWIDTH 19 0
BBX 18 18 0 0
BITMAP
07F800
07F800
3FFF00
39E700
39E700
E1C7C0
F927C0
F927C0
F927C0
F927C0
F901C0
F9E7C0
F9E7C0
39E700
39E700
3FFF00
07F800
07F800
ENDCHAR
STARTCHAR 24EF
ENCODING 9455
SWIDTH 977 0
DWIDTH 19 0
BBX 18 18 0 0
BITMAP
07F800
07F800
3FFF00
390100
390100
E13FC0
E13FC0
F907C0
F939C0
F939C0
F9F9C0
F939C0
F939C0
39C700
39C700
3FFF00
07F800
07F800
ENDCHAR
STARTCHAR 24F0
ENCODING 9456
SWIDTH 977 0
DWIDTH 19 0
BBX 18 18 0 0
BITMAP
07F800
07F800
3FFF00
39C700
39C700
E139C0
E139C0
F93FC0
F907C0
F907C0
F939C0
F939C0
F939C0
39C700
39C700
3FFF00
07F800
07F800
ENDCHAR
STARTCHAR 24F1
ENCODING 9457
SWIDTH 977 0
DWIDTH 19 0
BBX 18 18 0 0
BITMAP
07F800
07F800
3FFF00
390100
390100
E1F9C0
E1F9C0
F9E7C0
F9E7C0
F9E7C0
F9DFC0
F9DFC0
F9DFC0
39DF00
39DF00
3FFF00
3FFF00
07F800
ENDCHAR
STARTCHAR 24F2
ENCODING 9458
SWIDTH 977 0
DWIDTH 19 0
BBX 18 18 0 0
BITMAP
07F800
07F800
3FFF00
39C700
39C700
E139C0
E139C0
F939C0
F9C7C0
F9C7C0
F939C0
F939C0
F939C0
39C700
39C700
3FFF00
07F800
07F800
ENDCHAR
STARTCHAR 24F3
ENCODING 9459
SWIDTH 977 0
DWIDTH 19 0
BBX 18 18 0 0
BITMAP
07F800
07F800
3FFF00
39C700
39C700
E139C0
E139C0
F939C0
F9C1C0
F9C1C0
F9F9C0
F939C0
F939C0
39C700
39C700
3FFF00
07F800
07F800
ENDCHAR
STARTCHAR 24F4
ENCODING 9460
SWIDTH 977 0
DWIDTH 19 0
BBX 18 18 0 0
BITMAP
07F800
07F800
3FFF00
39E700
39E700
E6D9C0
E6D9C0
FED9C0
F9D9C0
F9D9C0
F9D9C0
F9D9C0
E7D9C0
20E700
20E700
3FFF00
07F800
07F800
ENDCHAR
STARTCHAR 24FF
ENCODING 9471
SWIDTH 977 0
DWIDTH 19 0
BBX 18 18 0 0
BITMAP
07F800
07F800
3FFF00
3C1F00
3C1F00
FBE7C0
FBE7C0
FBE7C0
FBE7C0
FBE7C0
FBE7C0
FBE7C0
FBE7C0
3C1F00
3C1F00
3FFF00
3FFF00
07F800
ENDCHAR
STARTCHAR 2500
ENCODING 9472
SWIDTH 977 0
DWIDTH 19 0
BBX 19 2 0 8
BITMAP
FFFFE0
FFFFE0
ENDCHAR
STARTCHAR 2501
ENCODING 9473
SWIDTH 977 0
DWIDTH 19 0
BBX 19 3 0 8
BITMAP
FFFFE0
FFFFE0
FFFFE0
ENDCHAR
STARTCHAR 2502
ENCODING 9474
SWIDTH 977 0
DWIDTH 19 0
BBX 2 19 8 0
BITMAP
C0
C0
C0
C0
C0
C0
C0
C0
C0
C0
C0
C0
C0
C0
C0
C0
C0
C0
C0
ENDCHAR
STARTCHAR 2503
ENCODING 9475
SWIDTH 977 0
DWIDTH 19 0
BBX 3 19 8 0
BITMAP
E0
E0
E0
E0
E0
E0
E0
E0
E0
E0
E0
E0
E0
E0
E0
E0
E0
E0
E0
ENDCHAR
STARTCHAR 2504
ENCODING 9476
SWIDTH 977 0
DWIDTH 19 0
BBX 17 2 0 8
BITMAP
FBEF80
FBEF80
ENDCHAR
STARTCHAR 2505
ENCODING 9477
SWIDTH 977 0
DWIDTH 19 0
BBX 17 3 0 8
BITMAP
FBEF80
FBEF80
FBEF80
ENDCHAR
STARTCHAR 2506
ENCODING 9478
SWIDTH 977 0
DWIDTH 19 0
BBX 2 18 8 0
BITMAP
C0
C0
C0
C0
C0
00
00
C0
C0
C0
C0
C0
00
C0
C0
C0
C0
C0
ENDCHAR
STARTCHAR 2507
ENCODING 9479
SWIDTH 977 0
DWIDTH 19 0
BBX 3 18 8 0
BITMAP
E0
E0
E0
E0
E0
00
00
E0
E0
E0
E0
E0
00
E0
E0
E0
E0
E0
ENDCHAR
STARTCHAR 2508
ENCODING 9480
SWIDTH 977 0
DWIDTH 19 0
BBX 18 2 0 8
BITMAP
E739C0
E739C0
ENDCHAR
STARTCHAR 2509
ENCODING 9481
SWIDTH 977 0
DWIDTH 19 0
BBX 18 3 0 8
BITMAP
E739C0
E739C0
E739C0
ENDCHAR
STARTCHAR 250A
ENCODING 9482
SWIDTH 977 0
DWIDTH 19 0
BBX 2 18 8 0
BITMAP
C0
C0
C0
00
00
C0
C0
C0
00
00
C0
C0
C0
00
00
C0
C0
C0
ENDCHAR
STARTCHAR 250B
ENCODING 9483
SWIDTH 977 0
DWIDTH 19 0
BBX 3 18 8 0
BITMAP
E0
E0
E0
00
00
E0
E0
E0
00
00
E0
E0
E0
00
00
E0
E0
E0
ENDCHAR
STARTCHAR 250C
ENCODING 9484
SWIDTH 977 0
DWIDTH 19 0
BBX 11 10 8 0
BITMAP
FFE0
FFE0
C000
C000
C000
C000
C000
C000
C000
C000
ENDCHAR
STARTCHAR 250D
ENCODING 9485
SWIDTH 977 0
DWIDTH 19 0
BBX 11 11 8 0
BITMAP
FFE0
FFE0
FFE0
C000
C000
C000
C000
C000
C000
C000
C000
ENDCHAR
STARTCHAR 250E
ENCODING 9486
SWIDTH 977 0
DWIDTH 19 0
BBX 11 10 8 0
BITMAP
FFE0
FFE0
E000
E000
E000
E000
E000
E000
E000
E000
ENDCHAR
STARTCHAR 250F
ENCODING 9487
SWIDTH 977 0
DWIDTH 19 0
BBX 11 11 8 0
BITMAP
FFE0
FFE0
FFE0
E000
E000
E000
E000
E000
E000
E000
E000
ENDCHAR
STARTCHAR 2510
ENCODING 9488
SWIDTH 977 0
DWIDTH 19 0
BBX 10 10 0 0
BITMAP
FFC0
FFC0
00C0
00C0
00C0
00C0
00C0
00C0
00C0
00C0
ENDCHAR
STARTCHAR 2511
ENCODING 9489
SWIDTH 977 0
DWIDTH 19 0
BBX 10 11 0 0
BITMAP
FFC0
FFC0
FFC0
00C0
00C0
00C0
00C0
00C0
00C0
00C0
00C0
ENDCHAR
STARTCHAR 2512
ENCODING 9490
SWIDTH 977 0
DWIDTH 19 0
BBX 11 10 0 0
BITMAP
FFE0
FFE0
00E0
00E0
00E0
00E0
00E0
00E0
00E0
00E0
ENDCHAR
STARTCHAR 2513
ENCODING 9491
SWIDTH 977 0
DWIDTH 19 0
BBX 11 11 0 0
BITMAP
FFE0
FFE0
FFE0
00E0
00E0
00E0
00E0
00E0
00E0
00E0
00E0
ENDCHAR
STARTCHAR 2514
ENCODING 9492
SWIDTH 977 0
DWIDTH 19 0
BBX 11 11 8 8
BITMAP
C000
C000
C000
C000
C000
C000
C000
C000
C000
FFE0
FFE0
ENDCHAR
STARTCHAR 2515
ENCODING 9493
SWIDTH 977 0
DWIDTH 19 0
BBX 11 11 8 8
BITMAP
C000
C000
C000
C000
C000
C000
C000
C000
FFE0
FFE0
FFE0
ENDCHAR
STARTCHAR 2516
ENCODING 9494
SWIDTH 977 0
DWIDTH 19 0
BBX 11 11 8 8
BITMAP
E000
E000
E000
E000
E000
E000
E000
E000
E000
FFE0
FFE0
ENDCHAR
STARTCHAR 2517
ENCODING 9495
SWIDTH 977 0
DWIDTH 19 0
BBX 11 11 8 8
BITMAP
E000
E000
E000
E000
E000
E000
E000
E000
FFE0
FFE0
FFE0
ENDCHAR
STARTCHAR 2518
ENCODING 9496
SWIDTH 977 0
DWIDTH 19 0
BBX 10 11 0 8
BITMAP
00C0
00C0
00C0
00C0
00C0
00C0
00C0
00C0
00C0
FFC0
FFC0
ENDCHAR
STARTCHAR 2519
ENCODING 9497
SWIDTH 977 0
DWIDTH 19 0
BBX 10 11 0 8
BITMAP
00C0
00C0
00C0
00C0
00C0
00C0
00C0
00C0
FFC0
FFC0
FFC0
ENDCHAR
STARTCHAR 251A
ENCODING 9498
SWIDTH 977 0
DWIDTH 19 0
BBX 11 11 0 8
BITMAP
00E0
00E0
00E0
00E0
00E0
00E0
00E0
00E0
00E0
FFE0
FFE0
ENDCHAR
STARTCHAR 251B
ENCODING 9499
SWIDTH 977 0
DWIDTH 19 0
BBX 11 11 0 8
BITMAP
00E0
00E0
00E0
00E0
00E0
00E0
00E0
00E0
FFE0
FFE0
FFE0
ENDCHAR
STARTCHAR 251C
ENCODING 9500
SWIDTH 977 0
DWIDTH 19 0
BBX 11 19 8 0
BITMAP
C000
C000
C000
C000
C000
C000
C000
C000
C000
FFE0
FFE0
C000
C000
C000
C000
C000
C000
C000
C000
ENDCHAR
STARTCHAR 251D
ENCODING 9501
SWIDTH 977 0
DWIDTH 19 0
BBX 11 19 8 0
BITMAP
C000
C000
C000
C000
C000
C000
C000
C000
FFE0
FFE0
FFE0
C000
C000
C000
C000
C000
C000
C000
C000
ENDCHAR
STARTCHAR 251E
ENCODING 9502
SWIDTH 977 0
DWIDTH 19 0
BBX 11 19 8 0
BITMAP
E000
E000
E000
E000
E000
E000
E000
E000
E000
FFE0
FFE0
C000
C000
C000
C000
C000
C000
C000
C000
ENDCHAR
STARTCHAR 251F
ENCODING 9503
SWIDTH 977 0
DWIDTH 19 0
BBX 11 19 8 0
BITMAP
C000
C000
C000
C000
C000
C000
C000
C000
C000
FFE0
FFE0
E000
E000
E000
E000
E000
E000
E000
E000
ENDCHAR
STARTCHAR 2520
ENCODING 9504
SWIDTH 977 0
DWIDTH 19 0
BBX 11 19 8 0
BITMAP
E000
E000
E000
E000
E000
E000
E000
E000
E000
FFE0
FFE0
E000
E000
E000
E000
E000
E000
E000
E000
ENDCHAR
STARTCHAR 2521
ENCODING 9505
SWIDTH 977 0
DWIDTH 19 0
BBX 11 19 8 0
BITMAP
E000
E000
E000
E000
E000
E000
E000
E000
FFE0
FFE0
FFE0
C000
C000
C000
C000
C000
C000
C000
C000
ENDCHAR
STARTCHAR 2522
ENCODING 9506
SWIDTH 977 0
DWIDTH 19 0
BBX 11 19 8 0
BITMAP
C000
C000
C000
C000
C000
C000
C000
C000
FFE0
FFE0
FFE0
E000
E000
E000
E000
E000
E000
E000
E000
ENDCHAR
STARTCHAR 2523
ENCODING 9507
SWIDTH 977 0
DWIDTH 19 0
BBX 11 19 8 0
BITMAP
E000
E000
E000
E000
E000
E000
E000
E000
FFE0
FFE0
FFE0
E000
E000
E000
E000
E000
E000
E000
E000
ENDCHAR
STARTCHAR 2524
ENCODING 9508
SWIDTH 977 0
DWIDTH 19 0
BBX 10 19 0 0
BITMAP
00C0
00C0
00C0
00C0
00C0
00C0
00C0
00C0
00C0
FFC0
FFC0
00C0
00C0
00C0
00C0
00C0
00C0
00C0
00C0
ENDCHAR
STARTCHAR 2525
ENCODING 9509
SWIDTH 977 0
DWIDTH 19 0
BBX 10 19 0 0
BITMAP
00C0
00C0
00C0
00C0
00C0
00C0
00C0
00C0
FFC0
FFC0
FFC0
00C0
00C0
00C0
00C0
00C0
00C0
00C0
00C0
ENDCHAR
STARTCHAR 2526
ENCODING 9510
SWIDTH 977 0
DWIDTH 19 0
BBX 11 19 0 0
BITMAP
00E0
00E0
00E0
00E0
00E0
00E0
00E0
00E0
00E0
FFE0
FFE0
00C0
00C0
00C0
00C0
00C0
00C0
00C0
00C0
ENDCHAR
STARTCHAR 2527
ENCODING 9511
SWIDTH 977 0
DWIDTH 19 0
BBX 11 19 0 0
BITMAP
00C0
00C0
00C0
00C0
00C0
00C0
00C0
00C0
00C0
FFE0
FFE0
00E0
00E0
00E0
00E0
00E0
00E0
00E0
00E0
ENDCHAR
STARTCHAR 2528
ENCODING 9512
SWIDTH 977 0
DWIDTH 19 0
BBX 11 19 0 0
BITMAP
00E0
00E0
00E0
00E0
00E0
00E0
00E0
00E0
00E0
FFE0
FFE0
00E0
00E0
00E0
00E0
00E0
00E0
00E0
00E0
ENDCHAR
STARTCHAR 2529
ENCODING 9513
SWIDTH 977 0
DWIDTH 19 0
BBX 11 19 0 0
BITMAP
00E0
00E0
00E0
00E0
00E0
00E0
00E0
00E0
FFE0
FFE0
FFE0
00C0
00C0
00C0
00C0
00C0
00C0
00C0
00C0
ENDCHAR
STARTCHAR 252A
ENCODING 9514
SWIDTH 977 0
DWIDTH 19 0
BBX 11 19 0 0
BITMAP
00C0
00C0
00C0
00C0
00C0
00C0
00C0
00C0
FFE0
FFE0
FFE0
00E0
00E0
00E0
00E0
00E0
00E0
00E0
00E0
ENDCHAR
STARTCHAR 252B
ENCODING 9515
SWIDTH 977 0
DWIDTH 19 0
BBX 11 19 0 0
BITMAP
00E0
00E0
00E0
00E0
00E0
00E0
00E0
00E0
FFE0
FFE0
FFE0
00E0
00E0
00E0
00E0
00E0
00E0
00E0
00E0
ENDCHAR
STARTCHAR 252C
ENCODING 9516
SWIDTH 977 0
DWIDTH 19 0
BBX 19 10 0 0
BITMAP
FFFFE0
FFFFE0
00C000
00C000
00C000
00C000
00C000
00C000
00C000
00C000
ENDCHAR
STARTCHAR 252D
ENCODING 9517
SWIDTH 977 0
DWIDTH 19 0
BBX 19 11 0 0
BITMAP
FFC000
FFFFE0
FFFFE0
00C000
00C000
00C000
00C000
00C000
00C000
00C000
00C000
ENDCHAR
STARTCHAR 252E
ENCODING 9518
SWIDTH 977 0
DWIDTH 19 0
BBX 19 11 0 0
BITMAP
00FFE0
FFFFE0
FFFFE0
00C000
00C000
00C000
00C000
00C000
00C000
00C000
00C000
ENDCHAR
STARTCHAR 252F
ENCODING 9519
SWIDTH 977 0
DWIDTH 19 0
BBX 19 11 0 0
BITMAP
FFFFE0
FFFFE0
FFFFE0
00C000
00C000
00C000
00C000
00C000
00C000
00C000
00C000
ENDCHAR
STARTCHAR 2530
ENCODING 9520
SWIDTH 977 0
DWIDTH 19 0
BBX 19 10 0 0
BITMAP
FFFFE0
FFFFE0
00E000
00E000
00E000
00E000
00E000
00E000
00E000
00E000
ENDCHAR
STARTCHAR 2531
ENCODING 9521
SWIDTH 977 0
DWIDTH 19 0
BBX 19 11 0 0
BITMAP
FFE000
FFFFE0
FFFFE0
00E000
00E000
00E000
00E000
00E000
00E000
00E000
00E000
ENDCHAR
STARTCHAR 2532
ENCODING 9522
SWIDTH 977 0
DWIDTH 19 0
BBX 19 11 0 0
BITMAP
00FFE0
FFFFE0
FFFFE0
00E000
00E000
00E000
00E000
00E000
00E000
00E000
00E000
ENDCHAR
STARTCHAR 2533
ENCODING 9523
SWIDTH 977 0
DWIDTH 19 0
BBX 19 11 0 0
BITMAP
FFFFE0
FFFFE0
FFFFE0
00E000
00E000
00E000
00E000
00E000
00E000
00E000
00E000
ENDCHAR
STARTCHAR 2534
ENCODING 9524
SWIDTH 977 0
DWIDTH 19 0
BBX 19 11 0 8
BITMAP
00C000
00C000
00C000
00C000
00C000
00C000
00C000
00C000
00C000
FFFFE0
FFFFE0
ENDCHAR
STARTCHAR 2535
ENCODING 9525
SWIDTH 977 0
DWIDTH 19 0
BBX 19 11 0 8
BITMAP
00C000
00C000
00C000
00C000
00C000
00C000
00C000
00C000
FFC000
FFFFE0
FFFFE0
ENDCHAR
STARTCHAR 2536
ENCODING 9526
SWIDTH 977 0
DWIDTH 19 0
BBX 19 11 0 8
BITMAP
00C000
00C000
00C000
00C000
00C000
00C000
00C000
00C000
00FFE0
FFFFE0
FFFFE0
ENDCHAR
STARTCHAR 2537
ENCODING 9527
SWIDTH 977 0
DWIDTH 19 0
BBX 19 11 0 8
BITMAP
00C000
00C000
00C000
00C000
00C000
00C000
00C000
00C000
FFFFE0
FFFFE0
FFFFE0
ENDCHAR
STARTCHAR 2538
ENCODING 9528
SWIDTH 977 0
DWIDTH 19 0
BBX 19 11 0 8
BITMAP
00E000
00E000
00E000
00E000
00E000
00E000
00E000
00E000
00E000
FFFFE0
FFFFE0
ENDCHAR
STARTCHAR 2539
ENCODING 9529
SWIDTH 977 0
DWIDTH 19 0
BBX 19 11 0 8
BITMAP
00E000
00E000
00E000
00E000
00E000
00E000
00E000
00E000
FFE000
FFFFE0
FFFFE0
ENDCHAR
STARTCHAR 253A
ENCODING 9530
SWIDTH 977 0
DWIDTH 19 0
BBX 19 11 0 8
BITMAP
00E000
00E000
00E000
00E000
00E000
00E000
00E000
00E000
00FFE0
FFFFE0
FFFFE0
ENDCHAR
STARTCHAR 253B
ENCODING 9531
SWIDTH 977 0
DWIDTH 19 0
BBX 19 11 0 8
BITMAP
00E000
00E000
00E000
00E000
00E000
00E000
00E000
00E000
FFFFE0
FFFFE0
FFFFE0
ENDCHAR
STARTCHAR 253C
ENCODING 9532
SWIDTH 977 0
DWIDTH 19 0
BBX 19 19 0 0
BITMAP
00C000
00C000
00C000
00C000
00C000
00C000
00C000
00C000
00C000
FFFFE0
FFFFE0
00C000
00C000
00C000
00C000
00C000
00C000
00C000
00C000
ENDCHAR
STARTCHAR 253D
ENCODING 9533
SWIDTH 977 0
DWIDTH 19 0
BBX 19 19 0 0
BITMAP
00C000
00C000
00C000
00C000
00C000
00C000
00C000
00C000
FFC000
FFFFE0
FFFFE0
00C000
00C000
00C000
00C000
00C000
00C000
00C000
00C000
ENDCHAR
STARTCHAR 253E
ENCODING 9534
SWIDTH 977 0
DWIDTH 19 0
BBX 19 19 0 0
BITMAP
00C000
00C000
00C000
00C000
00C000
00C000
00C000
00C000
00FFE0
FFFFE0
FFFFE0
00C000
00C000
00C000
00C000
00C000
00C000
00C000
00C000
ENDCHAR
STARTCHAR 253F
ENCODING 9535
SWIDTH 977 0
DWIDTH 19 0
BBX 19 19 0 0
BITMAP
00C000
00C000
00C000
00C000
00C000
00C000
00C000
00C000
FFFFE0
FFFFE0
FFFFE0
00C000
00C000
00C000
00C000
00C000
00C000
00C000
00C000
ENDCHAR
STARTCHAR 2540
ENCODING 9536
SWIDTH 977 0
DWIDTH 19 0
BBX 19 19 0 0
BITMAP
00E000
00E000
00E000
00E000
00E000
00E000
00E000
00E000
00E000
FFFFE0
FFFFE0
00C000
00C000
00C000
00C000
00C000
00C000
00C000
00C000
ENDCHAR
STARTCHAR 2541
ENCODING 9537
SWIDTH 977 0
DWIDTH 19 0
BBX 19 19 0 0
BITMAP
00C000
00C000
00C000
00C000
00C000
00C000
00C000
00C000
00C000
FFFFE0
FFFFE0
00E000
00E000
00E000
00E000
00E000
00E000
00E000
00E000
ENDCHAR
STARTCHAR 2542
ENCODING 9538
SWIDTH 977 0
DWIDTH 19 0
BBX 19 19 0 0
BITMAP
00E000
00E000
00E000
00E000
00E000
00E000
00E000
00E000
00E000
FFFFE0
FFFFE0
00E000
00E000
00E000
00E000
00E000
00E000
00E000
00E000
ENDCHAR
STARTCHAR 2543
ENCODING 9539
SWIDTH 977 0
DWIDTH 19 0
BBX 19 19 0 0
BITMAP
00E000
00E000
00E000
00E000
00E000
00E000
00E000
00E000
FFE000
FFFFE0
FFFFE0
00C000
00C000
00C000
00C000
00C000
00C000
00C000
00C000
ENDCHAR
STARTCHAR 2544
ENCODING 9540
SWIDTH 977 0
DWIDTH 19 0
BBX 19 19 0 0
BITMAP
00E000
00E000
00E000
00E000
00E000
00E000
00E000
00E000
00FFE0
FFFFE0
FFFFE0
00C000
00C000
00C000
00C000
00C000
00C000
00C000
00C000
ENDCHAR
STARTCHAR 2545
ENCODING 9541
SWIDTH 977 0
DWIDTH 19 0
BBX 19 19 0 0
BITMAP
00C000
00C000
00C000
00C000
00C000
00C000
00C000
00C000
FFE000
FFFFE0
FFFFE0
00E000
00E000
00E000
00E000
00E000
00E000
00E000
00E000
ENDCHAR
STARTCHAR 2546
ENCODING 9542
SWIDTH 977 0
DWIDTH 19 0
BBX 19 19 0 0
BITMAP
00C000
00C000
00C000
00C000
00C000
00C000
00C000
00C000
00FFE0
FFFFE0
FFFFE0
00E000
00E000
00E000
00E000
00E000
00E000
00E000
00E000
ENDCHAR
STARTCHAR 2547
ENCODING 9543
SWIDTH 977 0
DWIDTH 19 0
BBX 19 19 0 0
BITMAP
00E000
00E000
00E000
00E000
00E000
00E000
00E000
00E000
FFFFE0
FFFFE0
FFFFE0
00C000
00C000
00C000
00C000
00C000
00C000
00C000
00C000
ENDCHAR
STARTCHAR 2548
ENCODING 9544
SWIDTH 977 0
DWIDTH 19 0
BBX 19 19 0 0
BITMAP
00C000
00C000
00C000
00C000
00C000
00C000
00C000
00C000
FFFFE0
FFFFE0
FFFFE0
00E000
00E000
00E000
00E000
00E000
00E000
00E000
00E000
ENDCHAR
STARTCHAR 2549
ENCODING 9545
SWIDTH 977 0
DWIDTH 19 0
BBX 19 19 0 0
BITMAP
00E000
00E000
00E000
00E000
00E000
00E000
00E000
00E000
FFE000
FFFFE0
FFFFE0
00E000
00E000
00E000
00E000
00E000
00E000
00E000
00E000
ENDCHAR
STARTCHAR 254A
ENCODING 9546
SWIDTH 977 0
DWIDTH 19 0
BBX 19 19 0 0
BITMAP
00E000
00E000
00E000
00E000
00E000
00E000
00E000
00E000
00FFE0
FFFFE0
FFFFE0
00E000
00E000
00E000
00E000
00E000
00E000
00E000
00E000
ENDCHAR
STARTCHAR 254B
ENCODING 9547
SWIDTH 977 0
DWIDTH 19 0
BBX 19 19 0 0
BITMAP
00E000
00E000
00E000
00E000
00E000
00E000
00E000
00E000
FFFFE0
FFFFE0
FFFFE0
00E000
00E000
00E000
00E000
00E000
00E000
00E000
00E000
ENDCHAR
STARTCHAR 254C
ENCODING 9548
SWIDTH 977 0
DWIDTH 19 0
BBX 18 2 0 8
BITMAP
FF3FC0
FF3FC0
ENDCHAR
STARTCHAR 254D
ENCODING 9549
SWIDTH 977 0
DWIDTH 19 0
BBX 18 3 0 8
BITMAP
FF3FC0
FF3FC0
FF3FC0
ENDCHAR
STARTCHAR 254E
ENCODING 9550
SWIDTH 977 0
DWIDTH 19 0
BBX 2 18 8 0
BITMAP
C0
C0
C0
C0
C0
C0
C0
C0
00
00
C0
C0
C0
C0
C0
C0
C0
C0
ENDCHAR
STARTCHAR 254F
ENCODING 9551
SWIDTH 977 0
DWIDTH 19 0
BBX 3 18 8 0
BITMAP
E0
E0
E0
E0
E0
E0
E0
E0
00
00
E0
E0
E0
E0
E0
E0
E0
E0
ENDCHAR
STARTCHAR 2550
ENCODING 9552
SWIDTH 977 0
DWIDTH 19 0
BBX 19 6 0 6
BITMAP
FFFFE0
FFFFE0
000000
000000
FFFFE0
FFFFE0
ENDCHAR
STARTCHAR 2551
ENCODING 9553
SWIDTH 977 0
DWIDTH 19 0
BBX 5 19 6 0
BITMAP
D8
D8
D8
D8
D8
D8
D8
D8
D8
D8
D8
D8
D8
D8
D8
D8
D8
D8
D8
ENDCHAR
STARTCHAR 2552
ENCODING 9554
SWIDTH 977 0
DWIDTH 19 0
BBX 11 12 8 0
BITMAP
FFE0
FFE0
C000
C000
FFE0
FFE0
C000
C000
C000
C000
C000
C000
ENDCHAR
STARTCHAR 2553
ENCODING 9555
SWIDTH 977 0
DWIDTH 19 0
BBX 13 10 6 0
BITMAP
FFF8
FFF8
D800
D800
D800
D800
D800
D800
D800
D800
ENDCHAR
STARTCHAR 2554
ENCODING 9556
SWIDTH 977 0
DWIDTH 19 0
BBX 13 12 6 0
BITMAP
FFF8
FFF8
C000
C000
DFF8
DFF8
D800
D800
D800
D800
D800
D800
ENDCHAR
STARTCHAR 2555
ENCODING 9557
SWIDTH 977 0
DWIDTH 19 0
BBX 10 12 0 0
BITMAP
FFC0
FFC0
00C0
00C0
FFC0
FFC0
00C0
00C0
00C0
00C0
00C0
00C0
ENDCHAR
STARTCHAR 2556
ENCODING 9558
SWIDTH 977 0
DWIDTH 19 0
BBX 11 10 0 0
BITMAP
FFE0
FFE0
0360
0360
0360
0360
0360
0360
0360
0360
ENDCHAR
STARTCHAR 2557
ENCODING 9559
SWIDTH 977 0
DWIDTH 19 0
BBX 11 12 0 0
BITMAP
FFE0
FFE0
0060
0060
FF60
FF60
0360
0360
0360
0360
0360
0360
ENDCHAR
STARTCHAR 2558
ENCODING 9560
SWIDTH 977 0
DWIDTH 19 0
BBX 11 13 8 6
BITMAP
C000
C000
C000
C000
C000
C000
C000
FFE0
FFE0
C000
C000
FFE0
FFE0
ENDCHAR
STARTCHAR 2559
ENCODING 9561
SWIDTH 977 0
DWIDTH 19 0
BBX 13 11 6 8
BITMAP
D800
D800
D800
D800
D800
D800
D800
D800
D800
FFF8
FFF8
ENDCHAR
STARTCHAR 255A
ENCODING 9562
SWIDTH 977 0
DWIDTH 19 0
BBX 13 14 6 6
BITMAP
D800
D800
D800
D800
D800
D800
D800
D800
DFF8
DFF8
C000
C000
FFF8
FFF8
ENDCHAR
STARTCHAR 255B
ENCODING 9563
SWIDTH 977 0
DWIDTH 19 0
BBX 10 13 0 6
BITMAP
00C0
00C0
00C0
00C0
00C0
00C0
00C0
FFC0
FFC0
00C0
00C0
FFC0
FFC0
ENDCHAR
STARTCHAR 255C
ENCODING 9564
SWIDTH 977 0
DWIDTH 19 0
BBX 11 11 0 8
BITMAP
0360
0360
0360
0360
0360
0360
0360
0360
0360
FFE0
FFE0
ENDCHAR
STARTCHAR 255D
ENCODING 9565
SWIDTH 977 0
DWIDTH 19 0
BBX 11 14 0 6
BITMAP
0360
0360
0360
0360
0360
0360
0360
0360
FF60
FF60
0060
0060
FFE0
FFE0
ENDCHAR
STARTCHAR 255E
ENCODING 9566
SWIDTH 977 0
DWIDTH 19 0
BBX 11 19 8 0
BITMAP
C000
C000
C000
C000
C000
C000
C000
FFE0
FFE0
C000
C000
FFE0
FFE0
C000
C000
C000
C000
C000
C000
ENDCHAR
STARTCHAR 255F
ENCODING 9567
SWIDTH 977 0
DWIDTH 19 0
BBX 13 19 6 0
BITMAP
D800
D800
D800
D800
D800
D800
D800
D800
D800
DFF8
DFF8
D800
D800
D800
D800
D800
D800
D800
D800
ENDCHAR
STARTCHAR 2560
ENCODING 9568
SWIDTH 977 0
DWIDTH 19 0
BBX 13 19 6 0
BITMAP
D800
D800
D800
D800
D800
D800
D800
DFF8
DFF8
C000
C000
DFF8
DFF8
D800
D800
D800
D800
D800
D800
ENDCHAR
STARTCHAR 2561
ENCODING 9569
SWIDTH 977 0
DWIDTH 19 0
BBX 10 19 0 0
BITMAP
00C0
00C0
00C0
00C0
00C0
00C0
00C0
FFC0
FFC0
00C0
00C0
FFC0
FFC0
00C0
00C0
00C0
00C0
00C0
00C0
ENDCHAR
STARTCHAR 2562
ENCODING 9570
SWIDTH 977 0
DWIDTH 19 0
BBX 11 19 0 0
BITMAP
0360
0360
0360
0360
0360
0360
0360
0360
0360
FF60
FF60
0360
0360
0360
0360
0360
0360
0360
0360
ENDCHAR
STARTCHAR 2563
ENCODING 9571
SWIDTH 977 0
DWIDTH 19 0
BBX 11 19 0 0
BITMAP
0360
0360
0360
0360
0360
0360
0360
FF60
FF60
0060
0060
FF60
FF60
0360
0360
0360
0360
0360
0360
ENDCHAR
STARTCHAR 2564
ENCODING 9572
SWIDTH 977 0
DWIDTH 19 0
BBX 19 12 0 0
BITMAP
FFFFE0
FFFFE0
000000
000000
FFFFE0
FFFFE0
00C000
00C000
00C000
00C000
00C000
00C000
ENDCHAR
STARTCHAR 2565
ENCODING 9573
SWIDTH 977 0
DWIDTH 19 0
BBX 19 10 0 0
BITMAP
FFFFE0
FFFFE0
032000
032000
032000
032000
032000
032000
032000
032000
ENDCHAR
STARTCHAR 2566
ENCODING 9574
SWIDTH 977 0
DWIDTH 19 0
BBX 19 12 0 0
BITMAP
FFFFE0
FFFFE0
000000
000000
FF3FE0
FF3FE0
032000
032000
032000
032000
032000
032000
ENDCHAR
STARTCHAR 2567
ENCODING 9575
SWIDTH 977 0
DWIDTH 19 0
BBX 19 14 0 6
BITMAP
00C000
00C000
00C000
00C000
00C000
00C000
00C000
00C000
FFFFE0
FFFFE0
000000
000000
FFFFE0
FFFFE0
ENDCHAR
STARTCHAR 2568
ENCODING 9576
SWIDTH 977 0
DWIDTH 19 0
BBX 19 11 0 8
BITMAP
032000
032000
032000
032000
032000
032000
032000
032000
032000
FFFFE0
FFFFE0
ENDCHAR
STARTCHAR 2569
ENCODING 9577
SWIDTH 977 0
DWIDTH 19 0
BBX 19 14 0 6
BITMAP
032000
032000
032000
032000
032000
032000
032000
032000
FF3FE0
FF3FE0
000000
000000
FFFFE0
FFFFE0
ENDCHAR
STARTCHAR 256A
ENCODING 9578
SWIDTH 977 0
DWIDTH 19 0
BBX 19 19 0 0
BITMAP
00C000
00C000
00C000
00C000
00C000
00C000
00C000
FFFFE0
FFFFE0
00C000
00C000
FFFFE0
FFFFE0
00C000
00C000
00C000
00C000
00C000
00C000
ENDCHAR
STARTCHAR 256B
ENCODING 9579
SWIDTH 977 0
DWIDTH 19 0
BBX 19 19 0 0
BITMAP
032000
032000
032000
032000
032000
032000
032000
032000
032000
FFFFE0
FFFFE0
032000
032000
032000
032000
032000
032000
032000
032000
ENDCHAR
STARTCHAR 256C
ENCODING 9580
SWIDTH 977 0
DWIDTH 19 0
BBX 19 20 0 0
BITMAP
036000
036000
036000
036000
036000
036000
036000
036000
FF7FE0
FF7FE0
000000
000000
FF7FE0
FF7FE0
036000
036000
036000
036000
036000
036000
ENDCHAR
STARTCHAR 256D
ENCODING 9581
SWIDTH 977 0
DWIDTH 19 0
BBX 11 10 8 0
BITMAP
00E0
00E0
0700
0700
1800
2000
2000
2000
C000
C000
ENDCHAR
STARTCHAR 256E
ENCODING 9582
SWIDTH 977 0
DWIDTH 19 0
BBX 10 10 0 0
BITMAP
C000
C000
3800
3800
0600
0100
0100
0100
00C0
00C0
ENDCHAR
STARTCHAR 256F
ENCODING 9583
SWIDTH 977 0
DWIDTH 19 0
BBX 10 11 0 8
BITMAP
00C0
00C0
00C0
0100
0100
0100
0600
0600
3800
C000
C000
ENDCHAR
STARTCHAR 2570
ENCODING 9584
SWIDTH 977 0
DWIDTH 19 0
BBX 11 11 8 8
BITMAP
C000
C000
C000
2000
2000
2000
1800
1800
0700
00E0
00E0
ENDCHAR
STARTCHAR 2571
ENCODING 9585
SWIDTH 977 0
DWIDTH 19 0
BBX 20 20 0 0
BITMAP
000030
000030
0000C0
0000C0
000100
000100
000600
000800
000800
003000
00C000
00C000
030000
040000
040000
180000
180000
200000
E00000
C00000
ENDCHAR
STARTCHAR 2572
ENCODING 9586
SWIDTH 977 0
DWIDTH 19 0
BBX 18 18 0 0
BITMAP
C00000
C00000
200000
200000
180000
040000
040000
030000
00C000
00C000
003000
000800
000800
000600
000600
000100
0001C0
0000C0
ENDCHAR
STARTCHAR 2573
ENCODING 9587
SWIDTH 977 0
DWIDTH 19 0
BBX 20 20 0 0
BITMAP
000030
000030
C000C0
C000C0
200100
200100
180600
040800
040800
033000
00C000
00C000
033000
040800
040800
180600
180600
200100
E001C0
C000C0
ENDCHAR
STARTCHAR 2574
ENCODING 9588
SWIDTH 977 0
DWIDTH 19 0
BBX 10 2 0 8
BITMAP
FFC0
FFC0
ENDCHAR
STARTCHAR 2575
ENCODING 9589
SWIDTH 977 0
DWIDTH 19 0
BBX 2 11 8 8
BITMAP
C0
C0
C0
C0
C0
C0
C0
C0
C0
C0
C0
ENDCHAR
STARTCHAR 2576
ENCODING 9590
SWIDTH 977 0
DWIDTH 19 0
BBX 11 2 8 8
BITMAP
FFE0
FFE0
ENDCHAR
STARTCHAR 2577
ENCODING 9591
SWIDTH 977 0
DWIDTH 19 0
BBX 2 10 8 0
BITMAP
C0
C0
C0
C0
C0
C0
C0
C0
C0
C0
ENDCHAR
STARTCHAR 2578
ENCODING 9592
SWIDTH 977 0
DWIDTH 19 0
BBX 10 3 0 8
BITMAP
FFC0
FFC0
FFC0
ENDCHAR
STARTCHAR 2579
ENCODING 9593
SWIDTH 977 0
DWIDTH 19 0
BBX 3 11 8 8
BITMAP
E0
E0
E0
E0
E0
E0
E0
E0
E0
E0
E0
ENDCHAR
STARTCHAR 257A
ENCODING 9594
SWIDTH 977 0
DWIDTH 19 0
BBX 11 3 8 8
BITMAP
FFE0
FFE0
FFE0
ENDCHAR
STARTCHAR 257B
ENCODING 9595
SWIDTH 977 0
DWIDTH 19 0
BBX 3 10 8 0
BITMAP
E0
E0
E0
E0
E0
E0
E0
E0
E0
E0
ENDCHAR
STARTCHAR 257C
ENCODING 9596
SWIDTH 977 0
DWIDTH 19 0
BBX 19 3 0 8
BITMAP
00FFE0
FFFFE0
FFFFE0
ENDCHAR
STARTCHAR 257D
ENCODING 9597
SWIDTH 977 0
DWIDTH 19 0
BBX 3 19 8 0
BITMAP
C0
C0
C0
C0
C0
C0
C0
C0
C0
E0
E0
E0
E0
E0
E0
E0
E0
E0
E0
ENDCHAR
STARTCHAR 257E
ENCODING 9598
SWIDTH 977 0
DWIDTH 19 0
BBX 19 3 0 8
BITMAP
FFC000
FFFFE0
FFFFE0
ENDCHAR
STARTCHAR 257F
ENCODING 9599
SWIDTH 977 0
DWIDTH 19 0
BBX 3 19 8 0
BITMAP
E0
E0
E0
E0
E0
E0
E0
E0
E0
E0
E0
C0
C0
C0
C0
C0
C0
C0
C0
ENDCHAR
STARTCHAR 2580
ENCODING 9600
SWIDTH 977 0
DWIDTH 19 0
BBX 19 10 0 10
BITMAP
FFFFE0
FFFFE0
FFFFE0
FFFFE0
FFFFE0
FFFFE0
FFFFE0
FFFFE0
FFFFE0
FFFFE0
ENDCHAR
STARTCHAR 2581
ENCODING 9601
SWIDTH 977 0
DWIDTH 19 0
BBX 19 3 0 0
BITMAP
FFFFE0
FFFFE0
FFFFE0
ENDCHAR
STARTCHAR 2582
ENCODING 9602
SWIDTH 977 0
DWIDTH 19 0
BBX 19 5 0 0
BITMAP
FFFFE0
FFFFE0
FFFFE0
FFFFE0
FFFFE0
ENDCHAR
STARTCHAR 2583
ENCODING 9603
SWIDTH 977 0
DWIDTH 19 0
BBX 19 8 0 0
BITMAP
FFFFE0
FFFFE0
FFFFE0
FFFFE0
FFFFE0
FFFFE0
FFFFE0
FFFFE0
ENDCHAR
STARTCHAR 2584
ENCODING 9604
SWIDTH 977 0
DWIDTH 19 0
BBX 19 10 0 0
BITMAP
FFFFE0
FFFFE0
FFFFE0
FFFFE0
FFFFE0
FFFFE0
FFFFE0
FFFFE0
FFFFE0
FFFFE0
ENDCHAR
STARTCHAR 2585
ENCODING 9605
SWIDTH 977 0
DWIDTH 19 0
BBX 19 13 0 0
BITMAP
FFFFE0
FFFFE0
FFFFE0
FFFFE0
FFFFE0
FFFFE0
FFFFE0
FFFFE0
FFFFE0
FFFFE0
FFFFE0
FFFFE0
FFFFE0
ENDCHAR
STARTCHAR 2586
ENCODING 9606
SWIDTH 977 0
DWIDTH 19 0
BBX 19 15 0 0
BITMAP
FFFFE0
FFFFE0
FFFFE0
FFFFE0
FFFFE0
FFFFE0
FFFFE0
FFFFE0
FFFFE0
FFFFE0
FFFFE0
FFFFE0
FFFFE0
FFFFE0
FFFFE0
ENDCHAR
STARTCHAR 2587
ENCODING 9607
SWIDTH 977 0
DWIDTH 19 0
BBX 19 18 0 0
BITMAP
FFFFE0
FFFFE0
FFFFE0
FFFFE0
FFFFE0
FFFFE0
FFFFE0
FFFFE0
FFFFE0
FFFFE0
FFFFE0
FFFFE0
FFFFE0
FFFFE0
FFFFE0
FFFFE0
FFFFE0
FFFFE0
ENDCHAR
STARTCHAR 2588
ENCODING 9608
SWIDTH 977 0
DWIDTH 19 0
BBX 19 19 0 0
BITMAP
FFFFE0
FFFFE0
FFFFE0
FFFFE0
FFFFE0
FFFFE0
FFFFE0
FFFFE0
FFFFE0
FFFFE0
FFFFE0
FFFFE0
FFFFE0
FFFFE0
FFFFE0
FFFFE0
FFFFE0
FFFFE0
FFFFE0
ENDCHAR
STARTCHAR 2589
ENCODING 9609
SWIDTH 977 0
DWIDTH 19 0
BBX 18 19 0 0
BITMAP
FFFFC0
FFFFC0
FFFFC0
FFFFC0
FFFFC0
FFFFC0
FFFFC0
FFFFC0
FFFFC0
FFFFC0
FFFFC0
FFFFC0
FFFFC0
FFFFC0
FFFFC0
FFFFC0
FFFFC0
FFFFC0
FFFFC0
ENDCHAR
STARTCHAR 258A
ENCODING 9610
SWIDTH 977 0
DWIDTH 19 0
BBX 15 19 0 0
BITMAP
FFFE
FFFE
FFFE
FFFE
FFFE
FFFE
FFFE
FFFE
FFFE
FFFE
FFFE
FFFE
FFFE
FFFE
FFFE
FFFE
FFFE
FFFE
FFFE
ENDCHAR
STARTCHAR 258B
ENCODING 9611
SWIDTH 977 0
DWIDTH 19 0
BBX 13 19 0 0
BITMAP
FFF8
FFF8
FFF8
FFF8
FFF8
FFF8
FFF8
FFF8
FFF8
FFF8
FFF8
FFF8
FFF8
FFF8
FFF8
FFF8
FFF8
FFF8
FFF8
ENDCHAR
STARTCHAR 258C
ENCODING 9612
SWIDTH 977 0
DWIDTH 19 0
BBX 10 19 0 0
BITMAP
FFC0
FFC0
FFC0
FFC0
FFC0
FFC0
FFC0
FFC0
FFC0
FFC0
FFC0
FFC0
FFC0
FFC0
FFC0
FFC0
FFC0
FFC0
FFC0
ENDCHAR
STARTCHAR 258D
ENCODING 9613
SWIDTH 977 0
DWIDTH 19 0
BBX 8 19 0 0
BITMAP
FF
FF
FF
FF
FF
FF
FF
FF
FF
FF
FF
FF
FF
FF
FF
FF
FF
FF
FF
ENDCHAR
STARTCHAR 258E
ENCODING 9614
SWIDTH 977 0
DWIDTH 19 0
BBX 5 19 0 0
BITMAP
F8
F8
F8
F8
F8
F8
F8
F8
F8
F8
F8
F8
F8
F8
F8
F8
F8
F8
F8
ENDCHAR
STARTCHAR 258F
ENCODING 9615
SWIDTH 977 0
DWIDTH 19 0
BBX 3 19 0 0
BITMAP
E0
E0
E0
E0
E0
E0
E0
E0
E0
E0
E0
E0
E0
E0
E0
E0
E0
E0
E0
ENDCHAR
STARTCHAR 2590
ENCODING 9616
SWIDTH 977 0
DWIDTH 19 0
BBX 10 19 10 0
BITMAP
FFC0
FFC0
FFC0
FFC0
FFC0
FFC0
FFC0
FFC0
FFC0
FFC0
FFC0
FFC0
FFC0
FFC0
FFC0
FFC0
FFC0
FFC0
FFC0
ENDCHAR
STARTCHAR 2591
ENCODING 9617
SWIDTH 977 0
DWIDTH 19 0
BBX 18 19 0 1
BITMAP
DB36C0
DB36C0
000000
000000
DB36C0
DB36C0
000000
DB36C0
DB36C0
000000
DB36C0
DB36C0
000000
DB36C0
DB36C0
000000
000000
DB36C0
DB36C0
ENDCHAR
STARTCHAR 2592
ENCODING 9618
SWIDTH 977 0
DWIDTH 19 0
BBX 20 20 0 0
BITMAP
DB36C0
DB36C0
24C930
24C930
DB36C0
DB36C0
24C930
DB36C0
DB36C0
24C930
DB36C0
DB36C0
24C930
DB36C0
DB36C0
24C930
24C930
DB36C0
FFFFF0
24C930
ENDCHAR
STARTCHAR 2593
ENCODING 9619
SWIDTH 977 0
DWIDTH 19 0
BBX 19 19 0 0
BITMAP
DB36C0
FFFFE0
FFFFE0
DB36C0
FFFFE0
FFFFE0
DB36C0
FFFFE0
FFFFE0
DB36C0
DB36C0
FFFFE0
FFFFE0
DB36C0
FFFFE0
FFFFE0
DB36C0
FFFFE0
FFFFE0
ENDCHAR
STARTCHAR 2594
ENCODING 9620
SWIDTH 977 0
DWIDTH 19 0
BBX 19 3 0 16
BITMAP
FFFFE0
FFFFE0
FFFFE0
ENDCHAR
STARTCHAR 2595
ENCODING 9621
SWIDTH 977 0
DWIDTH 19 0
BBX 3 19 16 0
BITMAP
E0
E0
E0
E0
E0
E0
E0
E0
E0
E0
E0
E0
E0
E0
E0
E0
E0
E0
E0
ENDCHAR
STARTCHAR 2596
ENCODING 9622
SWIDTH 977 0
DWIDTH 19 0
BBX 10 10 0 0
BITMAP
FFC0
FFC0
FFC0
FFC0
FFC0
FFC0
FFC0
FFC0
FFC0
FFC0
ENDCHAR
STARTCHAR 2597
ENCODING 9623
SWIDTH 977 0
DWIDTH 19 0
BBX 10 10 10 0
BITMAP
FFC0
FFC0
FFC0
FFC0
FFC0
FFC0
FFC0
FFC0
FFC0
FFC0
ENDCHAR
STARTCHAR 2598
ENCODING 9624
SWIDTH 977 0
DWIDTH 19 0
BBX 10 10 0 10
BITMAP
FFC0
FFC0
FFC0
FFC0
FFC0
FFC0
FFC0
FFC0
FFC0
FFC0
ENDCHAR
STARTCHAR 2599
ENCODING 9625
SWIDTH 977 0
DWIDTH 19 0
BBX 19 19 0 0
BITMAP
FFC000
FFC000
FFC000
FFC000
FFC000
FFC000
FFC000
FFC000
FFC000
FFFFE0
FFFFE0
FFFFE0
FFFFE0
FFFFE0
FFFFE0
FFFFE0
FFFFE0
FFFFE0
FFFFE0
ENDCHAR
STARTCHAR 259A
ENCODING 9626
SWIDTH 977 0
DWIDTH 19 0
BBX 19 20 0 0
BITMAP
FFC000
FFC000
FFC000
FFC000
FFC000
FFC000
FFC000
FFC000
FFC000
FFC000
003FE0
003FE0
003FE0
003FE0
003FE0
003FE0
003FE0
003FE0
003FE0
003FE0
ENDCHAR
STARTCHAR 259B
ENCODING 9627
SWIDTH 977 0
DWIDTH 19 0
BBX 19 20 0 0
BITMAP
FFFFE0
FFFFE0
FFFFE0
FFFFE0
FFFFE0
FFFFE0
FFFFE0
FFFFE0
FFFFE0
FFFFE0
FFC000
FFC000
FFC000
FFC000
FFC000
FFC000
FFC000
FFC000
FFC000
FFC000
ENDCHAR
STARTCHAR 259C
ENCODING 9628
SWIDTH 977 0
DWIDTH 19 0
BBX 20 20 0 0
BITMAP
FFFFF0
FFFFF0
FFFFF0
FFFFF0
FFFFF0
FFFFF0
FFFFF0
FFFFF0
FFFFF0
FFFFF0
003FF0
003FF0
003FF0
003FF0
003FF0
003FF0
003FF0
003FF0
003FF0
003FF0
ENDCHAR
STARTCHAR 259D
ENCODING 9629
SWIDTH 977 0
DWIDTH 19 0
BBX 10 10 10 10
BITMAP
FFC0
FFC0
FFC0
FFC0
FFC0
FFC0
FFC0
FFC0
FFC0
FFC0
ENDCHAR
STARTCHAR 259E
ENCODING 9630
SWIDTH 977 0
DWIDTH 19 0
BBX 19 20 0 0
BITMAP
003FE0
003FE0
003FE0
003FE0
003FE0
003FE0
003FE0
003FE0
003FE0
003FE0
FFC000
FFC000
FFC000
FFC000
FFC000
FFC000
FFC000
FFC000
FFC000
FFC000
ENDCHAR
STARTCHAR 259F
ENCODING 9631
SWIDTH 977 0
DWIDTH 19 0
BBX 20 19 0 0
BITMAP
003FF0
003FF0
003FF0
003FF0
003FF0
003FF0
003FF0
003FF0
003FF0
FFFFF0
FFFFF0
FFFFF0
FFFFF0
FFFFF0
FFFFF0
FFFFF0
FFFFF0
FFFFF0
FFFFF0
ENDCHAR
STARTCHAR 25A0
ENCODING 9632
SWIDTH 977 0
DWIDTH 19 0
BBX 18 18 0 0
BITMAP
FFFFC0
FFFFC0
FFFFC0
FFFFC0
FFFFC0
FFFFC0
FFFFC0
FFFFC0
FFFFC0
FFFFC0
FFFFC0
FFFFC0
FFFFC0
FFFFC0
FFFFC0
FFFFC0
FFFFC0
FFFFC0
ENDCHAR
STARTCHAR 25A1
ENCODING 9633
SWIDTH 977 0
DWIDTH 19 0
BBX 18 18 0 0
BITMAP
FFFFC0
FFFFC0
C000C0
C000C0
C000C0
C000C0
C000C0
C000C0
C000C0
C000C0
C000C0
C000C0
C000C0
C000C0
C000C0
C000C0
FFFFC0
FFFFC0
ENDCHAR
STARTCHAR 25A2
ENCODING 9634
SWIDTH 977 0
DWIDTH 19 0
BBX 18 18 0 0
BITMAP
3FFF00
3FFF00
C000C0
C000C0
C000C0
C000C0
C000C0
C000C0
C000C0
C000C0
C000C0
C000C0
C000C0
C000C0
C000C0
C000C0
FFFFC0
3FFF00
ENDCHAR
STARTCHAR 25A3
ENCODING 9635
SWIDTH 977 0
DWIDTH 19 0
BBX 18 18 0 0
BITMAP
FFFFC0
FFFFC0
C000C0
C000C0
C000C0
C7F8C0
C7F8C0
C7F8C0
C7F8C0
C7F8C0
C7F8C0
C7F8C0
C7F8C0
C000C0
C000C0
C000C0
FFFFC0
FFFFC0
ENDCHAR
ENDFONT
